<?xml version="1.0" encoding="UTF-8" standalone="no"?>
<!-- Created with Inkscape (http://www.inkscape.org/) -->

<svg
   xmlns:dc="http://purl.org/dc/elements/1.1/"
   xmlns:cc="http://creativecommons.org/ns#"
   xmlns:rdf="http://www.w3.org/1999/02/22-rdf-syntax-ns#"
   xmlns:svg="http://www.w3.org/2000/svg"
   xmlns="http://www.w3.org/2000/svg"
   xmlns:sodipodi="http://sodipodi.sourceforge.net/DTD/sodipodi-0.dtd"
   xmlns:inkscape="http://www.inkscape.org/namespaces/inkscape"
   width="166.02959mm"
   height="110.30424mm"
   id="svg2"
   version="1.1"
   inkscape:version="0.91 r13725"
   sodipodi:docname="cocreacionInnovacionBartl.svg">
  <defs
     id="defs4">
    <marker
       inkscape:stockid="Arrow1Lend"
       orient="auto"
       refY="0"
       refX="0"
       id="Arrow1Lend"
       style="overflow:visible">
      <path
         id="path3762"
         d="M 0,0 5,-5 -12.5,0 5,5 0,0 Z"
         style="fill-rule:evenodd;stroke:#000000;stroke-width:1pt;marker-start:none"
         transform="matrix(-0.8,0,0,-0.8,-10,0)"
         inkscape:connector-curvature="0" />
    </marker>
    <marker
       inkscape:stockid="Arrow1Lstart"
       orient="auto"
       refY="0"
       refX="0"
       id="Arrow1Lstart"
       style="overflow:visible">
      <path
         id="path3759"
         d="M 0,0 5,-5 -12.5,0 5,5 0,0 Z"
         style="fill-rule:evenodd;stroke:#000000;stroke-width:1pt;marker-start:none"
         transform="matrix(0.8,0,0,0.8,10,0)"
         inkscape:connector-curvature="0" />
    </marker>
  </defs>
  <sodipodi:namedview
     id="base"
     pagecolor="#ffffff"
     bordercolor="#666666"
     borderopacity="1.0"
     inkscape:pageopacity="0.0"
     inkscape:pageshadow="2"
     inkscape:zoom="0.57"
     inkscape:cx="370.1444"
     inkscape:cy="16.648482"
     inkscape:document-units="px"
     inkscape:current-layer="layer1"
     showgrid="false"
     inkscape:window-width="1920"
     inkscape:window-height="1020"
     inkscape:window-x="0"
     inkscape:window-y="27"
     inkscape:window-maximized="1"
     fit-margin-top="5"
     fit-margin-left="3"
     fit-margin-right="3"
     fit-margin-bottom="3"
     units="mm" />
  <metadata
     id="metadata7">
    <rdf:RDF>
      <cc:Work
         rdf:about="">
        <dc:format>image/svg+xml</dc:format>
        <dc:type
           rdf:resource="http://purl.org/dc/dcmitype/StillImage" />
        <dc:title></dc:title>
      </cc:Work>
    </rdf:RDF>
  </metadata>
  <g
     inkscape:label="Layer 1"
     inkscape:groupmode="layer"
     id="layer1"
     transform="translate(-113.94296,-235.42724)">
    <g
       id="g4862"
       transform="translate(7.1428568,21.428571)">
      <rect
         y="263.03339"
         x="137.19228"
         height="285.85257"
         width="168.37149"
         id="rect4784"
         style="fill:#fafafa;fill-opacity:1;stroke:none" />
      <rect
         style="fill:#fafafa;fill-opacity:1;stroke:none"
         id="rect4786"
         width="168.37149"
         height="285.85257"
         x="313.43018"
         y="258.74771" />
      <rect
         y="263.77197"
         x="489.47672"
         height="285.85257"
         width="168.37149"
         id="rect4788"
         style="fill:#fafafa;fill-opacity:1;stroke:none" />
      <path
         sodipodi:nodetypes="cc"
         inkscape:connector-curvature="0"
         id="path4761"
         d="m 138.4843,316.13219 c 147.90635,39.43679 365.12148,47.71364 523.74569,49.17426"
         style="fill:none;stroke:#979797;stroke-width:1.77165353;stroke-linecap:butt;stroke-linejoin:miter;stroke-miterlimit:4;stroke-dasharray:none;stroke-opacity:1" />
      <path
         style="fill:none;stroke:#979797;stroke-width:1.77165353;stroke-linecap:butt;stroke-linejoin:miter;stroke-miterlimit:4;stroke-dasharray:none;stroke-opacity:1"
         d="M 138.56846,502.96478 C 286.42728,463.52789 503.5726,455.25101 662.14583,453.79039"
         id="path4782"
         inkscape:connector-curvature="0"
         sodipodi:nodetypes="cc" />
      <g
         id="g4857">
        <path
           style="fill:none;stroke:#3aac47;stroke-width:17.71653557;stroke-miterlimit:4;stroke-dasharray:none;stroke-opacity:1;marker-start:none;marker-end:none"
           d="m 202.49503,263.79074 c 163.91106,0 294.89629,0 431.79068,0 17.41143,0 31.42857,14.01714 31.42857,31.42857 l 0,222.85715 c 0,17.41143 -14.01714,31.42858 -31.42857,31.42858 l -3.68304,0 m -40.04853,0 c -160.514,0 -289.85707,0 -427.69699,0 -17.41143,0 -31.42858,-14.01715 -31.42858,-31.42858 l 0,-222.85715 c 0,-17.41143 14.01715,-31.42857 31.42858,-31.42857 l 1.84152,0"
           id="rect2985"
           inkscape:connector-curvature="0"
           sodipodi:nodetypes="ccssscccsssc" />
        <path
           style="fill:none;stroke:#3aac47;stroke-width:17.71653557;stroke-miterlimit:4;stroke-opacity:1"
           d="m 611.95001,549.60886 10.6066,-10.60661 0,21.21321 z"
           id="rect4756"
           inkscape:connector-curvature="0"
           sodipodi:nodetypes="cccc" />
        <path
           sodipodi:nodetypes="cccc"
           inkscape:connector-curvature="0"
           id="path4759"
           d="m 183.6137,263.70755 -10.6066,10.60661 0,-21.21321 z"
           style="fill:none;stroke:#3aac47;stroke-width:17.71653557;stroke-miterlimit:4;stroke-opacity:1" />
      </g>
      <text
         sodipodi:linespacing="125%"
         id="text4790"
         y="310.21933"
         x="225.44559"
         style="font-style:normal;font-weight:normal;font-size:12px;line-height:125%;font-family:Sans;letter-spacing:0px;word-spacing:0px;fill:#000000;fill-opacity:1;stroke:none"
         xml:space="preserve"><tspan
           style="text-align:center;text-anchor:middle"
           y="310.21933"
           x="225.44559"
           id="tspan4792"
           sodipodi:role="line">Ideas y conceptos</tspan></text>
      <text
         xml:space="preserve"
         style="font-style:normal;font-weight:normal;font-size:12px;line-height:125%;font-family:Sans;letter-spacing:0px;word-spacing:0px;fill:#000000;fill-opacity:1;stroke:none"
         x="399.01703"
         y="310.21933"
         id="text4794"
         sodipodi:linespacing="125%"><tspan
           style="text-align:center;text-anchor:middle"
           sodipodi:role="line"
           id="tspan4796"
           x="399.01703"
           y="310.21933">Diseño e ingeniería</tspan></text>
      <text
         sodipodi:linespacing="125%"
         id="text4798"
         y="310.21933"
         x="576.87415"
         style="font-style:normal;font-weight:normal;font-size:12px;line-height:125%;font-family:Sans;letter-spacing:0px;word-spacing:0px;fill:#000000;fill-opacity:1;stroke:none"
         xml:space="preserve"><tspan
           y="310.21933"
           x="576.87415"
           id="tspan4800"
           sodipodi:role="line"
           style="text-align:center;text-anchor:middle">Pruebas y lanzamiento</tspan></text>
    </g>
    <g
       id="g5028">
      <ellipse
         transform="matrix(1.4654765,0,0,1.7348476,124.46195,106.0554)"
         id="path4831"
         style="fill:#ffffff;fill-opacity:1;stroke:none"
         cx="58.967655"
         cy="163.30167"
         rx="20.581858"
         ry="16.036171" />
      <g
         transform="matrix(0.79392599,0,0,0.79392599,33.801552,226.35901)"
         id="g4833">
        <path
           style="fill:none;stroke:#8bccd2;stroke-width:7.08661413;stroke-miterlimit:4;stroke-opacity:1"
           d="m 243.30914,176.13578 c 9.80306,6.11398 16.53028,19.14188 16.69086,28.7264 0,19.13272 -16.94922,34.64286 -37.85715,34.64286 -5.22698,0 -10.20654,-0.96938 -14.73571,-2.72241 m -6.43058,-3.19405 c -9.80305,-6.11397 -16.53027,-19.14188 -16.69085,-28.7264 0,-19.13272 16.94922,-34.64285 37.85714,-34.64285 5.22698,0 10.20655,0.96938 14.73571,2.72241"
           id="path4821"
           inkscape:connector-curvature="0"
           sodipodi:nodetypes="ccscccsc" />
        <path
           style="fill:#8bccd2;fill-opacity:1;stroke:none"
           d="m 237.58905,172.89683 9.82812,-2.00454 -7.82359,11.83265 z"
           id="rect4824"
           inkscape:connector-curvature="0"
           sodipodi:nodetypes="cccc" />
        <path
           sodipodi:nodetypes="cccc"
           inkscape:connector-curvature="0"
           id="path4827"
           d="m 207.06968,237.0719 -9.79971,2.13908 7.66065,-11.93879 z"
           style="fill:#8bccd2;fill-opacity:1;stroke:none" />
      </g>
    </g>
    <g
       id="g5004">
      <ellipse
         style="fill:#cbcbcb;fill-opacity:1;stroke:none"
         id="path4881"
         transform="matrix(0.6251163,0,0,0.74001974,102.0352,307.10033)"
         cx="58.967655"
         cy="163.30167"
         rx="20.581858"
         ry="16.036171" />
      <g
         transform="matrix(0.33865851,0,0,0.33865851,63.362931,358.41725)"
         id="g4883">
        <path
           sodipodi:nodetypes="ccscccsc"
           inkscape:connector-curvature="0"
           id="path4885"
           d="m 243.30914,176.13578 c 9.80306,6.11398 16.53028,19.14188 16.69086,28.7264 0,19.13272 -16.94922,34.64286 -37.85715,34.64286 -5.22698,0 -10.20654,-0.96938 -14.73571,-2.72241 m -6.43058,-3.19405 c -9.80305,-6.11397 -16.53027,-19.14188 -16.69085,-28.7264 0,-19.13272 16.94922,-34.64285 37.85714,-34.64285 5.22698,0 10.20655,0.96938 14.73571,2.72241"
           style="fill:none;stroke:#8bccd2;stroke-width:7.08661413;stroke-miterlimit:4;stroke-opacity:1" />
        <path
           sodipodi:nodetypes="cccc"
           inkscape:connector-curvature="0"
           id="path4887"
           d="m 237.58905,172.89683 9.82812,-2.00454 -7.82359,11.83265 z"
           style="fill:#8bccd2;fill-opacity:1;stroke:none" />
        <path
           style="fill:#8bccd2;fill-opacity:1;stroke:none"
           d="m 207.06968,237.0719 -9.79971,2.13908 7.66065,-11.93879 z"
           id="path4889"
           inkscape:connector-curvature="0"
           sodipodi:nodetypes="cccc" />
      </g>
    </g>
    <g
       id="g5016">
      <ellipse
         transform="matrix(1.5407477,0,0,1.8239546,79.538532,181.57281)"
         id="path4893"
         style="fill:#f5f5f5;fill-opacity:1;stroke:none"
         cx="58.967655"
         cy="163.30167"
         rx="20.581858"
         ry="16.036171" />
      <g
         transform="matrix(0.8347044,0,0,0.8347044,-15.778459,308.05557)"
         id="g4895">
        <path
           style="fill:none;stroke:#8bccd2;stroke-width:7.08661413;stroke-miterlimit:4;stroke-opacity:1"
           d="m 243.30914,176.13578 c 9.80306,6.11398 16.53028,19.14188 16.69086,28.7264 0,19.13272 -16.94922,34.64286 -37.85715,34.64286 -5.22698,0 -10.20654,-0.96938 -14.73571,-2.72241 m -6.43058,-3.19405 c -9.80305,-6.11397 -16.53027,-19.14188 -16.69085,-28.7264 0,-19.13272 16.94922,-34.64285 37.85714,-34.64285 5.22698,0 10.20655,0.96938 14.73571,2.72241"
           id="path4897"
           inkscape:connector-curvature="0"
           sodipodi:nodetypes="ccscccsc" />
        <path
           style="fill:#8bccd2;fill-opacity:1;stroke:none"
           d="m 237.58905,172.89683 9.82812,-2.00454 -7.82359,11.83265 z"
           id="path4899"
           inkscape:connector-curvature="0"
           sodipodi:nodetypes="cccc" />
        <path
           sodipodi:nodetypes="cccc"
           inkscape:connector-curvature="0"
           id="path4901"
           d="m 207.06968,237.0719 -9.79971,2.13908 7.66065,-11.93879 z"
           style="fill:#8bccd2;fill-opacity:1;stroke:none" />
      </g>
    </g>
    <g
       id="g5040">
      <ellipse
         style="fill:#a5a5a5;fill-opacity:1;stroke:none"
         id="path4905"
         transform="matrix(1.1206691,0,0,1.3266607,203.22411,241.70021)"
         cx="58.967655"
         cy="163.30167"
         rx="20.581858"
         ry="16.036171" />
      <g
         transform="matrix(0.60712561,0,0,0.60712561,133.89491,333.69795)"
         id="g4907">
        <path
           sodipodi:nodetypes="ccscccsc"
           inkscape:connector-curvature="0"
           id="path4909"
           d="m 243.30914,176.13578 c 9.80306,6.11398 16.53028,19.14188 16.69086,28.7264 0,19.13272 -16.94922,34.64286 -37.85715,34.64286 -5.22698,0 -10.20654,-0.96938 -14.73571,-2.72241 m -6.43058,-3.19405 c -9.80305,-6.11397 -16.53027,-19.14188 -16.69085,-28.7264 0,-19.13272 16.94922,-34.64285 37.85714,-34.64285 5.22698,0 10.20655,0.96938 14.73571,2.72241"
           style="fill:none;stroke:#8bccd2;stroke-width:7.08661413;stroke-miterlimit:4;stroke-opacity:1" />
        <path
           sodipodi:nodetypes="cccc"
           inkscape:connector-curvature="0"
           id="path4911"
           d="m 237.58905,172.89683 9.82812,-2.00454 -7.82359,11.83265 z"
           style="fill:#8bccd2;fill-opacity:1;stroke:none" />
        <path
           style="fill:#8bccd2;fill-opacity:1;stroke:none"
           d="m 207.06968,237.0719 -9.79971,2.13908 7.66065,-11.93879 z"
           id="path4913"
           inkscape:connector-curvature="0"
           sodipodi:nodetypes="cccc" />
      </g>
    </g>
    <g
       id="g5052">
      <ellipse
         style="fill:#cbcbcb;fill-opacity:1;stroke:none"
         id="path4917"
         transform="matrix(0.77037386,0,0,0.91197729,296.73471,244.59958)"
         cx="58.967655"
         cy="163.30167"
         rx="20.581858"
         ry="16.036171" />
      <g
         transform="matrix(0.4173522,0,0,0.4173522,249.07621,307.84096)"
         id="g4919">
        <path
           sodipodi:nodetypes="ccscccsc"
           inkscape:connector-curvature="0"
           id="path4921"
           d="m 243.30914,176.13578 c 9.80306,6.11398 16.53028,19.14188 16.69086,28.7264 0,19.13272 -16.94922,34.64286 -37.85715,34.64286 -5.22698,0 -10.20654,-0.96938 -14.73571,-2.72241 m -6.43058,-3.19405 c -9.80305,-6.11397 -16.53027,-19.14188 -16.69085,-28.7264 0,-19.13272 16.94922,-34.64285 37.85714,-34.64285 5.22698,0 10.20655,0.96938 14.73571,2.72241"
           style="fill:none;stroke:#8bccd2;stroke-width:7.08661413;stroke-miterlimit:4;stroke-opacity:1" />
        <path
           sodipodi:nodetypes="cccc"
           inkscape:connector-curvature="0"
           id="path4923"
           d="m 237.58905,172.89683 9.82812,-2.00454 -7.82359,11.83265 z"
           style="fill:#8bccd2;fill-opacity:1;stroke:none" />
        <path
           style="fill:#8bccd2;fill-opacity:1;stroke:none"
           d="m 207.06968,237.0719 -9.79971,2.13908 7.66065,-11.93879 z"
           id="path4925"
           inkscape:connector-curvature="0"
           sodipodi:nodetypes="cccc" />
      </g>
    </g>
    <g
       id="g5064">
      <ellipse
         transform="matrix(0.77037386,0,0,0.91197729,318.16328,296.74244)"
         id="path4929"
         style="fill:#4a4a4a;fill-opacity:1;stroke:none"
         cx="58.967655"
         cy="163.30167"
         rx="20.581858"
         ry="16.036171" />
      <g
         transform="matrix(0.4173522,0,0,0.4173522,270.50478,359.98382)"
         id="g4931">
        <path
           style="fill:none;stroke:#8bccd2;stroke-width:7.08661413;stroke-miterlimit:4;stroke-opacity:1"
           d="m 243.30914,176.13578 c 9.80306,6.11398 16.53028,19.14188 16.69086,28.7264 0,19.13272 -16.94922,34.64286 -37.85715,34.64286 -5.22698,0 -10.20654,-0.96938 -14.73571,-2.72241 m -6.43058,-3.19405 c -9.80305,-6.11397 -16.53027,-19.14188 -16.69085,-28.7264 0,-19.13272 16.94922,-34.64285 37.85714,-34.64285 5.22698,0 10.20655,0.96938 14.73571,2.72241"
           id="path4933"
           inkscape:connector-curvature="0"
           sodipodi:nodetypes="ccscccsc" />
        <path
           style="fill:#8bccd2;fill-opacity:1;stroke:none"
           d="m 237.58905,172.89683 9.82812,-2.00454 -7.82359,11.83265 z"
           id="path4935"
           inkscape:connector-curvature="0"
           sodipodi:nodetypes="cccc" />
        <path
           sodipodi:nodetypes="cccc"
           inkscape:connector-curvature="0"
           id="path4937"
           d="m 207.06968,237.0719 -9.79971,2.13908 7.66065,-11.93879 z"
           style="fill:#8bccd2;fill-opacity:1;stroke:none" />
      </g>
    </g>
    <g
       id="g5076">
      <ellipse
         transform="matrix(1.189724,0,0,1.4084087,360.49393,204.79589)"
         id="path4941"
         style="fill:#e0e0e0;fill-opacity:1;stroke:none"
         cx="58.967655"
         cy="163.30167"
         rx="20.581858"
         ry="16.036171" />
      <g
         transform="matrix(0.64453632,0,0,0.64453632,286.89271,302.46248)"
         id="g4943">
        <path
           style="fill:none;stroke:#8bccd2;stroke-width:7.08661413;stroke-miterlimit:4;stroke-opacity:1"
           d="m 243.30914,176.13578 c 9.80306,6.11398 16.53028,19.14188 16.69086,28.7264 0,19.13272 -16.94922,34.64286 -37.85715,34.64286 -5.22698,0 -10.20654,-0.96938 -14.73571,-2.72241 m -6.43058,-3.19405 c -9.80305,-6.11397 -16.53027,-19.14188 -16.69085,-28.7264 0,-19.13272 16.94922,-34.64285 37.85714,-34.64285 5.22698,0 10.20655,0.96938 14.73571,2.72241"
           id="path4945"
           inkscape:connector-curvature="0"
           sodipodi:nodetypes="ccscccsc" />
        <path
           style="fill:#8bccd2;fill-opacity:1;stroke:none"
           d="m 237.58905,172.89683 9.82812,-2.00454 -7.82359,11.83265 z"
           id="path4947"
           inkscape:connector-curvature="0"
           sodipodi:nodetypes="cccc" />
        <path
           sodipodi:nodetypes="cccc"
           inkscape:connector-curvature="0"
           id="path4949"
           d="m 207.06968,237.0719 -9.79971,2.13908 7.66065,-11.93879 z"
           style="fill:#8bccd2;fill-opacity:1;stroke:none" />
      </g>
    </g>
    <g
       id="g5088">
      <ellipse
         style="fill:#b5b5b5;fill-opacity:1;stroke:none"
         id="path4953"
         transform="matrix(0.77037386,0,0,0.91197729,470.30614,254.59958)"
         cx="58.967655"
         cy="163.30167"
         rx="20.581858"
         ry="16.036171" />
      <g
         transform="matrix(0.4173522,0,0,0.4173522,422.64764,317.84096)"
         id="g4955">
        <path
           sodipodi:nodetypes="ccscccsc"
           inkscape:connector-curvature="0"
           id="path4957"
           d="m 243.30914,176.13578 c 9.80306,6.11398 16.53028,19.14188 16.69086,28.7264 0,19.13272 -16.94922,34.64286 -37.85715,34.64286 -5.22698,0 -10.20654,-0.96938 -14.73571,-2.72241 m -6.43058,-3.19405 c -9.80305,-6.11397 -16.53027,-19.14188 -16.69085,-28.7264 0,-19.13272 16.94922,-34.64285 37.85714,-34.64285 5.22698,0 10.20655,0.96938 14.73571,2.72241"
           style="fill:none;stroke:#8bccd2;stroke-width:7.08661413;stroke-miterlimit:4;stroke-opacity:1" />
        <path
           sodipodi:nodetypes="cccc"
           inkscape:connector-curvature="0"
           id="path4959"
           d="m 237.58905,172.89683 9.82812,-2.00454 -7.82359,11.83265 z"
           style="fill:#8bccd2;fill-opacity:1;stroke:none" />
        <path
           style="fill:#8bccd2;fill-opacity:1;stroke:none"
           d="m 207.06968,237.0719 -9.79971,2.13908 7.66065,-11.93879 z"
           id="path4961"
           inkscape:connector-curvature="0"
           sodipodi:nodetypes="cccc" />
      </g>
    </g>
    <g
       id="g5112">
      <ellipse
         style="fill:#ffffff;fill-opacity:1;stroke:none"
         id="path4965"
         transform="matrix(1.4654765,0,0,1.7348476,573.03338,152.48397)"
         cx="58.967655"
         cy="163.30167"
         rx="20.581858"
         ry="16.036171" />
      <g
         transform="matrix(0.79392599,0,0,0.79392599,482.37298,272.78758)"
         id="g4967">
        <path
           sodipodi:nodetypes="ccscccsc"
           inkscape:connector-curvature="0"
           id="path4969"
           d="m 243.30914,176.13578 c 9.80306,6.11398 16.53028,19.14188 16.69086,28.7264 0,19.13272 -16.94922,34.64286 -37.85715,34.64286 -5.22698,0 -10.20654,-0.96938 -14.73571,-2.72241 m -6.43058,-3.19405 c -9.80305,-6.11397 -16.53027,-19.14188 -16.69085,-28.7264 0,-19.13272 16.94922,-34.64285 37.85714,-34.64285 5.22698,0 10.20655,0.96938 14.73571,2.72241"
           style="fill:none;stroke:#8bccd2;stroke-width:7.08661413;stroke-miterlimit:4;stroke-opacity:1" />
        <path
           sodipodi:nodetypes="cccc"
           inkscape:connector-curvature="0"
           id="path4971"
           d="m 237.58905,172.89683 9.82812,-2.00454 -7.82359,11.83265 z"
           style="fill:#8bccd2;fill-opacity:1;stroke:none" />
        <path
           style="fill:#8bccd2;fill-opacity:1;stroke:none"
           d="m 207.06968,237.0719 -9.79971,2.13908 7.66065,-11.93879 z"
           id="path4973"
           inkscape:connector-curvature="0"
           sodipodi:nodetypes="cccc" />
      </g>
    </g>
    <g
       id="g5100">
      <ellipse
         transform="matrix(1.0343504,0,0,1.2244757,492.76478,240.8663)"
         id="path4989"
         style="fill:#cbcbcb;fill-opacity:1;stroke:none"
         cx="58.967655"
         cy="163.30167"
         rx="20.581858"
         ry="16.036171" />
      <g
         transform="matrix(0.56036222,0,0,0.56036222,428.77561,325.77799)"
         id="g4991">
        <path
           style="fill:none;stroke:#8bccd2;stroke-width:7.08661413;stroke-miterlimit:4;stroke-opacity:1"
           d="m 243.30914,176.13578 c 9.80306,6.11398 16.53028,19.14188 16.69086,28.7264 0,19.13272 -16.94922,34.64286 -37.85715,34.64286 -5.22698,0 -10.20654,-0.96938 -14.73571,-2.72241 m -6.43058,-3.19405 c -9.80305,-6.11397 -16.53027,-19.14188 -16.69085,-28.7264 0,-19.13272 16.94922,-34.64285 37.85714,-34.64285 5.22698,0 10.20655,0.96938 14.73571,2.72241"
           id="path4993"
           inkscape:connector-curvature="0"
           sodipodi:nodetypes="ccscccsc" />
        <path
           style="fill:#8bccd2;fill-opacity:1;stroke:none"
           d="m 237.58905,172.89683 9.82812,-2.00454 -7.82359,11.83265 z"
           id="path4995"
           inkscape:connector-curvature="0"
           sodipodi:nodetypes="cccc" />
        <path
           sodipodi:nodetypes="cccc"
           inkscape:connector-curvature="0"
           id="path4997"
           d="m 207.06968,237.0719 -9.79971,2.13908 7.66065,-11.93879 z"
           style="fill:#8bccd2;fill-opacity:1;stroke:none" />
      </g>
    </g>
    <rect
       style="fill:#ffffff;fill-opacity:1;stroke:#000000;stroke-width:0.85358387;stroke-opacity:1"
       id="rect5119"
       width="246.58154"
       height="90.295517"
       x="327.14285"
       y="524.91681" />
    <g
       id="g5142"
       transform="translate(-33.932926,0)">
      <ellipse
         transform="matrix(1.4654765,0,0,1.7348476,444.46195,283.19826)"
         id="path5123"
         style="fill:#e9e9e9;fill-opacity:1;stroke:none"
         cx="58.967655"
         cy="163.30167"
         rx="20.581858"
         ry="16.036171" />
      <g
         id="g5125"
         transform="matrix(0.79392599,0,0,0.79392599,353.80155,403.50187)">
        <path
           style="fill:none;stroke:#8bccd2;stroke-width:7.08661413;stroke-miterlimit:4;stroke-opacity:1"
           d="m 243.30914,176.13578 c 9.80306,6.11398 16.53028,19.14188 16.69086,28.7264 0,19.13272 -16.94922,34.64286 -37.85715,34.64286 -5.22698,0 -10.20654,-0.96938 -14.73571,-2.72241 m -6.43058,-3.19405 c -9.80305,-6.11397 -16.53027,-19.14188 -16.69085,-28.7264 0,-19.13272 16.94922,-34.64285 37.85714,-34.64285 5.22698,0 10.20655,0.96938 14.73571,2.72241"
           id="path5127"
           inkscape:connector-curvature="0"
           sodipodi:nodetypes="ccscccsc" />
        <path
           style="fill:#8bccd2;fill-opacity:1;stroke:none"
           d="m 237.58905,172.89683 9.82812,-2.00454 -7.82359,11.83265 z"
           id="path5129"
           inkscape:connector-curvature="0"
           sodipodi:nodetypes="cccc" />
        <path
           sodipodi:nodetypes="cccc"
           inkscape:connector-curvature="0"
           id="path5131"
           d="m 207.06968,237.0719 -9.79971,2.13908 7.66065,-11.93879 z"
           style="fill:#8bccd2;fill-opacity:1;stroke:none" />
      </g>
    </g>
    <text
       xml:space="preserve"
       style="font-style:normal;font-weight:normal;font-size:10.24492264px;line-height:125%;font-family:Sans;letter-spacing:0px;word-spacing:0px;fill:#000000;fill-opacity:1;stroke:none"
       x="496.66119"
       y="569.02478"
       id="text5133"
       sodipodi:linespacing="125%"><tspan
         sodipodi:role="line"
         id="tspan5135"
         x="496.66119"
         y="569.02478"
         style="font-size:8px;text-align:center;text-anchor:middle">Co-Creación</tspan></text>
    <text
       sodipodi:linespacing="125%"
       id="text5149"
       y="537.31525"
       x="444.59775"
       style="font-style:normal;font-weight:normal;font-size:10.24492264px;line-height:125%;font-family:Sans;text-align:start;letter-spacing:0px;word-spacing:0px;text-anchor:start;fill:#000000;fill-opacity:1;stroke:none"
       xml:space="preserve"><tspan
         y="537.31525"
         x="444.59775"
         sodipodi:role="line"
         id="tspan5153"
         style="font-size:8px;text-align:center;text-anchor:middle">búsqueda y</tspan><tspan
         y="547.31525"
         x="444.59775"
         sodipodi:role="line"
         id="tspan5157"
         style="font-size:8px;text-align:center;text-anchor:middle">adquisición</tspan></text>
    <text
       xml:space="preserve"
       style="font-style:normal;font-weight:normal;font-size:10.24492264px;line-height:125%;font-family:Sans;text-align:start;letter-spacing:0px;word-spacing:0px;text-anchor:start;fill:#000000;fill-opacity:1;stroke:none"
       x="538.89838"
       y="595.2442"
       id="text5159"
       sodipodi:linespacing="125%"><tspan
         style="font-size:8px;text-align:center;text-anchor:middle"
         id="tspan5161"
         sodipodi:role="line"
         x="538.89838"
         y="595.2442">asimilación</tspan><tspan
         style="font-size:8px;text-align:center;text-anchor:middle"
         id="tspan5163"
         sodipodi:role="line"
         x="538.89838"
         y="605.2442">y explotación</tspan></text>
    <ellipse
       transform="matrix(0.77037386,0,0,0.91197729,307.60744,421.23736)"
       id="path5175"
       style="fill:#464646;fill-opacity:1;stroke:none"
       cx="58.967655"
       cy="163.30167"
       rx="20.581858"
       ry="16.036171" />
    <ellipse
       style="fill:#787878;fill-opacity:1;stroke:none"
       id="path5190"
       transform="matrix(0.77037386,0,0,0.91197729,325.46458,421.23736)"
       cx="58.967655"
       cy="163.30167"
       rx="20.581858"
       ry="16.036171" />
    <ellipse
       transform="matrix(0.77037386,0,0,0.91197729,345.41509,421.23736)"
       id="path5192"
       style="fill:#aaaaaa;fill-opacity:1;stroke:none"
       cx="58.967655"
       cy="163.30167"
       rx="20.581858"
       ry="16.036171" />
    <ellipse
       style="fill:#dcdcdc;fill-opacity:1;stroke:none"
       id="path5194"
       transform="matrix(0.77037386,0,0,0.91197729,365.61814,421.23736)"
       cx="58.967655"
       cy="163.30167"
       rx="20.581858"
       ry="16.036171" />
    <text
       sodipodi:linespacing="125%"
       id="text5196"
       y="593.7735"
       x="411.55585"
       style="font-style:normal;font-weight:normal;font-size:10.24492264px;line-height:125%;font-family:Sans;letter-spacing:0px;word-spacing:0px;fill:#000000;fill-opacity:1;stroke:none"
       xml:space="preserve"><tspan
         style="font-size:8px;text-align:center;text-anchor:middle"
         y="593.7735"
         x="411.55585"
         id="tspan5198"
         sodipodi:role="line">abierto</tspan></text>
    <text
       xml:space="preserve"
       style="font-style:normal;font-weight:normal;font-size:10.24492264px;line-height:125%;font-family:Sans;letter-spacing:0px;word-spacing:0px;fill:#000000;fill-opacity:1;stroke:none"
       x="350.69415"
       y="593.7735"
       id="text5200"
       sodipodi:linespacing="125%"><tspan
         sodipodi:role="line"
         id="tspan5202"
         x="350.69415"
         y="593.7735"
         style="font-size:8px;text-align:center;text-anchor:middle">cerrado</tspan></text>
  </g>
</svg>
