<?xml version="1.0" encoding="UTF-8" standalone="no"?>
<!-- Created with Inkscape (http://www.inkscape.org/) -->

<svg
   xmlns:dc="http://purl.org/dc/elements/1.1/"
   xmlns:cc="http://creativecommons.org/ns#"
   xmlns:rdf="http://www.w3.org/1999/02/22-rdf-syntax-ns#"
   xmlns:svg="http://www.w3.org/2000/svg"
   xmlns="http://www.w3.org/2000/svg"
   xmlns:sodipodi="http://sodipodi.sourceforge.net/DTD/sodipodi-0.dtd"
   xmlns:inkscape="http://www.inkscape.org/namespaces/inkscape"
   width="540.27631"
   height="138.14528"
   id="svg2"
   version="1.1"
   inkscape:version="0.48.5 r10040"
   sodipodi:docname="evolucion.pdf">
  <sodipodi:namedview
     id="base"
     pagecolor="#ffffff"
     bordercolor="#666666"
     borderopacity="1.0"
     inkscape:pageopacity="0.0"
     inkscape:pageshadow="2"
     inkscape:zoom="1.4439306"
     inkscape:cx="255.97648"
     inkscape:cy="37.356776"
     inkscape:document-units="px"
     inkscape:current-layer="layer1"
     showgrid="false"
     inkscape:window-width="1400"
     inkscape:window-height="768"
     inkscape:window-x="0"
     inkscape:window-y="27"
     inkscape:window-maximized="0"
     fit-margin-top="5"
     fit-margin-left="3"
     fit-margin-right="3"
     fit-margin-bottom="3"
     units="mm" />
  <defs
     id="defs4">
    <marker
       inkscape:stockid="DotS"
       orient="auto"
       refY="0"
       refX="0"
       id="DotS"
       style="overflow:visible">
      <path
         id="path3935"
         d="m -2.5,-1 c 0,2.76 -2.24,5 -5,5 -2.76,0 -5,-2.24 -5,-5 0,-2.76 2.24,-5 5,-5 2.76,0 5,2.24 5,5 z"
         style="fill-rule:evenodd;stroke:#000000;stroke-width:1pt"
         transform="matrix(0.2,0,0,0.2,1.48,0.2)"
         inkscape:connector-curvature="0" />
    </marker>
    <marker
       style="overflow:visible"
       id="Arrow1Sstart"
       refX="0"
       refY="0"
       orient="auto"
       inkscape:stockid="Arrow1Sstart">
      <path
         inkscape:connector-curvature="0"
         transform="matrix(0.2,0,0,0.2,1.2,0)"
         style="fill-rule:evenodd;stroke:#000000;stroke-width:1pt"
         d="M 0,0 5,-5 -12.5,0 5,5 0,0 z"
         id="path3835" />
    </marker>
    <marker
       style="overflow:visible"
       id="Arrow1Send"
       refX="0"
       refY="0"
       orient="auto"
       inkscape:stockid="Arrow1Send">
      <path
         inkscape:connector-curvature="0"
         transform="matrix(-0.2,0,0,-0.2,-1.2,0)"
         style="fill-rule:evenodd;stroke:#000000;stroke-width:1pt"
         d="M 0,0 5,-5 -12.5,0 5,5 0,0 z"
         id="path3838" />
    </marker>
    <marker
       style="overflow:visible"
       id="Arrow1Lstart"
       refX="0"
       refY="0"
       orient="auto"
       inkscape:stockid="Arrow1Lstart">
      <path
         inkscape:connector-curvature="0"
         transform="matrix(0.8,0,0,0.8,10,0)"
         style="fill-rule:evenodd;stroke:#000000;stroke-width:1pt;marker-start:none"
         d="M 0,0 5,-5 -12.5,0 5,5 0,0 z"
         id="path4075" />
    </marker>
    <marker
       style="overflow:visible"
       id="Arrow1Lend"
       refX="0"
       refY="0"
       orient="auto"
       inkscape:stockid="Arrow1Lend">
      <path
         inkscape:connector-curvature="0"
         transform="matrix(-0.8,0,0,-0.8,-10,0)"
         style="fill-rule:evenodd;stroke:#000000;stroke-width:1pt;marker-start:none"
         d="M 0,0 5,-5 -12.5,0 5,5 0,0 z"
         id="path4078" />
    </marker>
    <marker
       style="overflow:visible"
       id="Arrow1Sstartg"
       refX="0"
       refY="0"
       orient="auto"
       inkscape:stockid="Arrow1Sstartg">
      <path
         inkscape:connector-curvature="0"
         transform="matrix(0.2,0,0,0.2,1.2,0)"
         style="fill:#399d2d;fill-rule:evenodd;stroke:#399d2d;stroke-width:1pt"
         d="M 0,0 5,-5 -12.5,0 5,5 0,0 z"
         id="path3820" />
    </marker>
    <marker
       style="overflow:visible"
       id="Arrow1Sendt"
       refX="0"
       refY="0"
       orient="auto"
       inkscape:stockid="Arrow1Sendt">
      <path
         inkscape:connector-curvature="0"
         transform="matrix(-0.2,0,0,-0.2,-1.2,0)"
         style="fill:#399d2d;fill-rule:evenodd;stroke:#399d2d;stroke-width:1pt"
         d="M 0,0 5,-5 -12.5,0 5,5 0,0 z"
         id="path3823" />
    </marker>
    <marker
       inkscape:stockid="DotSz"
       orient="auto"
       refY="0"
       refX="0"
       id="DotSz"
       style="overflow:visible">
      <path
         id="path7060"
         d="m -2.5,-1 c 0,2.76 -2.24,5 -5,5 -2.76,0 -5,-2.24 -5,-5 0,-2.76 2.24,-5 5,-5 2.76,0 5,2.24 5,5 z"
         style="fill:#399d2d;fill-rule:evenodd;stroke:#399d2d;stroke-width:1pt"
         transform="matrix(0.2,0,0,0.2,1.48,0.2)"
         inkscape:connector-curvature="0" />
    </marker>
    <marker
       inkscape:stockid="DotSR"
       orient="auto"
       refY="0"
       refX="0"
       id="DotSR"
       style="overflow:visible">
      <path
         id="path7063"
         d="m -2.5,-1 c 0,2.76 -2.24,5 -5,5 -2.76,0 -5,-2.24 -5,-5 0,-2.76 2.24,-5 5,-5 2.76,0 5,2.24 5,5 z"
         style="fill:#399d2d;fill-rule:evenodd;stroke:#399d2d;stroke-width:1pt"
         transform="matrix(0.2,0,0,0.2,1.48,0.2)"
         inkscape:connector-curvature="0" />
    </marker>
    <marker
       inkscape:stockid="DotS1"
       orient="auto"
       refY="0"
       refX="0"
       id="DotS1"
       style="overflow:visible">
      <path
         id="path7066"
         d="m -2.5,-1 c 0,2.76 -2.24,5 -5,5 -2.76,0 -5,-2.24 -5,-5 0,-2.76 2.24,-5 5,-5 2.76,0 5,2.24 5,5 z"
         style="fill:#399d2d;fill-rule:evenodd;stroke:#399d2d;stroke-width:1pt"
         transform="matrix(0.2,0,0,0.2,1.48,0.2)"
         inkscape:connector-curvature="0" />
    </marker>
    <marker
       inkscape:stockid="DotS0"
       orient="auto"
       refY="0"
       refX="0"
       id="DotS0"
       style="overflow:visible">
      <path
         id="path7165"
         d="m -2.5,-1 c 0,2.76 -2.24,5 -5,5 -2.76,0 -5,-2.24 -5,-5 0,-2.76 2.24,-5 5,-5 2.76,0 5,2.24 5,5 z"
         style="fill:#399d2d;fill-rule:evenodd;stroke:#399d2d;stroke-width:1pt"
         transform="matrix(0.2,0,0,0.2,1.48,0.2)"
         inkscape:connector-curvature="0" />
    </marker>
    <marker
       inkscape:stockid="DotS2"
       orient="auto"
       refY="0"
       refX="0"
       id="DotS2"
       style="overflow:visible">
      <path
         id="path7168"
         d="m -2.5,-1 c 0,2.76 -2.24,5 -5,5 -2.76,0 -5,-2.24 -5,-5 0,-2.76 2.24,-5 5,-5 2.76,0 5,2.24 5,5 z"
         style="fill:#399d2d;fill-rule:evenodd;stroke:#399d2d;stroke-width:1pt"
         transform="matrix(0.2,0,0,0.2,1.48,0.2)"
         inkscape:connector-curvature="0" />
    </marker>
    <marker
       inkscape:stockid="DotSs"
       orient="auto"
       refY="0"
       refX="0"
       id="DotSs"
       style="overflow:visible">
      <path
         id="path7171"
         d="m -2.5,-1 c 0,2.76 -2.24,5 -5,5 -2.76,0 -5,-2.24 -5,-5 0,-2.76 2.24,-5 5,-5 2.76,0 5,2.24 5,5 z"
         style="fill:#399d2d;fill-rule:evenodd;stroke:#399d2d;stroke-width:1pt"
         transform="matrix(0.2,0,0,0.2,1.48,0.2)"
         inkscape:connector-curvature="0" />
    </marker>
    <marker
       style="overflow:visible"
       id="Arrow1Sstart5"
       refX="0"
       refY="0"
       orient="auto"
       inkscape:stockid="Arrow1Sstart5">
      <path
         inkscape:connector-curvature="0"
         transform="matrix(0.2,0,0,0.2,1.2,0)"
         style="fill:#399d2d;fill-rule:evenodd;stroke:#399d2d;stroke-width:1pt"
         d="M 0,0 5,-5 -12.5,0 5,5 0,0 z"
         id="path8336" />
    </marker>
    <marker
       inkscape:stockid="DotSRb"
       orient="auto"
       refY="0"
       refX="0"
       id="DotSRb"
       style="overflow:visible">
      <path
         id="path8339"
         d="m -2.5,-1 c 0,2.76 -2.24,5 -5,5 -2.76,0 -5,-2.24 -5,-5 0,-2.76 2.24,-5 5,-5 2.76,0 5,2.24 5,5 z"
         style="fill:#399d2d;fill-rule:evenodd;stroke:#399d2d;stroke-width:1pt"
         transform="matrix(0.2,0,0,0.2,1.48,0.2)"
         inkscape:connector-curvature="0" />
    </marker>
    <marker
       inkscape:stockid="DotS1I"
       orient="auto"
       refY="0"
       refX="0"
       id="DotS1I"
       style="overflow:visible">
      <path
         id="path8342"
         d="m -2.5,-1 c 0,2.76 -2.24,5 -5,5 -2.76,0 -5,-2.24 -5,-5 0,-2.76 2.24,-5 5,-5 2.76,0 5,2.24 5,5 z"
         style="fill:#399d2d;fill-rule:evenodd;stroke:#399d2d;stroke-width:1pt"
         transform="matrix(0.2,0,0,0.2,1.48,0.2)"
         inkscape:connector-curvature="0" />
    </marker>
    <marker
       inkscape:stockid="DotS2R"
       orient="auto"
       refY="0"
       refX="0"
       id="DotS2R"
       style="overflow:visible">
      <path
         id="path8469"
         d="m -2.5,-1 c 0,2.76 -2.24,5 -5,5 -2.76,0 -5,-2.24 -5,-5 0,-2.76 2.24,-5 5,-5 2.76,0 5,2.24 5,5 z"
         style="fill:#399d2d;fill-rule:evenodd;stroke:#399d2d;stroke-width:1pt"
         transform="matrix(0.2,0,0,0.2,1.48,0.2)"
         inkscape:connector-curvature="0" />
    </marker>
    <marker
       style="overflow:visible"
       id="Arrow1Send6"
       refX="0"
       refY="0"
       orient="auto"
       inkscape:stockid="Arrow1Send6">
      <path
         inkscape:connector-curvature="0"
         transform="matrix(-0.2,0,0,-0.2,-1.2,0)"
         style="fill:#399d2d;fill-rule:evenodd;stroke:#399d2d;stroke-width:1pt"
         d="M 0,0 5,-5 -12.5,0 5,5 0,0 z"
         id="path8472" />
    </marker>
  </defs>
  <metadata
     id="metadata7">
    <rdf:RDF>
      <cc:Work
         rdf:about="">
        <dc:format>image/svg+xml</dc:format>
        <dc:type
           rdf:resource="http://purl.org/dc/dcmitype/StillImage" />
        <dc:title></dc:title>
      </cc:Work>
    </rdf:RDF>
  </metadata>
  <g
     transform="translate(-157.15505,-510.57741)"
     id="layer1"
     inkscape:groupmode="layer"
     inkscape:label="Layer 1">
    <text
       sodipodi:linespacing="125%"
       id="text3021"
       y="591.98859"
       x="210.6917"
       style="font-size:11px;font-style:normal;font-weight:normal;text-align:center;line-height:125%;letter-spacing:0px;word-spacing:0px;text-anchor:middle;fill:#000000;fill-opacity:1;stroke:none;font-family:Sans"
       xml:space="preserve"><tspan
         y="591.98859"
         x="210.6917"
         sodipodi:role="line"
         id="tspan3025">1776</tspan></text>
    <text
       xml:space="preserve"
       style="font-size:11px;font-style:normal;font-weight:normal;text-align:center;line-height:125%;letter-spacing:0px;word-spacing:0px;text-anchor:middle;fill:#000000;fill-opacity:1;stroke:none;font-family:Sans"
       x="299.73773"
       y="591.98859"
       id="text3030"
       sodipodi:linespacing="125%"><tspan
         id="tspan3032"
         sodipodi:role="line"
         x="299.73773"
         y="591.98859">1820-1840</tspan></text>
    <text
       xml:space="preserve"
       style="font-size:11px;font-style:normal;font-weight:normal;text-align:center;line-height:125%;letter-spacing:0px;word-spacing:0px;text-anchor:middle;fill:#000000;fill-opacity:1;stroke:none;font-family:Sans"
       x="510.41284"
       y="591.98859"
       id="text3038"
       sodipodi:linespacing="125%"><tspan
         id="tspan3040"
         sodipodi:role="line"
         x="510.41284"
         y="591.98859">1960</tspan></text>
    <text
       sodipodi:linespacing="125%"
       id="text3054"
       y="598.96698"
       x="611.52448"
       style="font-size:11px;font-style:normal;font-weight:normal;text-align:center;line-height:125%;letter-spacing:0px;word-spacing:0px;text-anchor:middle;fill:#000000;fill-opacity:1;stroke:none;font-family:Sans"
       xml:space="preserve"><tspan
         y="598.96698"
         x="611.52448"
         sodipodi:role="line"
         id="tspan3056">2004 - LDS</tspan></text>
    <path
       style="fill:none;stroke:#399d2d;stroke-width:4;stroke-linecap:butt;stroke-linejoin:miter;stroke-miterlimit:4;stroke-opacity:1;stroke-dasharray:none;marker-start:url(#Arrow1Sstart5);marker-mid:url(#DotSRb);marker-end:url(#DotS1I)"
       d="m 26.983144,25.726635 37.744197,0 76.553689,0 24.58567,0 198.76301,0 37.39792,0"
       id="path3058"
       inkscape:connector-curvature="0"
       transform="translate(146.50183,547.77948)"
       sodipodi:nodetypes="cccccc" />
    <path
       style="fill:none;stroke:#399d2d;stroke-width:4;stroke-linecap:butt;stroke-linejoin:miter;stroke-miterlimit:4;stroke-opacity:1;stroke-dasharray:none;marker-start:none;marker-mid:url(#DotS2R);marker-end:url(#Arrow1Send6)"
       d="m 364.62971,25.726635 64.40753,34.281427 11.42714,0 33.58887,0"
       id="path4902"
       inkscape:connector-curvature="0"
       transform="translate(146.50183,547.77948)"
       sodipodi:nodetypes="cccc" />
    <path
       style="fill:none;stroke:#399d2d;stroke-width:4;stroke-linecap:butt;stroke-linejoin:miter;stroke-miterlimit:4;stroke-opacity:1;stroke-dasharray:none;marker-start:url(#DotS0);marker-end:none"
       d="m 547.70264,536.10642 -36.85066,37.58521"
       id="path5488"
       inkscape:connector-curvature="0" />
    <text
       sodipodi:linespacing="125%"
       id="text3042"
       y="559.42291"
       x="548.09882"
       style="font-size:11px;font-style:normal;font-weight:normal;text-align:center;line-height:125%;letter-spacing:0px;word-spacing:0px;text-anchor:middle;fill:#000000;fill-opacity:1;stroke:none;font-family:Sans"
       xml:space="preserve"><tspan
         y="559.42291"
         x="548.09882"
         sodipodi:role="line"
         id="tspan3044">1980</tspan></text>
    <text
       xml:space="preserve"
       style="font-size:11px;font-style:normal;font-weight:normal;text-align:center;line-height:125%;letter-spacing:0px;word-spacing:0px;text-anchor:middle;fill:#000000;fill-opacity:1;stroke:none;font-family:Sans"
       x="574.01361"
       y="624.18701"
       id="text7250"
       sodipodi:linespacing="125%"><tspan
         id="tspan7252"
         sodipodi:role="line"
         x="575.76459"
         y="624.18701"
         style="text-align:center;text-anchor:middle">2000 </tspan><tspan
         sodipodi:role="line"
         x="574.01361"
         y="637.93701"
         style="text-align:center;text-anchor:middle"
         id="tspan7682">Teoría de la intersección</tspan></text>
    <text
       xml:space="preserve"
       style="font-size:11px;font-style:normal;font-weight:normal;text-align:center;line-height:125%;letter-spacing:0px;word-spacing:0px;text-anchor:middle;fill:#000000;fill-opacity:1;stroke:none;font-family:Sans"
       x="210.6917"
       y="563.0957"
       id="text7666"
       sodipodi:linespacing="125%"><tspan
         id="tspan7668"
         sodipodi:role="line"
         x="210.6917"
         y="563.0957">LDP</tspan></text>
    <text
       sodipodi:linespacing="125%"
       id="text7670"
       y="563.0957"
       x="302.2674"
       style="font-size:11px;font-style:normal;font-weight:normal;text-align:center;line-height:125%;letter-spacing:0px;word-spacing:0px;text-anchor:middle;fill:#000000;fill-opacity:1;stroke:none;font-family:Sans"
       xml:space="preserve"><tspan
         y="563.0957"
         x="302.2674"
         sodipodi:role="line"
         id="tspan7672">Revolución industrial</tspan></text>
    <text
       xml:space="preserve"
       style="font-size:11px;font-style:normal;font-weight:normal;text-align:center;line-height:125%;letter-spacing:0px;word-spacing:0px;text-anchor:middle;fill:#000000;fill-opacity:1;stroke:none;font-family:Sans"
       x="562.69159"
       y="576.80756"
       id="text7674"
       sodipodi:linespacing="125%"><tspan
         id="tspan7676"
         sodipodi:role="line"
         x="562.69159"
         y="576.80756"
         style="text-align:start;text-anchor:start">Marketing de servicios</tspan></text>
    <text
       sodipodi:linespacing="125%"
       id="text7678"
       y="536.65137"
       x="562.69159"
       style="font-size:11px;font-style:normal;font-weight:normal;text-align:center;line-height:125%;letter-spacing:0px;word-spacing:0px;text-anchor:middle;fill:#000000;fill-opacity:1;stroke:none;font-family:Sans"
       xml:space="preserve"><tspan
         style="text-align:start;text-anchor:start"
         y="536.65137"
         x="562.69159"
         sodipodi:role="line"
         id="tspan7680">Marketing de negocios</tspan></text>
  </g>
</svg>
