<?xml version="1.0" encoding="UTF-8" standalone="no"?>
<svg
   xmlns:dc="http://purl.org/dc/elements/1.1/"
   xmlns:cc="http://creativecommons.org/ns#"
   xmlns:rdf="http://www.w3.org/1999/02/22-rdf-syntax-ns#"
   xmlns:svg="http://www.w3.org/2000/svg"
   xmlns="http://www.w3.org/2000/svg"
   xmlns:sodipodi="http://sodipodi.sourceforge.net/DTD/sodipodi-0.dtd"
   xmlns:inkscape="http://www.inkscape.org/namespaces/inkscape"
   width="160mm"
   height="104mm"
   viewBox="0 0 16000 10400"
   version="1.1"
   stroke-width="28.222"
   stroke-linejoin="round"
   xml:space="preserve"
   id="svg2"
   inkscape:version="0.91 r13725"
   sodipodi:docname="nacionalidades.svg"><metadata
     id="metadata150"><rdf:RDF><cc:Work
         rdf:about=""><dc:format>image/svg+xml</dc:format><dc:type
           rdf:resource="http://purl.org/dc/dcmitype/StillImage" /><dc:title></dc:title></cc:Work></rdf:RDF></metadata><defs
     id="defs148" /><sodipodi:namedview
     pagecolor="#ffffff"
     bordercolor="#666666"
     borderopacity="1"
     objecttolerance="10"
     gridtolerance="10"
     guidetolerance="10"
     inkscape:pageopacity="0"
     inkscape:pageshadow="2"
     inkscape:window-width="960"
     inkscape:window-height="1019"
     id="namedview146"
     showgrid="false"
     inkscape:zoom="0.70710678"
     inkscape:cx="241.60055"
     inkscape:cy="168.97602"
     inkscape:window-x="0"
     inkscape:window-y="27"
     inkscape:window-maximized="0"
     inkscape:current-layer="svg2" /><path
     d="M 6328,207 C 5806,207 5287,289 4791,450 4294,611 3826,850 3404,1157 2982,1463 2610,1835 2304,2257 1997,2679 1758,3147 1597,3644 1436,4140 1354,4659 1354,5181 L 6328,5181 6328,5181 6328,5181 6328,5181 6328,5181 6328,5181 6328,207 Z"
     id="path6"
     style="fill:#276907;fill-opacity:1;stroke:#ffffff;stroke-opacity:1;stroke-width:56.44444169;stroke-miterlimit:4;stroke-dasharray:none"
     stroke="none"
     fill="rgb(0,69,134)" /><path
     fill="rgb(255,66,14)"
     stroke="none"
     d="M 1354,5181 C 1354,5704 1436,6223 1597,6719 1758,7216 1997,7684 2304,8106 2610,8528 2982,8900 3404,9206 3657,9390 3927,9550 4210,9683 L 6328,5181 6328,5181 6328,5181 6328,5181 6328,5181 1354,5181 Z"
     id="path8"
     style="fill:#5ea83b;fill-opacity:1;stroke:#ffffff;stroke-opacity:1;stroke-width:56.44444169;stroke-miterlimit:4;stroke-dasharray:none" /><path
     fill="rgb(255,211,32)"
     stroke="none"
     d="M 4210,9683 C 4399,9772 4593,9849 4791,9913 5287,10074 5806,10157 6328,10157 6850,10157 7369,10074 7865,9913 8261,9784 8640,9606 8992,9382 L 6328,5181 6328,5181 6328,5181 6328,5181 6328,5181 4210,9683 Z"
     id="path10"
     style="fill:#b0e397;fill-opacity:1;stroke:#ffffff;stroke-opacity:1;stroke-width:56.44444169;stroke-miterlimit:4;stroke-dasharray:none" /><path
     fill="rgb(87,157,28)"
     stroke="none"
     d="M 8992,9382 C 9080,9326 9167,9268 9251,9206 9673,8900 10045,8528 10351,8106 10597,7768 10799,7401 10952,7013 L 6328,5181 6328,5181 6328,5181 6328,5181 8992,9382 Z"
     id="path12"
     style="fill:#d96b81;fill-opacity:1;stroke:#ffffff;stroke-opacity:1;stroke-width:56.44444169;stroke-miterlimit:4;stroke-dasharray:none" /><path
     fill="rgb(126,0,33)"
     stroke="none"
     d="M 10952,7013 C 10991,6916 11026,6818 11058,6719 11219,6223 11302,5704 11302,5181 11302,4764 11249,4348 11145,3944 L 6328,5181 6328,5181 6328,5181 6328,5181 10952,7013 Z"
     id="path14"
     style="fill:#f1a0b0;fill-opacity:1;stroke:#ffffff;stroke-opacity:1;stroke-width:56.44444169;stroke-miterlimit:4;stroke-dasharray:none" /><path
     fill="rgb(131,202,255)"
     stroke="none"
     d="M 11145,3944 C 11067,3641 10961,3346 10828,3063 L 6328,5181 6328,5181 11145,3944 Z"
     id="path16"
     style="fill:#468a8d;fill-opacity:1;stroke:#ffffff;stroke-opacity:1;stroke-width:56.44444169;stroke-miterlimit:4;stroke-dasharray:none" /><path
     fill="rgb(49,64,4)"
     stroke="none"
     d="M 10828,3063 C 10650,2685 10426,2332 10160,2010 L 6328,5181 6328,5181 10828,3063 Z"
     id="path18"
     style="fill:#74abae;fill-opacity:1;stroke:#ffffff;stroke-opacity:1;stroke-width:56.44444169;stroke-miterlimit:4;stroke-dasharray:none" /><path
     fill="rgb(174,207,0)"
     stroke="none"
     d="M 10160,2010 C 9961,1769 9739,1547 9498,1348 L 6328,5181 6328,5181 10160,2010 Z"
     id="path20"
     style="fill:#a35f25;fill-opacity:1;stroke:#ffffff;stroke-opacity:1;stroke-width:56.44444169;stroke-miterlimit:4;stroke-dasharray:none" /><path
     d="M 9498,1348 C 9418,1282 9335,1218 9251,1157 8829,850 8361,611 7865,450 L 6328,5181 6328,5181 6328,5181 9498,1348 Z"
     id="path22"
     style="fill:#c27e44;fill-opacity:1;stroke:#ffffff;stroke-opacity:1;stroke-width:56.44444169;stroke-miterlimit:4;stroke-dasharray:none"
     stroke="none"
     fill="rgb(75,31,111)" /><path
     d="M 7865,450 C 7369,289 6850,207 6328,207 L 6328,5181 6328,5181 7865,450 Z"
     id="path24"
     style="fill:#e9aa73;fill-opacity:1;stroke:#ffffff;stroke-opacity:1;stroke-width:56.44444169;stroke-miterlimit:4;stroke-dasharray:none"
     stroke="none"
     fill="rgb(255,149,14)" /><path
     d="m 12148.447,2700.3996 -122.916,0 0,-244.6739 244.673,0 0,244.6739 -121.757,0 z"
     id="path26"
     style="fill:#276907;fill-opacity:1;stroke:none"
     inkscape:connector-curvature="0" /><path
     d="m 12148.447,3277.8763 -122.916,0 0,-244.6738 244.673,0 0,244.6738 -121.757,0 z"
     id="path28"
     style="fill:#5ea83b;fill-opacity:1;stroke:none"
     inkscape:connector-curvature="0" /><path
     d="m 12148.447,3855.3531 -122.916,0 0,-244.6739 244.673,0 0,244.6739 -121.757,0 z"
     id="path30"
     style="fill:#b0e397;fill-opacity:1;stroke:none"
     inkscape:connector-curvature="0" /><path
     d="m 12148.447,4432.8299 -122.916,0 0,-244.6739 244.673,0 0,244.6739 -121.757,0 z"
     id="path32"
     style="fill:#d96b81;fill-opacity:1;stroke:none"
     inkscape:connector-curvature="0" /><path
     d="m 12148.447,5010.3066 -122.916,0 0,-244.6739 244.673,0 0,244.6739 -121.757,0 z"
     id="path34"
     style="fill:#f1a0b0;fill-opacity:1;stroke:none"
     inkscape:connector-curvature="0" /><path
     d="m 12148.447,5588.9429 -122.916,0 0,-244.6738 244.673,0 0,244.6738 -121.757,0 z"
     id="path36"
     style="fill:#468a8d;fill-opacity:1;stroke:none"
     inkscape:connector-curvature="0" /><path
     d="m 12148.447,6166.4197 -122.916,0 0,-244.6739 244.673,0 0,244.6739 -121.757,0 z"
     id="path38"
     style="fill:#74abae;fill-opacity:1;stroke:none"
     inkscape:connector-curvature="0" /><path
     d="m 12148.447,6743.8964 -122.916,0 0,-244.6738 244.673,0 0,244.6738 -121.757,0 z"
     id="path40"
     style="fill:#a35f25;fill-opacity:1;stroke:none"
     inkscape:connector-curvature="0" /><path
     d="m 12148.447,7321.3732 -122.916,0 0,-244.6739 244.673,0 0,244.6739 -121.757,0 z"
     id="path42"
     style="fill:#c27e44;fill-opacity:1;stroke:none"
     inkscape:connector-curvature="0" /><path
     d="m 12148.447,7898.85 -122.916,0 0,-244.6739 244.673,0 0,244.6739 -121.757,0 z"
     id="path44"
     style="fill:#e9aa73;fill-opacity:1;stroke:none"
     inkscape:connector-curvature="0" /><text
     class="TextShape"
     id="text46"
     x="-2785.9395"
     y="-831.71722"
     style="font-size:13.91510201px"><tspan
       class="TextParagraph"
       font-size="353px"
       font-weight="400"
       id="tspan48"
       style="font-weight:400;font-size:409.3359375px;font-family:'Liberation Sans', sans-serif"><tspan
         class="TextPosition"
         x="12386.161"
         y="2716.6338"
         id="tspan50" /><tspan
         class="TextPosition"
         x="12386.161"
         y="2716.6338"
         id="tspan52"><tspan
           id="tspan54"
           style="fill:#000000;stroke:none">España</tspan></tspan></tspan></text>
<text
     class="TextShape"
     id="text56"
     x="-2785.9395"
     y="-831.71722"
     style="font-size:13.91510201px"><tspan
       class="TextParagraph"
       font-size="353px"
       font-weight="400"
       id="tspan58"
       style="font-weight:400;font-size:409.3359375px;font-family:'Liberation Sans', sans-serif"><tspan
         class="TextPosition"
         x="12386.161"
         y="3294.1106"
         id="tspan60" /><tspan
         class="TextPosition"
         x="12386.161"
         y="3294.1106"
         id="tspan62"><tspan
           id="tspan64"
           style="fill:#000000;stroke:none">Italia</tspan></tspan></tspan></text>
<text
     class="TextShape"
     id="text66"
     x="-2785.9395"
     y="-831.71722"
     style="font-size:13.91510201px"><tspan
       class="TextParagraph"
       font-size="353px"
       font-weight="400"
       id="tspan68"
       style="font-weight:400;font-size:409.3359375px;font-family:'Liberation Sans', sans-serif"><tspan
         class="TextPosition"
         x="12386.161"
         y="3871.5874"
         id="tspan70" /><tspan
         class="TextPosition"
         x="12386.161"
         y="3871.5874"
         id="tspan72"><tspan
           id="tspan74"
           style="fill:#000000;stroke:none">Austria</tspan></tspan></tspan></text>
<text
     class="TextShape"
     id="text76"
     x="-2785.9395"
     y="-831.71722"
     style="font-size:13.91510201px"><tspan
       class="TextParagraph"
       font-size="353px"
       font-weight="400"
       id="tspan78"
       style="font-weight:400;font-size:409.3359375px;font-family:'Liberation Sans', sans-serif"><tspan
         class="TextPosition"
         x="12386.161"
         y="4449.064"
         id="tspan80" /><tspan
         class="TextPosition"
         x="12386.161"
         y="4449.064"
         id="tspan82"><tspan
           id="tspan84"
           style="fill:#000000;stroke:none">EE.UU</tspan></tspan></tspan></text>
<text
     class="TextShape"
     id="text86"
     x="-2785.9395"
     y="-831.71722"
     style="font-size:13.91510201px"><tspan
       class="TextParagraph"
       font-size="353px"
       font-weight="400"
       id="tspan88"
       style="font-weight:400;font-size:409.3359375px;font-family:'Liberation Sans', sans-serif"><tspan
         class="TextPosition"
         x="12386.161"
         y="5026.541"
         id="tspan90" /><tspan
         class="TextPosition"
         x="12386.161"
         y="5026.541"
         id="tspan92"><tspan
           id="tspan94"
           style="fill:#000000;stroke:none">Alemania</tspan></tspan></tspan></text>
<text
     class="TextShape"
     id="text96"
     x="-2785.9395"
     y="-831.71722"
     style="font-size:13.91510201px"><tspan
       class="TextParagraph"
       font-size="353px"
       font-weight="400"
       id="tspan98"
       style="font-weight:400;font-size:409.3359375px;font-family:'Liberation Sans', sans-serif"><tspan
         class="TextPosition"
         x="12386.161"
         y="5605.1772"
         id="tspan100" /><tspan
         class="TextPosition"
         x="12386.161"
         y="5605.1772"
         id="tspan102"><tspan
           id="tspan104"
           style="fill:#000000;stroke:none">China</tspan></tspan></tspan></text>
<text
     class="TextShape"
     id="text106"
     x="-2785.9395"
     y="-831.71722"
     style="font-size:13.91510201px"><tspan
       class="TextParagraph"
       font-size="353px"
       font-weight="400"
       id="tspan108"
       style="font-weight:400;font-size:409.3359375px;font-family:'Liberation Sans', sans-serif"><tspan
         class="TextPosition"
         x="12386.161"
         y="6182.6538"
         id="tspan110" /><tspan
         class="TextPosition"
         x="12386.161"
         y="6182.6538"
         id="tspan112"><tspan
           id="tspan114"
           style="fill:#000000;stroke:none">República Checa</tspan></tspan></tspan></text>
<text
     class="TextShape"
     id="text116"
     x="-2785.9395"
     y="-831.71722"
     style="font-size:13.91510201px"><tspan
       class="TextParagraph"
       font-size="353px"
       font-weight="400"
       id="tspan118"
       style="font-weight:400;font-size:409.3359375px;font-family:'Liberation Sans', sans-serif"><tspan
         class="TextPosition"
         x="12386.161"
         y="6760.1309"
         id="tspan120" /><tspan
         class="TextPosition"
         x="12386.161"
         y="6760.1309"
         id="tspan122"><tspan
           id="tspan124"
           style="fill:#000000;stroke:none">Rusia</tspan></tspan></tspan></text>
<text
     class="TextShape"
     id="text126"
     x="-2785.9395"
     y="-831.71722"
     style="font-size:13.91510201px"><tspan
       class="TextParagraph"
       font-size="353px"
       font-weight="400"
       id="tspan128"
       style="font-weight:400;font-size:409.3359375px;font-family:'Liberation Sans', sans-serif"><tspan
         class="TextPosition"
         x="12386.161"
         y="7337.6074"
         id="tspan130" /><tspan
         class="TextPosition"
         x="12386.161"
         y="7337.6074"
         id="tspan132"><tspan
           id="tspan134"
           style="fill:#000000;stroke:none">Canadá</tspan></tspan></tspan></text>
<text
     class="TextShape"
     id="text136"
     x="-2785.9395"
     y="-831.71722"
     style="font-size:13.91510201px"><tspan
       class="TextParagraph"
       font-size="353px"
       font-weight="400"
       id="tspan138"
       style="font-weight:400;font-size:409.3359375px;font-family:'Liberation Sans', sans-serif"><tspan
         class="TextPosition"
         x="12386.161"
         y="7915.0845"
         id="tspan140" /><tspan
         class="TextPosition"
         x="12386.161"
         y="7915.0845"
         id="tspan142"><tspan
           id="tspan144"
           style="fill:#000000;stroke:none">Japón</tspan></tspan></tspan></text>
</svg>