<?xml version="1.0" encoding="UTF-8" standalone="no"?>
<!-- Created with Inkscape (http://www.inkscape.org/) -->

<svg
   xmlns:dc="http://purl.org/dc/elements/1.1/"
   xmlns:cc="http://creativecommons.org/ns#"
   xmlns:rdf="http://www.w3.org/1999/02/22-rdf-syntax-ns#"
   xmlns:svg="http://www.w3.org/2000/svg"
   xmlns="http://www.w3.org/2000/svg"
   xmlns:sodipodi="http://sodipodi.sourceforge.net/DTD/sodipodi-0.dtd"
   xmlns:inkscape="http://www.inkscape.org/namespaces/inkscape"
   width="616.88629"
   height="257.1864"
   id="svg2"
   version="1.1"
   inkscape:version="0.91 r13725"
   sodipodi:docname="oneMany.svg">
  <sodipodi:namedview
     id="base"
     pagecolor="#ffffff"
     bordercolor="#666666"
     borderopacity="1.0"
     inkscape:pageopacity="0.0"
     inkscape:pageshadow="2"
     inkscape:zoom="2.0000001"
     inkscape:cx="308.51089"
     inkscape:cy="112.39318"
     inkscape:document-units="px"
     inkscape:current-layer="layer1"
     showgrid="false"
     inkscape:window-width="1920"
     inkscape:window-height="1020"
     inkscape:window-x="0"
     inkscape:window-y="27"
     inkscape:window-maximized="1"
     fit-margin-top="5"
     fit-margin-left="3"
     fit-margin-right="3"
     fit-margin-bottom="3"
     units="mm" />
  <defs
     id="defs4">
    <marker
       style="overflow:visible"
       id="Arrow1Sstart"
       refX="0"
       refY="0"
       orient="auto"
       inkscape:stockid="Arrow1Sstart">
      <path
         inkscape:connector-curvature="0"
         transform="matrix(0.2,0,0,0.2,1.2,0)"
         style="fill-rule:evenodd;stroke:#000000;stroke-width:1pt"
         d="M 0,0 5,-5 -12.5,0 5,5 0,0 z"
         id="path3835" />
    </marker>
    <marker
       style="overflow:visible"
       id="Arrow1Send"
       refX="0"
       refY="0"
       orient="auto"
       inkscape:stockid="Arrow1Send">
      <path
         inkscape:connector-curvature="0"
         transform="matrix(-0.2,0,0,-0.2,-1.2,0)"
         style="fill-rule:evenodd;stroke:#000000;stroke-width:1pt"
         d="M 0,0 5,-5 -12.5,0 5,5 0,0 z"
         id="path3838" />
    </marker>
    <marker
       style="overflow:visible"
       id="Arrow1Lstart"
       refX="0"
       refY="0"
       orient="auto"
       inkscape:stockid="Arrow1Lstart">
      <path
         inkscape:connector-curvature="0"
         transform="matrix(0.8,0,0,0.8,10,0)"
         style="fill-rule:evenodd;stroke:#000000;stroke-width:1pt;marker-start:none"
         d="M 0,0 5,-5 -12.5,0 5,5 0,0 z"
         id="path4075" />
    </marker>
    <marker
       style="overflow:visible"
       id="Arrow1Lend"
       refX="0"
       refY="0"
       orient="auto"
       inkscape:stockid="Arrow1Lend">
      <path
         inkscape:connector-curvature="0"
         transform="matrix(-0.8,0,0,-0.8,-10,0)"
         style="fill-rule:evenodd;stroke:#000000;stroke-width:1pt;marker-start:none"
         d="M 0,0 5,-5 -12.5,0 5,5 0,0 z"
         id="path4078" />
    </marker>
    <marker
       style="overflow:visible"
       id="Arrow1Sstartg"
       refX="0"
       refY="0"
       orient="auto"
       inkscape:stockid="Arrow1Sstartg">
      <path
         inkscape:connector-curvature="0"
         transform="matrix(0.2,0,0,0.2,1.2,0)"
         style="fill:#399d2d;fill-rule:evenodd;stroke:#399d2d;stroke-width:1pt"
         d="M 0,0 5,-5 -12.5,0 5,5 0,0 z"
         id="path3820" />
    </marker>
    <marker
       style="overflow:visible"
       id="Arrow1Sendt"
       refX="0"
       refY="0"
       orient="auto"
       inkscape:stockid="Arrow1Sendt">
      <path
         inkscape:connector-curvature="0"
         transform="matrix(-0.2,0,0,-0.2,-1.2,0)"
         style="fill:#399d2d;fill-rule:evenodd;stroke:#399d2d;stroke-width:1pt"
         d="M 0,0 5,-5 -12.5,0 5,5 0,0 z"
         id="path3823" />
    </marker>
  </defs>
  <metadata
     id="metadata7">
    <rdf:RDF>
      <cc:Work
         rdf:about="">
        <dc:format>image/svg+xml</dc:format>
        <dc:type
           rdf:resource="http://purl.org/dc/dcmitype/StillImage" />
        <dc:title></dc:title>
      </cc:Work>
    </rdf:RDF>
  </metadata>
  <g
     transform="translate(-74.926559,-762.20856)"
     id="layer1"
     inkscape:groupmode="layer"
     inkscape:label="Layer 1">
    <path
       style="fill:none;stroke:#000000;stroke-width:3.16393685;stroke-linecap:butt;stroke-linejoin:miter;stroke-miterlimit:4;stroke-opacity:1;stroke-dasharray:none;marker-start:url(#Arrow1Sstart);marker-end:url(#Arrow1Send)"
       d="m 369.49826,889.05486 32.59067,9.25706"
       id="path3843"
       inkscape:connector-curvature="0" />
    <text
       xml:space="preserve"
       style="font-size:11px;font-style:normal;font-weight:normal;text-align:center;line-height:125%;letter-spacing:0px;word-spacing:0px;text-anchor:middle;fill:#000000;fill-opacity:1;stroke:none;font-family:Sans"
       x="322.26303"
       y="984.1369"
       id="text4229"
       sodipodi:linespacing="125%"><tspan
         id="tspan4231"
         sodipodi:role="line"
         x="322.26303"
         y="984.1369"
         style="font-weight:bold;-inkscape-font-specification:Sans Bold">Redes de</tspan><tspan
         sodipodi:role="line"
         x="322.26303"
         y="997.8869"
         style="font-weight:bold;-inkscape-font-specification:Sans Bold"
         id="tspan3454">clientes</tspan></text>
    <text
       sodipodi:linespacing="125%"
       id="text4233"
       y="988.6369"
       x="420.51089"
       style="font-size:11px;font-style:normal;font-weight:normal;text-align:center;line-height:125%;letter-spacing:0px;word-spacing:0px;text-anchor:middle;fill:#000000;fill-opacity:1;stroke:none;font-family:Sans"
       xml:space="preserve"><tspan
         style="font-weight:bold;-inkscape-font-specification:Sans Bold"
         y="988.6369"
         x="420.51089"
         sodipodi:role="line"
         id="tspan4235">Empresa</tspan></text>
    <text
       xml:space="preserve"
       style="font-size:11px;font-style:normal;font-weight:normal;text-align:center;line-height:125%;letter-spacing:0px;word-spacing:0px;text-anchor:middle;fill:#000000;fill-opacity:1;stroke:none;font-family:Sans"
       x="310.392"
       y="825.1369"
       id="text4243"
       sodipodi:linespacing="125%"><tspan
         id="tspan4245"
         sodipodi:role="line"
         x="310.392"
         y="825.1369"
         style="font-weight:bold;text-align:start;text-anchor:start;-inkscape-font-specification:Sans Bold">Relación empresa y</tspan><tspan
         sodipodi:role="line"
         x="310.392"
         y="838.8869"
         style="font-weight:bold;text-align:start;text-anchor:start;-inkscape-font-specification:Sans Bold"
         id="tspan3097">redes de clientes</tspan></text>
    <text
       sodipodi:linespacing="125%"
       id="text4247"
       y="825.1369"
       x="490.27377"
       style="font-size:11px;font-style:normal;font-weight:normal;text-align:center;line-height:125%;letter-spacing:0px;word-spacing:0px;text-anchor:middle;fill:#000000;fill-opacity:1;stroke:none;font-family:Sans"
       xml:space="preserve"><tspan
         style="font-weight:bold;text-align:start;text-anchor:start;-inkscape-font-specification:Sans Bold"
         y="825.1369"
         x="490.27377"
         sodipodi:role="line"
         id="tspan4249">Relación redes de clientes</tspan><tspan
         style="font-weight:bold;text-align:start;text-anchor:start;-inkscape-font-specification:Sans Bold"
         y="838.8869"
         x="490.27377"
         sodipodi:role="line"
         id="tspan4251">y redes de empresas</tspan></text>
    <path
       style="fill:#828282;fill-opacity:1;stroke:none"
       d="m 400.22244,427.57476 0,33.41079 14.14213,0 9.19239,-10.96015 0,-21.56676 -6.01041,0 0,1.5026 -1.85615,0 0,-2.47487 z"
       id="path4283"
       inkscape:connector-curvature="0"
       transform="translate(146.50183,547.77948)" />
    <path
       style="fill:none;stroke:#828282;stroke-width:1px;stroke-linecap:butt;stroke-linejoin:miter;stroke-opacity:1"
       d="m 383.5,419.8017 -38.25,-27.5 23.25,3 39.75,-22.75 -30.5,-19.25 -32.5,-0.75 25.75,37 9,-37.75 30.25,-2.25 20,-8.5"
       id="path4285"
       inkscape:connector-curvature="0"
       transform="translate(146.50183,547.77948)" />
    <path
       style="fill:none;stroke:#828282;stroke-width:1px;stroke-linecap:butt;stroke-linejoin:miter;stroke-opacity:1"
       d="m 378.5,351.8017 -46.25,29.5"
       id="path4287"
       inkscape:connector-curvature="0"
       transform="translate(146.50183,547.77948)" />
    <path
       style="fill:none;stroke:#828282;stroke-width:1px;stroke-linecap:butt;stroke-linejoin:miter;stroke-opacity:1"
       d="m 345.25,352.5517 -11,14.75"
       id="path4289"
       inkscape:connector-curvature="0"
       transform="translate(146.50183,547.77948)" />
    <path
       style="fill:none;stroke:#828282;stroke-width:1px;stroke-linecap:butt;stroke-linejoin:miter;stroke-opacity:1"
       d="m 392,420.3017 -22.25,-27.5"
       id="path4291"
       inkscape:connector-curvature="0"
       transform="translate(146.50183,547.77948)" />
    <path
       style="fill:none;stroke:#828282;stroke-width:1px;stroke-linecap:butt;stroke-linejoin:miter;stroke-opacity:1"
       d="m 423.25,360.8017 -14.25,9.25 11.5,15"
       id="path4293"
       inkscape:connector-curvature="0"
       transform="translate(146.50183,547.77948)" />
    <path
       style="fill:#79aef1;fill-opacity:1;stroke:none"
       d="m 495.76844,911.66063 -0.17763,-7.50516 c 0,0 0,-4.35211 -0.31087,-5.77321 -0.31086,-1.42109 -0.31086,-2.26487 -0.31086,-2.26487 l 1.0214,-0.66613 -0.0888,-3.24189 c 0,0 0.0805,-0.31295 0.41023,-0.12453 0.32971,0.18841 1.42877,0.91066 1.42877,0.91066 l -1.784,1.23602 0.0327,1.18903 c 0,0 3.79804,-2.16755 3.95346,-2.27858 0.15544,-0.11102 0.41987,-0.49189 0.1608,-0.67245 -0.25906,-0.18056 -5.00133,-3.85729 -5.62305,-4.16815 -0.62172,-0.31087 -1.03249,-0.49961 -1.33226,-0.53292 -0.29975,-0.0333 -0.5551,-0.14433 -0.47739,-0.32197 0.0777,-0.17764 0.47739,-1.98731 0.47739,-2.24266 0,-0.25536 0.29977,-0.96591 -0.26644,-1.34339 -0.56622,-0.37748 -1.74304,-0.4774 -2.24264,-0.51071 -0.49959,-0.0333 -1.25454,0.47741 -1.5876,0.77717 -0.33307,0.29976 -0.86598,0.82157 -0.82156,1.13243 0.0444,0.31087 1.06581,1.29897 1.46549,1.59874 0.39967,0.29976 1.1324,1.06583 1.25453,1.22126 0.12213,0.15543 0.13322,0.19984 -0.24425,0.36637 -0.37747,0.16654 -1.04359,0.15543 -1.43217,0.81046 -0.38857,0.65505 -0.94369,3.07535 -0.98809,3.65267 -0.0444,0.57732 -0.16952,1.04445 -0.0753,1.17005 0.0942,0.12561 0.67484,0.5508 0.83027,0.70624 0.15543,0.15543 0.15543,0.64394 0.15543,0.82158 0,0.17763 0.0888,7.2609 0.13322,7.46075 0.0444,0.19984 0.53291,0.39968 0.77715,0.66614 0.24424,0.26645 0.5329,0.37748 0.66613,0.91038 0.13322,0.53293 0.37748,5.50675 0.35527,5.7288 -0.0222,0.22205 -3.15301,1.77637 -3.15301,1.77637 0,0 -0.0721,0.0277 -0.10548,0.0666 -0.0333,0.0389 -0.0666,0.12768 0.18319,0.12213 0.2498,-0.006 3.70257,-0.33862 3.85245,-0.39968 0.14988,-0.061 0.42743,-0.0333 0.43853,-1.23236 0.0111,-1.19905 0.26308,-5.44781 0.26308,-5.62837 0,-0.18057 0.12561,-0.54954 0.28261,-0.43178 0.15701,0.11775 1.65809,3.77307 1.83572,4.15056 0.17764,0.37748 0.15544,0.64392 0.22205,1.17684 0.0666,0.53291 0.0666,3.03093 0.11102,3.21967 0.0444,0.18874 0.18873,0.83267 0.46629,1.27677 0.27755,0.44409 0.59951,0.93259 0.87707,0.9659 0.27755,0.0333 0.59951,-0.34417 0.5551,-0.63284 -0.0444,-0.28866 -0.93258,-1.4544 -1.0658,-1.76527 -0.13322,-0.31086 -0.12213,-1.37668 -0.12213,-1.37668 z"
       id="path4255"
       inkscape:connector-curvature="0"
       sodipodi:nodetypes="ccscccscccssscssscssssssscssssssccscssssssscssc" />
    <path
       style="fill:#79aef1;fill-opacity:1;stroke:none"
       d="m 522.52311,911.66081 0.17763,-7.50514 c 0,0 0,-4.3521 0.31087,-5.77319 0.31086,-1.42109 0.31086,-2.26487 0.31086,-2.26487 l -1.02141,-0.66613 0.0888,-3.24187 c 0,0 -0.0805,-0.31295 -0.41023,-0.12454 -0.32972,0.18841 -1.42879,0.91066 -1.42879,0.91066 l 1.78401,1.23602 -0.0327,1.18902 c 0,0 -3.79809,-2.16755 -3.95352,-2.27857 -0.15543,-0.11102 -0.41986,-0.49189 -0.1608,-0.67245 0.25907,-0.18056 5.00139,-3.85729 5.62312,-4.16814 0.62174,-0.31087 1.03251,-0.49961 1.33228,-0.53292 0.29976,-0.0333 0.55511,-0.14433 0.4774,-0.32196 -0.0777,-0.17764 -0.4774,-1.98731 -0.4774,-2.24267 0,-0.25535 -0.29977,-0.9659 0.26645,-1.34337 0.56622,-0.37748 1.74306,-0.4774 2.24267,-0.51071 0.4996,-0.0333 1.25456,0.47741 1.58763,0.77716 0.33306,0.29976 0.86597,0.82157 0.82156,1.13243 -0.0444,0.31087 -1.06582,1.29897 -1.4655,1.59874 -0.39968,0.29976 -1.13243,1.06582 -1.25456,1.22125 -0.12212,0.15543 -0.13322,0.19984 0.24425,0.36637 0.37748,0.16653 1.04362,0.15543 1.4322,0.81047 0.38858,0.65504 0.94369,3.07533 0.9881,3.65265 0.0444,0.57732 0.16953,1.04445 0.0754,1.17005 -0.0942,0.12561 -0.67484,0.5508 -0.83027,0.70624 -0.15543,0.15543 -0.15543,0.64393 -0.15543,0.82157 0,0.17764 -0.0888,7.26089 -0.13323,7.46074 -0.0444,0.19984 -0.5329,0.39967 -0.77716,0.66613 -0.24425,0.26646 -0.53291,0.37748 -0.66614,0.91038 -0.13322,0.53292 -0.37747,5.50674 -0.35527,5.72878 0.0222,0.22205 3.15305,1.77637 3.15305,1.77637 0,0 0.0721,0.0277 0.10547,0.0666 0.0333,0.0388 0.0666,0.12768 -0.18319,0.12213 -0.2498,-0.005 -3.70261,-0.33862 -3.85249,-0.39968 -0.14988,-0.061 -0.42744,-0.0333 -0.43854,-1.23236 -0.0111,-1.19904 -0.26308,-5.44779 -0.26308,-5.62836 0,-0.18056 -0.12561,-0.54953 -0.28262,-0.43177 -0.157,0.11775 -1.6581,3.77307 -1.83574,4.15054 -0.17763,0.37748 -0.15543,0.64394 -0.22205,1.17684 -0.0666,0.53292 -0.0666,3.03093 -0.11102,3.21967 -0.0444,0.18873 -0.18874,0.83267 -0.46629,1.27676 -0.27756,0.44409 -0.59953,0.93259 -0.87708,0.96589 -0.27756,0.0333 -0.59953,-0.34416 -0.55512,-0.63282 0.0444,-0.28867 0.93259,-1.4544 1.06582,-1.76526 0.13323,-0.31087 0.12213,-1.37669 0.12213,-1.37669 z"
       id="path4257"
       inkscape:connector-curvature="0"
       sodipodi:nodetypes="ccscccscccssscssscssssssscssssssccscssssssscssc" />
    <path
       sodipodi:nodetypes="ccscccscccssscssscssssssscssssssccscssssssscssc"
       inkscape:connector-curvature="0"
       id="path4259"
       d="m 553.89811,909.03581 0.17763,-7.50514 c 0,0 0,-4.3521 0.31087,-5.77319 0.31086,-1.42109 0.31086,-2.26487 0.31086,-2.26487 l -1.02141,-0.66613 0.0888,-3.24187 c 0,0 -0.0805,-0.31295 -0.41023,-0.12454 -0.32972,0.18841 -1.42879,0.91066 -1.42879,0.91066 l 1.78401,1.23602 -0.0327,1.18902 c 0,0 -3.79809,-2.16755 -3.95352,-2.27857 -0.15543,-0.11102 -0.41986,-0.49189 -0.1608,-0.67245 0.25907,-0.18056 5.00139,-3.85729 5.62312,-4.16814 0.62174,-0.31087 1.03251,-0.49961 1.33228,-0.53292 0.29976,-0.0333 0.55511,-0.14433 0.4774,-0.32196 -0.0777,-0.17764 -0.4774,-1.98731 -0.4774,-2.24267 0,-0.25535 -0.29977,-0.9659 0.26645,-1.34337 0.56622,-0.37748 1.74306,-0.4774 2.24267,-0.51071 0.4996,-0.0333 1.25456,0.47741 1.58763,0.77716 0.33306,0.29976 0.86597,0.82157 0.82156,1.13243 -0.0444,0.31087 -1.06582,1.29897 -1.4655,1.59874 -0.39968,0.29976 -1.13243,1.06582 -1.25456,1.22125 -0.12212,0.15543 -0.13322,0.19984 0.24425,0.36637 0.37748,0.16653 1.04362,0.15543 1.4322,0.81047 0.38858,0.65504 0.94369,3.07533 0.9881,3.65265 0.0444,0.57732 0.16953,1.04445 0.0754,1.17005 -0.0942,0.12561 -0.67484,0.5508 -0.83027,0.70624 -0.15543,0.15543 -0.15543,0.64393 -0.15543,0.82157 0,0.17764 -0.0888,7.26089 -0.13323,7.46074 -0.0444,0.19984 -0.5329,0.39967 -0.77716,0.66613 -0.24425,0.26646 -0.53291,0.37748 -0.66614,0.91038 -0.13322,0.53292 -0.37747,5.50674 -0.35527,5.72878 0.0222,0.22205 3.15305,1.77637 3.15305,1.77637 0,0 0.0721,0.0277 0.10547,0.0666 0.0333,0.0388 0.0666,0.12768 -0.18319,0.12213 -0.2498,-0.005 -3.70261,-0.33862 -3.85249,-0.39968 -0.14988,-0.061 -0.42744,-0.0333 -0.43854,-1.23236 -0.0111,-1.19904 -0.26308,-5.44779 -0.26308,-5.62836 0,-0.18056 -0.12561,-0.54953 -0.28262,-0.43177 -0.157,0.11775 -1.6581,3.77307 -1.83574,4.15054 -0.17763,0.37748 -0.15543,0.64394 -0.22205,1.17684 -0.0666,0.53292 -0.0666,3.03093 -0.11102,3.21967 -0.0444,0.18873 -0.18874,0.83267 -0.46629,1.27676 -0.27756,0.44409 -0.59953,0.93259 -0.87708,0.96589 -0.27756,0.0333 -0.59953,-0.34416 -0.55512,-0.63282 0.0444,-0.28867 0.93259,-1.4544 1.06582,-1.76526 0.13323,-0.31087 0.12213,-1.37669 0.12213,-1.37669 z"
       style="fill:#79aef1;fill-opacity:1;stroke:none" />
    <path
       style="fill:#79aef1;fill-opacity:1;stroke:none"
       d="m 513.64811,951.41081 0.17763,-7.50514 c 0,0 0,-4.3521 0.31087,-5.77319 0.31086,-1.42109 0.31086,-2.26487 0.31086,-2.26487 l -1.02141,-0.66613 0.0888,-3.24187 c 0,0 -0.0805,-0.31295 -0.41023,-0.12454 -0.32972,0.18841 -1.42879,0.91066 -1.42879,0.91066 l 1.78401,1.23602 -0.0327,1.18902 c 0,0 -3.79809,-2.16755 -3.95352,-2.27857 -0.15543,-0.11102 -0.41986,-0.49189 -0.1608,-0.67245 0.25907,-0.18056 5.00139,-3.85729 5.62312,-4.16814 0.62174,-0.31087 1.03251,-0.49961 1.33228,-0.53292 0.29976,-0.0333 0.55511,-0.14433 0.4774,-0.32196 -0.0777,-0.17764 -0.4774,-1.98731 -0.4774,-2.24267 0,-0.25535 -0.29977,-0.9659 0.26645,-1.34337 0.56622,-0.37748 1.74306,-0.4774 2.24267,-0.51071 0.4996,-0.0333 1.25456,0.47741 1.58763,0.77716 0.33306,0.29976 0.86597,0.82157 0.82156,1.13243 -0.0444,0.31087 -1.06582,1.29897 -1.4655,1.59874 -0.39968,0.29976 -1.13243,1.06582 -1.25456,1.22125 -0.12212,0.15543 -0.13322,0.19984 0.24425,0.36637 0.37748,0.16653 1.04362,0.15543 1.4322,0.81047 0.38858,0.65504 0.94369,3.07533 0.9881,3.65265 0.0444,0.57732 0.16953,1.04445 0.0754,1.17005 -0.0942,0.12561 -0.67484,0.5508 -0.83027,0.70624 -0.15543,0.15543 -0.15543,0.64393 -0.15543,0.82157 0,0.17764 -0.0888,7.26089 -0.13323,7.46074 -0.0444,0.19984 -0.5329,0.39967 -0.77716,0.66613 -0.24425,0.26646 -0.53291,0.37748 -0.66614,0.91038 -0.13322,0.53292 -0.37747,5.50674 -0.35527,5.72878 0.0222,0.22205 3.15305,1.77637 3.15305,1.77637 0,0 0.0721,0.0277 0.10547,0.0666 0.0333,0.0388 0.0666,0.12768 -0.18319,0.12213 -0.2498,-0.005 -3.70261,-0.33862 -3.85249,-0.39968 -0.14988,-0.061 -0.42744,-0.0333 -0.43854,-1.23236 -0.0111,-1.19904 -0.26308,-5.44779 -0.26308,-5.62836 0,-0.18056 -0.12561,-0.54953 -0.28262,-0.43177 -0.157,0.11775 -1.6581,3.77307 -1.83574,4.15054 -0.17763,0.37748 -0.15543,0.64394 -0.22205,1.17684 -0.0666,0.53292 -0.0666,3.03093 -0.11102,3.21967 -0.0444,0.18873 -0.18874,0.83267 -0.46629,1.27676 -0.27756,0.44409 -0.59953,0.93259 -0.87708,0.96589 -0.27756,0.0333 -0.59953,-0.34416 -0.55512,-0.63282 0.0444,-0.28867 0.93259,-1.4544 1.06582,-1.76526 0.13323,-0.31087 0.12213,-1.37669 0.12213,-1.37669 z"
       id="path4261"
       inkscape:connector-curvature="0"
       sodipodi:nodetypes="ccscccscccssscssscssssssscssssssccscssssssscssc" />
    <path
       sodipodi:nodetypes="ccscccscccssscssscssssssscssssssccscssssssscssc"
       inkscape:connector-curvature="0"
       id="path4263"
       d="m 496.26844,955.16063 -0.17763,-7.50516 c 0,0 0,-4.35211 -0.31087,-5.77321 -0.31086,-1.42109 -0.31086,-2.26487 -0.31086,-2.26487 l 1.0214,-0.66613 -0.0888,-3.24189 c 0,0 0.0805,-0.31295 0.41023,-0.12453 0.32971,0.18841 1.42877,0.91066 1.42877,0.91066 l -1.784,1.23602 0.0327,1.18903 c 0,0 3.79804,-2.16755 3.95346,-2.27858 0.15544,-0.11102 0.41987,-0.49189 0.1608,-0.67245 -0.25906,-0.18056 -5.00133,-3.85729 -5.62305,-4.16815 -0.62172,-0.31087 -1.03249,-0.49961 -1.33226,-0.53292 -0.29975,-0.0333 -0.5551,-0.14433 -0.47739,-0.32197 0.0777,-0.17764 0.47739,-1.98731 0.47739,-2.24266 0,-0.25536 0.29977,-0.96591 -0.26644,-1.34339 -0.56622,-0.37748 -1.74304,-0.4774 -2.24264,-0.51071 -0.49959,-0.0333 -1.25454,0.47741 -1.5876,0.77717 -0.33307,0.29976 -0.86598,0.82157 -0.82156,1.13243 0.0444,0.31087 1.06581,1.29897 1.46549,1.59874 0.39967,0.29976 1.1324,1.06583 1.25453,1.22126 0.12213,0.15543 0.13322,0.19984 -0.24425,0.36637 -0.37747,0.16654 -1.04359,0.15543 -1.43217,0.81046 -0.38857,0.65505 -0.94369,3.07535 -0.98809,3.65267 -0.0444,0.57732 -0.16952,1.04445 -0.0753,1.17005 0.0942,0.12561 0.67484,0.5508 0.83027,0.70624 0.15543,0.15543 0.15543,0.64394 0.15543,0.82158 0,0.17763 0.0888,7.2609 0.13322,7.46075 0.0444,0.19984 0.53291,0.39968 0.77715,0.66614 0.24424,0.26645 0.5329,0.37748 0.66613,0.91038 0.13322,0.53293 0.37748,5.50675 0.35527,5.7288 -0.0222,0.22205 -3.15301,1.77637 -3.15301,1.77637 0,0 -0.0721,0.0277 -0.10548,0.0666 -0.0333,0.0389 -0.0666,0.12768 0.18319,0.12213 0.2498,-0.006 3.70257,-0.33862 3.85245,-0.39968 0.14988,-0.061 0.42743,-0.0333 0.43853,-1.23236 0.0111,-1.19905 0.26308,-5.44781 0.26308,-5.62837 0,-0.18057 0.12561,-0.54954 0.28261,-0.43178 0.15701,0.11775 1.65809,3.77307 1.83572,4.15056 0.17764,0.37748 0.15544,0.64392 0.22205,1.17684 0.0666,0.53291 0.0666,3.03093 0.11102,3.21967 0.0444,0.18874 0.18873,0.83267 0.46629,1.27677 0.27755,0.44409 0.59951,0.93259 0.87707,0.9659 0.27755,0.0333 0.59951,-0.34417 0.5551,-0.63284 -0.0444,-0.28866 -0.93258,-1.4544 -1.0658,-1.76527 -0.13322,-0.31086 -0.12213,-1.37668 -0.12213,-1.37668 z"
       style="fill:#79aef1;fill-opacity:1;stroke:none" />
    <path
       style="fill:#79aef1;fill-opacity:1;stroke:none"
       d="m 560.14344,935.91063 -0.17763,-7.50516 c 0,0 0,-4.35211 -0.31087,-5.77321 -0.31086,-1.42109 -0.31086,-2.26487 -0.31086,-2.26487 l 1.0214,-0.66613 -0.0888,-3.24189 c 0,0 0.0805,-0.31295 0.41023,-0.12453 0.32971,0.18841 1.42877,0.91066 1.42877,0.91066 l -1.784,1.23602 0.0327,1.18903 c 0,0 3.79804,-2.16755 3.95346,-2.27858 0.15544,-0.11102 0.41987,-0.49189 0.1608,-0.67245 -0.25906,-0.18056 -5.00133,-3.85729 -5.62305,-4.16815 -0.62172,-0.31087 -1.03249,-0.49961 -1.33226,-0.53292 -0.29975,-0.0333 -0.5551,-0.14433 -0.47739,-0.32197 0.0777,-0.17764 0.47739,-1.98731 0.47739,-2.24266 0,-0.25536 0.29977,-0.96591 -0.26644,-1.34339 -0.56622,-0.37748 -1.74304,-0.4774 -2.24264,-0.51071 -0.49959,-0.0333 -1.25454,0.47741 -1.5876,0.77717 -0.33307,0.29976 -0.86598,0.82157 -0.82156,1.13243 0.0444,0.31087 1.06581,1.29897 1.46549,1.59874 0.39967,0.29976 1.1324,1.06583 1.25453,1.22126 0.12213,0.15543 0.13322,0.19984 -0.24425,0.36637 -0.37747,0.16654 -1.04359,0.15543 -1.43217,0.81046 -0.38857,0.65505 -0.94369,3.07535 -0.98809,3.65267 -0.0444,0.57732 -0.16952,1.04445 -0.0753,1.17005 0.0942,0.12561 0.67484,0.5508 0.83027,0.70624 0.15543,0.15543 0.15543,0.64394 0.15543,0.82158 0,0.17763 0.0888,7.2609 0.13322,7.46075 0.0444,0.19984 0.53291,0.39968 0.77715,0.66614 0.24424,0.26645 0.5329,0.37748 0.66613,0.91038 0.13322,0.53293 0.37748,5.50675 0.35527,5.7288 -0.0222,0.22205 -3.15301,1.77637 -3.15301,1.77637 0,0 -0.0721,0.0277 -0.10548,0.0666 -0.0333,0.0389 -0.0666,0.12768 0.18319,0.12213 0.2498,-0.006 3.70257,-0.33862 3.85245,-0.39968 0.14988,-0.061 0.42743,-0.0333 0.43853,-1.23236 0.0111,-1.19905 0.26308,-5.44781 0.26308,-5.62837 0,-0.18057 0.12561,-0.54954 0.28261,-0.43178 0.15701,0.11775 1.65809,3.77307 1.83572,4.15056 0.17764,0.37748 0.15544,0.64392 0.22205,1.17684 0.0666,0.53291 0.0666,3.03093 0.11102,3.21967 0.0444,0.18874 0.18873,0.83267 0.46629,1.27677 0.27755,0.44409 0.59951,0.93259 0.87707,0.9659 0.27755,0.0333 0.59951,-0.34417 0.5551,-0.63284 -0.0444,-0.28866 -0.93258,-1.4544 -1.0658,-1.76527 -0.13322,-0.31086 -0.12213,-1.37668 -0.12213,-1.37668 z"
       id="path4265"
       inkscape:connector-curvature="0"
       sodipodi:nodetypes="ccscccscccssscssscssssssscssssssccscssssssscssc" />
    <path
       sodipodi:nodetypes="ccscccscccssscssscssssssscssssssccscssssssscssc"
       inkscape:connector-curvature="0"
       id="path4281"
       d="m 533.47496,1001.5161 0.29388,-12.41653 c 0,0 0,-7.20015 0.5143,-9.55121 0.51429,-2.35106 0.51429,-3.74702 0.51429,-3.74702 l -1.68983,-1.10205 0.14691,-5.36338 c 0,0 -0.13318,-0.51774 -0.67868,-0.20604 -0.5455,0.31171 -2.3638,1.50661 -2.3638,1.50661 l 2.95148,2.04488 -0.0541,1.96712 c 0,0 -6.28359,-3.58601 -6.54074,-3.76968 -0.25714,-0.18367 -0.69462,-0.81379 -0.26603,-1.11251 0.42861,-0.29872 8.27434,-6.38153 9.30294,-6.8958 1.02861,-0.51431 1.70819,-0.82656 2.20413,-0.88167 0.49593,-0.0551 0.91838,-0.23878 0.78981,-0.53265 -0.12854,-0.29389 -0.78981,-3.28782 -0.78981,-3.71029 0,-0.42245 -0.49594,-1.59799 0.44082,-2.22248 0.93676,-0.62451 2.88373,-0.78982 3.71029,-0.84493 0.82654,-0.0551 2.07555,0.78983 2.62659,1.28574 0.55101,0.49593 1.43266,1.35922 1.35919,1.8735 -0.0734,0.51431 -1.7633,2.14903 -2.42453,2.64497 -0.66124,0.49593 -1.8735,1.7633 -2.07556,2.02045 -0.20203,0.25714 -0.2204,0.33061 0.40409,0.60612 0.62451,0.27551 1.72657,0.25715 2.36944,1.34085 0.64287,1.0837 1.56125,5.08785 1.63472,6.04297 0.0735,0.95513 0.28048,1.72795 0.12475,1.93574 -0.15585,0.20781 -1.11646,0.91125 -1.37361,1.16841 -0.25714,0.25715 -0.25714,1.06532 -0.25714,1.35921 0,0.29389 -0.14691,12.01248 -0.22042,12.34311 -0.0735,0.33062 -0.88163,0.66122 -1.28574,1.10205 -0.40409,0.44083 -0.88165,0.62451 -1.10207,1.50614 -0.2204,0.88167 -0.62449,9.11037 -0.58776,9.47777 0.0367,0.3673 5.21643,2.9388 5.21643,2.9388 0,0 0.11929,0.046 0.17449,0.1102 0.0551,0.064 0.11019,0.2112 -0.30307,0.202 -0.41327,-0.01 -6.12562,-0.5602 -6.37359,-0.6612 -0.24796,-0.1009 -0.70716,-0.055 -0.72552,-2.0388 -0.0184,-1.9837 -0.43524,-9.01288 -0.43524,-9.31162 0,-0.29872 -0.20781,-0.90914 -0.46757,-0.71432 -0.25974,0.19481 -2.74317,6.2422 -3.03706,6.86668 -0.29388,0.62451 -0.25715,1.06536 -0.36737,1.94696 -0.11018,0.8817 -0.11018,5.0144 -0.18367,5.3267 -0.0734,0.3122 -0.31225,1.3775 -0.77143,2.1122 -0.4592,0.7347 -0.99187,1.5429 -1.45105,1.598 -0.4592,0.055 -0.99187,-0.5694 -0.91839,-1.0469 0.0734,-0.4776 1.54288,-2.4062 1.7633,-2.9205 0.22041,-0.5143 0.20205,-2.2776 0.20205,-2.2776 z"
       style="fill:#79aef1;fill-opacity:1;stroke:none" />
    <text
       sodipodi:linespacing="125%"
       id="text4299"
       y="791.3681"
       x="367.3851"
       style="font-size:15.41794109px;font-style:normal;font-weight:normal;text-align:center;line-height:125%;letter-spacing:0px;word-spacing:0px;text-anchor:middle;fill:#000000;fill-opacity:1;stroke:none;font-family:Sans"
       xml:space="preserve"><tspan
         style="font-weight:bold;text-align:center;text-anchor:middle;-inkscape-font-specification:Sans Bold"
         y="791.3681"
         x="367.3851"
         sodipodi:role="line"
         id="tspan4301">One to many</tspan></text>
    <text
       xml:space="preserve"
       style="font-size:15.41794109px;font-style:normal;font-weight:normal;text-align:center;line-height:125%;letter-spacing:0px;word-spacing:0px;text-anchor:middle;fill:#000000;fill-opacity:1;stroke:none;font-family:Sans"
       x="570.32477"
       y="791.3681"
       id="text4303"
       sodipodi:linespacing="125%"><tspan
         id="tspan4305"
         sodipodi:role="line"
         x="570.32477"
         y="791.3681"
         style="font-weight:bold;text-align:center;text-anchor:middle;-inkscape-font-specification:Sans Bold">Many to many</tspan></text>
    <path
       sodipodi:nodetypes="ccscccscccssscssscssssssscssssssccscssssssscssc"
       inkscape:connector-curvature="0"
       id="path3033"
       d="m 111.67286,952.15064 0.48971,-20.69023 c 0,0 0,-11.99789 0.85699,-15.91557 0.85699,-3.91767 0.85699,-6.24379 0.85699,-6.24379 l -2.81583,-1.83642 0.24486,-8.9372 c 0,0 -0.22196,-0.86273 -1.13094,-0.34331 -0.90897,0.51941 -3.9389,2.51051 -3.9389,2.51051 l 4.91819,3.40745 -0.0902,3.27791 c 0,0 -10.47059,-5.97551 -10.89909,-6.28158 -0.428487,-0.30607 -1.157467,-1.35605 -0.443277,-1.85382 0.714197,-0.49777 13.787867,-10.63378 15.501847,-11.49077 1.71399,-0.85699 2.84644,-1.37731 3.67283,-1.46913 0.82638,-0.0918 1.53034,-0.39789 1.31609,-0.8876 -0.21425,-0.48971 -1.31609,-5.47862 -1.31609,-6.18258 0,-0.70396 -0.82639,-2.6628 0.73456,-3.70343 1.56095,-1.04064 4.80528,-1.3161 6.18259,-1.40792 1.3773,-0.0918 3.45857,1.3161 4.37678,2.14248 0.9182,0.82639 2.38733,2.26491 2.2649,3.1219 -0.12242,0.85699 -2.93825,3.581 -4.0401,4.40739 -1.10185,0.82638 -3.1219,2.93826 -3.45858,3.36675 -0.33667,0.4285 -0.36728,0.55093 0.67335,1.01003 1.04064,0.4591 2.87705,0.42849 3.94829,2.2343 1.07124,1.8058 2.60158,8.4781 2.72401,10.06965 0.12243,1.59156 0.46734,2.87933 0.20763,3.2256 -0.25971,0.34628 -1.8604,1.51847 -2.2889,1.94696 -0.42849,0.4285 -0.42849,1.7752 -0.42849,2.26491 0,0.48971 -0.24486,20.01688 -0.36729,20.56781 -0.12242,0.55092 -1.46912,1.10184 -2.14248,1.83641 -0.67335,0.73456 -1.46912,1.04063 -1.83641,2.50976 -0.36728,1.46913 -1.04063,15.181 -0.97942,15.79314 0.0612,0.61213 8.69235,4.89709 8.69235,4.89709 0,0 0.19895,0.0765 0.29077,0.18364 0.0918,0.10713 0.18364,0.35198 -0.50502,0.33668 -0.68865,-0.0153 -10.20738,-0.93351 -10.62058,-1.10185 -0.41319,-0.16833 -1.17836,-0.0918 -1.20897,-3.39736 -0.0306,-3.30554 -0.72526,-15.01853 -0.72526,-15.5163 0,-0.49778 -0.34627,-1.51496 -0.77912,-1.19033 -0.43284,0.32463 -4.57108,10.40162 -5.06079,11.44225 -0.48971,1.04064 -0.42849,1.7752 -0.61213,3.24433 -0.18364,1.46913 -0.18364,8.35567 -0.30607,8.87599 -0.12243,0.52031 -0.52032,2.29551 -1.28549,3.51979 -0.76517,1.22427 -1.65277,2.57097 -2.41794,2.66279 -0.76517,0.0918 -1.65277,-0.94881 -1.53034,-1.74459 0.12242,-0.79578 2.57097,-4.0095 2.93825,-4.86649 0.36729,-0.85699 0.33668,-3.79525 0.33668,-3.79525 z"
       style="fill:#79aef1;fill-opacity:1;stroke:none" />
    <path
       style="fill:#399d2d;fill-opacity:1;stroke:none"
       d="m 215.72944,952.15013 -0.48971,-20.69027 c 0,0 0,-11.99792 -0.85699,-15.91562 -0.85698,-3.91768 -0.85698,-6.2438 -0.85698,-6.2438 l 2.8158,-1.83642 -0.24485,-8.93724 c 0,0 0.22194,-0.86273 1.13091,-0.3433 0.90897,0.51941 3.93885,2.51051 3.93885,2.51051 l -4.91812,3.40746 0.0901,3.27792 c 0,0 10.47046,-5.97552 10.89894,-6.2816 0.4285,-0.30606 1.15747,-1.35604 0.44328,-1.85382 -0.71419,-0.49777 -13.78769,-10.6338 -15.50164,-11.49079 -1.71396,-0.857 -2.84641,-1.37732 -3.67278,-1.46914 -0.82638,-0.0918 -1.53033,-0.39789 -1.31608,-0.88761 0.21424,-0.4897 1.31608,-5.47863 1.31608,-6.18259 0,-0.70396 0.82637,-2.66281 -0.73456,-3.70344 -1.56093,-1.04064 -4.80521,-1.31611 -6.1825,-1.40793 -1.37729,-0.0918 -3.45853,1.31611 -4.37672,2.14249 -0.91821,0.8264 -2.38731,2.26492 -2.26488,3.12191 0.12242,0.85699 2.93822,3.58101 4.04006,4.4074 1.10182,0.82639 3.12184,2.93828 3.45852,3.36677 0.33667,0.4285 0.36727,0.55092 -0.67335,1.01002 -1.04061,0.45911 -2.87699,0.42849 -3.94822,2.2343 -1.07122,1.80582 -2.60156,8.47813 -2.72398,10.06969 -0.12242,1.59156 -0.46733,2.87933 -0.20764,3.2256 0.25972,0.34628 1.8604,1.51847 2.28888,1.94696 0.4285,0.42851 0.4285,1.77521 0.4285,2.26493 0,0.4897 0.24484,20.01692 0.36727,20.56786 0.12242,0.55092 1.46911,1.10184 2.14245,1.83641 0.67334,0.73457 1.46911,1.04063 1.83638,2.50976 0.36728,1.46915 1.04063,15.18105 0.97941,15.79319 -0.0612,0.61213 -8.69224,4.8971 -8.69224,4.8971 0,0 -0.19893,0.0765 -0.29076,0.18364 -0.0918,0.10718 -0.18363,0.35198 0.50501,0.33668 0.68865,-0.0153 10.20725,-0.93351 10.62045,-1.10185 0.41318,-0.16833 1.17834,-0.0918 1.20894,-3.39736 0.0306,-3.30556 0.72526,-15.01858 0.72526,-15.51634 0,-0.49779 0.34628,-1.51497 0.77911,-1.19034 0.43285,0.32463 4.57102,10.40164 5.06073,11.44228 0.48969,1.04064 0.42849,1.7752 0.61213,3.24434 0.18363,1.46913 0.18363,8.35568 0.30606,8.87601 0.12242,0.52031 0.5203,2.29551 1.28546,3.5198 0.76517,1.22427 1.65276,2.57098 2.41792,2.6628 0.76516,0.0918 1.65275,-0.94881 1.53032,-1.74461 -0.12242,-0.79577 -2.57095,-4.0095 -2.93822,-4.86649 -0.36727,-0.85699 -0.33667,-3.79527 -0.33668,-3.79527 z"
       id="path3035"
       inkscape:connector-curvature="0"
       sodipodi:nodetypes="ccscccscccssscssscssssssscssssssccscssssssscssc" />
    <path
       inkscape:connector-curvature="0"
       id="path3037"
       d="m 142.25919,915.42694 40.30509,-14.49569"
       style="fill:none;stroke:#000000;stroke-width:4;stroke-linecap:butt;stroke-linejoin:miter;stroke-miterlimit:4;stroke-opacity:1;stroke-dasharray:none;marker-start:url(#Arrow1Sstart);marker-end:url(#Arrow1Send)" />
    <text
       sodipodi:linespacing="125%"
       id="text3039"
       y="988.6369"
       x="116.89016"
       style="font-size:11px;font-style:normal;font-weight:normal;text-align:center;line-height:125%;letter-spacing:0px;word-spacing:0px;text-anchor:middle;fill:#000000;fill-opacity:1;stroke:none;font-family:Sans"
       xml:space="preserve"><tspan
         style="font-weight:bold;-inkscape-font-specification:Sans Bold"
         y="988.6369"
         x="116.89016"
         sodipodi:role="line"
         id="tspan3041">Cliente</tspan></text>
    <text
       xml:space="preserve"
       style="font-size:11px;font-style:normal;font-weight:normal;text-align:center;line-height:125%;letter-spacing:0px;word-spacing:0px;text-anchor:middle;fill:#000000;fill-opacity:1;stroke:none;font-family:Sans"
       x="209.8243"
       y="988.6369"
       id="text3043"
       sodipodi:linespacing="125%"><tspan
         id="tspan3045"
         sodipodi:role="line"
         x="209.8243"
         y="988.6369"
         style="font-weight:bold;-inkscape-font-specification:Sans Bold">Empresa</tspan></text>
    <text
       sodipodi:linespacing="125%"
       id="text3047"
       y="832.6369"
       x="84.546715"
       style="font-size:11px;font-style:normal;font-weight:normal;text-align:center;line-height:125%;letter-spacing:0px;word-spacing:0px;text-anchor:middle;fill:#000000;fill-opacity:1;stroke:none;font-family:Sans"
       xml:space="preserve"><tspan
         style="font-weight:bold;text-align:start;text-anchor:start;-inkscape-font-specification:Sans Bold"
         y="832.6369"
         x="84.546715"
         sodipodi:role="line"
         id="tspan3049">Relación cliente empresa</tspan></text>
    <path
       style="fill:#79aef1;fill-opacity:1;stroke:none"
       d="m 111.67286,952.15064 0.48971,-20.69023 c 0,0 0,-11.99789 0.85699,-15.91557 0.85699,-3.91767 0.85699,-6.24379 0.85699,-6.24379 l -2.81583,-1.83642 0.24486,-8.9372 c 0,0 -0.22196,-0.86273 -1.13094,-0.34331 -0.90897,0.51941 -3.9389,2.51051 -3.9389,2.51051 l 4.91819,3.40745 -0.0902,3.27791 c 0,0 -10.47059,-5.97551 -10.89909,-6.28158 -0.428487,-0.30607 -1.157467,-1.35605 -0.443277,-1.85382 0.714197,-0.49777 13.787867,-10.63378 15.501847,-11.49077 1.71399,-0.85699 2.84644,-1.37731 3.67283,-1.46913 0.82638,-0.0918 1.53034,-0.39789 1.31609,-0.8876 -0.21425,-0.48971 -1.31609,-5.47862 -1.31609,-6.18258 0,-0.70396 -0.82639,-2.6628 0.73456,-3.70343 1.56095,-1.04064 4.80528,-1.3161 6.18259,-1.40792 1.3773,-0.0918 3.45857,1.3161 4.37678,2.14248 0.9182,0.82639 2.38733,2.26491 2.2649,3.1219 -0.12242,0.85699 -2.93825,3.581 -4.0401,4.40739 -1.10185,0.82638 -3.1219,2.93826 -3.45858,3.36675 -0.33667,0.4285 -0.36728,0.55093 0.67335,1.01003 1.04064,0.4591 2.87705,0.42849 3.94829,2.2343 1.07124,1.8058 2.60158,8.4781 2.72401,10.06965 0.12243,1.59156 0.46734,2.87933 0.20763,3.2256 -0.25971,0.34628 -1.8604,1.51847 -2.2889,1.94696 -0.42849,0.4285 -0.42849,1.7752 -0.42849,2.26491 0,0.48971 -0.24486,20.01688 -0.36729,20.56781 -0.12242,0.55092 -1.46912,1.10184 -2.14248,1.83641 -0.67335,0.73456 -1.46912,1.04063 -1.83641,2.50976 -0.36728,1.46913 -1.04063,15.181 -0.97942,15.79314 0.0612,0.61213 8.69235,4.89709 8.69235,4.89709 0,0 0.19895,0.0765 0.29077,0.18364 0.0918,0.10713 0.18364,0.35198 -0.50502,0.33668 -0.68865,-0.0153 -10.20738,-0.93351 -10.62058,-1.10185 -0.41319,-0.16833 -1.17836,-0.0918 -1.20897,-3.39736 -0.0306,-3.30554 -0.72526,-15.01853 -0.72526,-15.5163 0,-0.49778 -0.34627,-1.51496 -0.77912,-1.19033 -0.43284,0.32463 -4.57108,10.40162 -5.06079,11.44225 -0.48971,1.04064 -0.42849,1.7752 -0.61213,3.24433 -0.18364,1.46913 -0.18364,8.35567 -0.30607,8.87599 -0.12243,0.52031 -0.52032,2.29551 -1.28549,3.51979 -0.76517,1.22427 -1.65277,2.57097 -2.41794,2.66279 -0.76517,0.0918 -1.65277,-0.94881 -1.53034,-1.74459 0.12242,-0.79578 2.57097,-4.0095 2.93825,-4.86649 0.36729,-0.85699 0.33668,-3.79525 0.33668,-3.79525 z"
       id="path3051"
       inkscape:connector-curvature="0"
       sodipodi:nodetypes="ccscccscccssscssscssssssscssssssccscssssssscssc" />
    <text
       xml:space="preserve"
       style="font-size:15.41794109px;font-style:normal;font-weight:normal;text-align:center;line-height:125%;letter-spacing:0px;word-spacing:0px;text-anchor:middle;fill:#000000;fill-opacity:1;stroke:none;font-family:Sans"
       x="165.85966"
       y="791.3681"
       id="text3053"
       sodipodi:linespacing="125%"><tspan
         id="tspan3055"
         sodipodi:role="line"
         x="165.85966"
         y="791.3681"
         style="font-weight:bold;text-align:center;text-anchor:middle;-inkscape-font-specification:Sans Bold">One to one</tspan></text>
    <g
       id="g3075"
       transform="translate(208.27669,-121.07947)">
      <path
         style="fill:none;stroke:#828282;stroke-width:1px;stroke-linecap:butt;stroke-linejoin:miter;stroke-opacity:1"
         d="m 369.27666,1090.3751 19,-30.75 60.75,20 -39.75,24.75 -23.5,-5.5 32.5,-32.5 32.5,-10.25 22,-5.5"
         id="path3057"
         inkscape:connector-curvature="0" />
      <path
         style="fill:none;stroke:#828282;stroke-width:1px;stroke-linecap:butt;stroke-linejoin:miter;stroke-opacity:1"
         d="m 466.27666,1069.1251 -55,20.25 -24.5,-29.5 -3,38.5 -15.5,3.75"
         id="path3059"
         inkscape:connector-curvature="0" />
      <path
         sodipodi:nodetypes="ccscccscccssscssscssssssscssssssccscssssssscssc"
         inkscape:connector-curvature="0"
         id="path3061"
         d="m 389.29327,1073.5796 -0.17763,-7.5052 c 0,0 0,-4.3521 -0.31087,-5.7732 -0.31086,-1.4211 -0.31086,-2.2649 -0.31086,-2.2649 l 1.0214,-0.6661 -0.0888,-3.2419 c 0,0 0.0805,-0.3129 0.41023,-0.1245 0.32971,0.1884 1.42877,0.9106 1.42877,0.9106 l -1.784,1.2361 0.0327,1.189 c 0,0 3.79804,-2.1676 3.95346,-2.2786 0.15544,-0.111 0.41987,-0.4919 0.1608,-0.6724 -0.25906,-0.1806 -5.00133,-3.8573 -5.62305,-4.1682 -0.62172,-0.3109 -1.03249,-0.4996 -1.33226,-0.5329 -0.29975,-0.033 -0.5551,-0.1443 -0.47739,-0.322 0.0777,-0.1776 0.47739,-1.9873 0.47739,-2.2426 0,-0.2554 0.29977,-0.966 -0.26644,-1.3434 -0.56622,-0.3775 -1.74304,-0.4774 -2.24264,-0.5107 -0.49959,-0.033 -1.25454,0.4774 -1.5876,0.7771 -0.33307,0.2998 -0.86598,0.8216 -0.82156,1.1325 0.0444,0.3108 1.06581,1.2989 1.46549,1.5987 0.39967,0.2998 1.1324,1.0658 1.25453,1.2213 0.12213,0.1554 0.13322,0.1998 -0.24425,0.3663 -0.37747,0.1666 -1.04359,0.1555 -1.43217,0.8105 -0.38857,0.655 -0.94369,3.0753 -0.98809,3.6527 -0.0444,0.5773 -0.16952,1.0444 -0.0753,1.17 0.0942,0.1256 0.67484,0.5508 0.83027,0.7062 0.15543,0.1555 0.15543,0.644 0.15543,0.8216 0,0.1777 0.0888,7.2609 0.13322,7.4608 0.0444,0.1998 0.53291,0.3997 0.77715,0.6661 0.24424,0.2665 0.5329,0.3775 0.66613,0.9104 0.13322,0.5329 0.37748,5.5067 0.35527,5.7288 -0.0222,0.222 -3.15301,1.7764 -3.15301,1.7764 0,0 -0.0721,0.028 -0.10548,0.067 -0.0333,0.039 -0.0666,0.1276 0.18319,0.1221 0.2498,-0.01 3.70257,-0.3386 3.85245,-0.3997 0.14988,-0.061 0.42743,-0.033 0.43853,-1.2323 0.0111,-1.1991 0.26308,-5.4479 0.26308,-5.6284 0,-0.1806 0.12561,-0.5496 0.28261,-0.4318 0.15701,0.1178 1.65809,3.7731 1.83572,4.1506 0.17764,0.3774 0.15544,0.6439 0.22205,1.1768 0.0666,0.5329 0.0666,3.0309 0.11102,3.2197 0.0444,0.1887 0.18873,0.8326 0.46629,1.2767 0.27755,0.4441 0.59951,0.9326 0.87707,0.9659 0.27755,0.033 0.59951,-0.3441 0.5551,-0.6328 -0.0444,-0.2887 -0.93258,-1.4544 -1.0658,-1.7653 -0.13322,-0.3108 -0.12213,-1.3766 -0.12213,-1.3766 z"
         style="fill:#399d2d;fill-opacity:1;stroke:none" />
      <path
         style="fill:#399d2d;fill-opacity:1;stroke:none"
         d="m 389.41827,1118.0796 -0.17763,-7.5052 c 0,0 0,-4.3521 -0.31087,-5.7732 -0.31086,-1.4211 -0.31086,-2.2649 -0.31086,-2.2649 l 1.0214,-0.6661 -0.0888,-3.2419 c 0,0 0.0805,-0.3129 0.41023,-0.1245 0.32971,0.1884 1.42877,0.9106 1.42877,0.9106 l -1.784,1.2361 0.0327,1.189 c 0,0 3.79804,-2.1676 3.95346,-2.2786 0.15544,-0.111 0.41987,-0.4919 0.1608,-0.6724 -0.25906,-0.1806 -5.00133,-3.8573 -5.62305,-4.1682 -0.62172,-0.3109 -1.03249,-0.4996 -1.33226,-0.5329 -0.29975,-0.033 -0.5551,-0.1443 -0.47739,-0.322 0.0777,-0.1776 0.47739,-1.9873 0.47739,-2.2426 0,-0.2554 0.29977,-0.966 -0.26644,-1.3434 -0.56622,-0.3775 -1.74304,-0.4774 -2.24264,-0.5107 -0.49959,-0.033 -1.25454,0.4774 -1.5876,0.7771 -0.33307,0.2998 -0.86598,0.8216 -0.82156,1.1325 0.0444,0.3108 1.06581,1.2989 1.46549,1.5987 0.39967,0.2998 1.1324,1.0658 1.25453,1.2213 0.12213,0.1554 0.13322,0.1998 -0.24425,0.3663 -0.37747,0.1666 -1.04359,0.1555 -1.43217,0.8105 -0.38857,0.655 -0.94369,3.0753 -0.98809,3.6527 -0.0444,0.5773 -0.16952,1.0444 -0.0753,1.17 0.0942,0.1256 0.67484,0.5508 0.83027,0.7062 0.15543,0.1555 0.15543,0.644 0.15543,0.8216 0,0.1777 0.0888,7.2609 0.13322,7.4608 0.0444,0.1998 0.53291,0.3997 0.77715,0.6661 0.24424,0.2665 0.5329,0.3775 0.66613,0.9104 0.13322,0.5329 0.37748,5.5067 0.35527,5.7288 -0.0222,0.222 -3.15301,1.7764 -3.15301,1.7764 0,0 -0.0721,0.028 -0.10548,0.067 -0.0333,0.039 -0.0666,0.1276 0.18319,0.1221 0.2498,-0.01 3.70257,-0.3386 3.85245,-0.3997 0.14988,-0.061 0.42743,-0.033 0.43853,-1.2323 0.0111,-1.1991 0.26308,-5.4479 0.26308,-5.6284 0,-0.1806 0.12561,-0.5496 0.28261,-0.4318 0.15701,0.1178 1.65809,3.7731 1.83572,4.1506 0.17764,0.3774 0.15544,0.6439 0.22205,1.1768 0.0666,0.5329 0.0666,3.0309 0.11102,3.2196 0.0444,0.1888 0.18873,0.8327 0.46629,1.2768 0.27755,0.4441 0.59951,0.9326 0.87707,0.9659 0.27755,0.033 0.59951,-0.3442 0.5551,-0.6328 -0.0444,-0.2887 -0.93258,-1.4544 -1.0658,-1.7653 -0.13322,-0.3109 -0.12213,-1.3766 -0.12213,-1.3766 z"
         id="path3063"
         inkscape:connector-curvature="0"
         sodipodi:nodetypes="ccscccscccssscssscssssssscssssssccscssssssscssc" />
      <path
         sodipodi:nodetypes="ccscccscccssscssscssssssscssssssccscssssssscssc"
         inkscape:connector-curvature="0"
         id="path3065"
         d="m 406.42294,1113.0797 0.17763,-7.5051 c 0,0 0,-4.3521 0.31087,-5.7732 0.31086,-1.4211 0.31086,-2.2649 0.31086,-2.2649 l -1.02141,-0.6661 0.0888,-3.2419 c 0,0 -0.0805,-0.3129 -0.41023,-0.1245 -0.32972,0.1884 -1.42879,0.9107 -1.42879,0.9107 l 1.78401,1.236 -0.0327,1.189 c 0,0 -3.79809,-2.1675 -3.95352,-2.2786 -0.15543,-0.111 -0.41986,-0.4919 -0.1608,-0.6724 0.25907,-0.1806 5.00139,-3.8573 5.62312,-4.1682 0.62174,-0.3108 1.03251,-0.4996 1.33228,-0.5329 0.29976,-0.033 0.55511,-0.1443 0.4774,-0.3219 -0.0777,-0.1777 -0.4774,-1.9873 -0.4774,-2.2427 0,-0.2554 -0.29977,-0.9659 0.26645,-1.3434 0.56622,-0.3775 1.74306,-0.4774 2.24267,-0.5107 0.4996,-0.033 1.25456,0.4774 1.58763,0.7772 0.33306,0.2997 0.86597,0.8215 0.82156,1.1324 -0.0444,0.3109 -1.06582,1.299 -1.4655,1.5987 -0.39968,0.2998 -1.13243,1.0659 -1.25456,1.2213 -0.12212,0.1554 -0.13322,0.1998 0.24425,0.3664 0.37748,0.1665 1.04362,0.1554 1.4322,0.8104 0.38858,0.6551 0.94369,3.0754 0.9881,3.6527 0.0444,0.5773 0.16953,1.0444 0.0754,1.17 -0.0942,0.1256 -0.67484,0.5508 -0.83027,0.7063 -0.15543,0.1554 -0.15543,0.6439 -0.15543,0.8215 0,0.1777 -0.0888,7.2609 -0.13323,7.4608 -0.0444,0.1998 -0.5329,0.3997 -0.77716,0.6661 -0.24425,0.2665 -0.53291,0.3775 -0.66614,0.9104 -0.13322,0.5329 -0.37747,5.5067 -0.35527,5.7288 0.0222,0.222 3.15305,1.7763 3.15305,1.7763 0,0 0.0721,0.028 0.10547,0.067 0.0333,0.039 0.0666,0.1277 -0.18319,0.1222 -0.2498,-0.01 -3.70261,-0.3386 -3.85249,-0.3997 -0.14988,-0.061 -0.42744,-0.033 -0.43854,-1.2324 -0.0111,-1.199 -0.26308,-5.4478 -0.26308,-5.6283 0,-0.1806 -0.12561,-0.5496 -0.28262,-0.4318 -0.157,0.1178 -1.6581,3.7731 -1.83574,4.1505 -0.17763,0.3775 -0.15543,0.644 -0.22205,1.1769 -0.0666,0.5329 -0.0666,3.0309 -0.11102,3.2197 -0.0444,0.1887 -0.18874,0.8326 -0.46629,1.2767 -0.27756,0.4441 -0.59953,0.9326 -0.87708,0.9659 -0.27756,0.033 -0.59953,-0.3442 -0.55512,-0.6328 0.0444,-0.2887 0.93259,-1.4544 1.06582,-1.7653 0.13323,-0.3108 0.12213,-1.3767 0.12213,-1.3767 z"
         style="fill:#399d2d;fill-opacity:1;stroke:none" />
      <path
         style="fill:#399d2d;fill-opacity:1;stroke:none"
         d="m 414.92294,1074.0797 0.17763,-7.5051 c 0,0 0,-4.3521 0.31087,-5.7732 0.31086,-1.4211 0.31086,-2.2649 0.31086,-2.2649 l -1.02141,-0.6661 0.0888,-3.2419 c 0,0 -0.0805,-0.3129 -0.41023,-0.1245 -0.32972,0.1884 -1.42879,0.9107 -1.42879,0.9107 l 1.78401,1.236 -0.0327,1.189 c 0,0 -3.79809,-2.1675 -3.95352,-2.2786 -0.15543,-0.111 -0.41986,-0.4919 -0.1608,-0.6724 0.25907,-0.1806 5.00139,-3.8573 5.62312,-4.1682 0.62174,-0.3108 1.03251,-0.4996 1.33228,-0.5329 0.29976,-0.033 0.55511,-0.1443 0.4774,-0.3219 -0.0777,-0.1777 -0.4774,-1.9873 -0.4774,-2.2427 0,-0.2554 -0.29977,-0.9659 0.26645,-1.3434 0.56622,-0.3775 1.74306,-0.4774 2.24267,-0.5107 0.4996,-0.033 1.25456,0.4774 1.58763,0.7772 0.33306,0.2997 0.86597,0.8215 0.82156,1.1324 -0.0444,0.3109 -1.06582,1.299 -1.4655,1.5987 -0.39968,0.2998 -1.13243,1.0659 -1.25456,1.2213 -0.12212,0.1554 -0.13322,0.1998 0.24425,0.3664 0.37748,0.1665 1.04362,0.1554 1.4322,0.8104 0.38858,0.6551 0.94369,3.0754 0.9881,3.6527 0.0444,0.5773 0.16953,1.0444 0.0754,1.17 -0.0942,0.1256 -0.67484,0.5508 -0.83027,0.7063 -0.15543,0.1554 -0.15543,0.6439 -0.15543,0.8215 0,0.1777 -0.0888,7.2609 -0.13323,7.4608 -0.0444,0.1998 -0.5329,0.3997 -0.77716,0.6661 -0.24425,0.2665 -0.53291,0.3775 -0.66614,0.9104 -0.13322,0.5329 -0.37747,5.5067 -0.35527,5.7288 0.0222,0.222 3.15305,1.7763 3.15305,1.7763 0,0 0.0721,0.028 0.10547,0.067 0.0333,0.039 0.0666,0.1277 -0.18319,0.1222 -0.2498,-0.01 -3.70261,-0.3386 -3.85249,-0.3997 -0.14988,-0.061 -0.42744,-0.033 -0.43854,-1.2324 -0.0111,-1.199 -0.26308,-5.4478 -0.26308,-5.6283 0,-0.1806 -0.12561,-0.5496 -0.28262,-0.4318 -0.157,0.1178 -1.6581,3.7731 -1.83574,4.1505 -0.17763,0.3775 -0.15543,0.644 -0.22205,1.1769 -0.0666,0.5329 -0.0666,3.0309 -0.11102,3.2197 -0.0444,0.1887 -0.18874,0.8326 -0.46629,1.2767 -0.27756,0.4441 -0.59953,0.9326 -0.87708,0.9659 -0.27756,0.033 -0.59953,-0.3442 -0.55512,-0.6328 0.0444,-0.2887 0.93259,-1.4544 1.06582,-1.7653 0.13323,-0.3108 0.12213,-1.3767 0.12213,-1.3767 z"
         id="path3067"
         inkscape:connector-curvature="0"
         sodipodi:nodetypes="ccscccscccssscssscssssssscssssssccscssssssscssc" />
      <path
         sodipodi:nodetypes="ccscccscccssscssscssssssscssssssccscssssssscssc"
         inkscape:connector-curvature="0"
         id="path3069"
         d="m 447.29794,1070.8297 0.17763,-7.5051 c 0,0 0,-4.3521 0.31087,-5.7732 0.31086,-1.4211 0.31086,-2.2649 0.31086,-2.2649 l -1.02141,-0.6661 0.0888,-3.2419 c 0,0 -0.0805,-0.3129 -0.41023,-0.1245 -0.32972,0.1884 -1.42879,0.9107 -1.42879,0.9107 l 1.78401,1.236 -0.0327,1.189 c 0,0 -3.79809,-2.1675 -3.95352,-2.2786 -0.15543,-0.111 -0.41986,-0.4919 -0.1608,-0.6724 0.25907,-0.1806 5.00139,-3.8573 5.62312,-4.1682 0.62174,-0.3108 1.03251,-0.4996 1.33228,-0.5329 0.29976,-0.033 0.55511,-0.1443 0.4774,-0.3219 -0.0777,-0.1777 -0.4774,-1.9873 -0.4774,-2.2427 0,-0.2554 -0.29977,-0.9659 0.26645,-1.3434 0.56622,-0.3775 1.74306,-0.4774 2.24267,-0.5107 0.4996,-0.033 1.25456,0.4774 1.58763,0.7772 0.33306,0.2997 0.86597,0.8215 0.82156,1.1324 -0.0444,0.3109 -1.06582,1.299 -1.4655,1.5987 -0.39968,0.2998 -1.13243,1.0659 -1.25456,1.2213 -0.12212,0.1554 -0.13322,0.1998 0.24425,0.3664 0.37748,0.1665 1.04362,0.1554 1.4322,0.8104 0.38858,0.6551 0.94369,3.0754 0.9881,3.6527 0.0444,0.5773 0.16953,1.0444 0.0754,1.17 -0.0942,0.1256 -0.67484,0.5508 -0.83027,0.7063 -0.15543,0.1554 -0.15543,0.6439 -0.15543,0.8215 0,0.1777 -0.0888,7.2609 -0.13323,7.4608 -0.0444,0.1998 -0.5329,0.3997 -0.77716,0.6661 -0.24425,0.2665 -0.53291,0.3775 -0.66614,0.9104 -0.13322,0.5329 -0.37747,5.5067 -0.35527,5.7288 0.0222,0.222 3.15305,1.7763 3.15305,1.7763 0,0 0.0721,0.028 0.10547,0.067 0.0333,0.039 0.0666,0.1277 -0.18319,0.1222 -0.2498,-0.01 -3.70261,-0.3386 -3.85249,-0.3997 -0.14988,-0.061 -0.42744,-0.033 -0.43854,-1.2324 -0.0111,-1.199 -0.26308,-5.4478 -0.26308,-5.6283 0,-0.1806 -0.12561,-0.5496 -0.28262,-0.4318 -0.157,0.1178 -1.6581,3.7731 -1.83574,4.1505 -0.17763,0.3775 -0.15543,0.644 -0.22205,1.1769 -0.0666,0.5329 -0.0666,3.0309 -0.11102,3.2197 -0.0444,0.1887 -0.18874,0.8326 -0.46629,1.2767 -0.27756,0.4441 -0.59953,0.9326 -0.87708,0.9659 -0.27756,0.033 -0.59953,-0.3442 -0.55512,-0.6328 0.0444,-0.2887 0.93259,-1.4544 1.06582,-1.7653 0.13323,-0.3108 0.12213,-1.3767 0.12213,-1.3767 z"
         style="fill:#399d2d;fill-opacity:1;stroke:none" />
      <path
         style="fill:#399d2d;fill-opacity:1;stroke:none"
         d="m 453.54327,1097.5796 -0.17763,-7.5052 c 0,0 0,-4.3521 -0.31087,-5.7732 -0.31086,-1.4211 -0.31086,-2.2649 -0.31086,-2.2649 l 1.0214,-0.6661 -0.0888,-3.2419 c 0,0 0.0805,-0.3129 0.41023,-0.1245 0.32971,0.1884 1.42877,0.9106 1.42877,0.9106 l -1.784,1.2361 0.0327,1.189 c 0,0 3.79804,-2.1676 3.95346,-2.2786 0.15544,-0.111 0.41987,-0.4919 0.1608,-0.6724 -0.25906,-0.1806 -5.00133,-3.8573 -5.62305,-4.1682 -0.62172,-0.3109 -1.03249,-0.4996 -1.33226,-0.5329 -0.29975,-0.033 -0.5551,-0.1443 -0.47739,-0.322 0.0777,-0.1776 0.47739,-1.9873 0.47739,-2.2426 0,-0.2554 0.29977,-0.966 -0.26644,-1.3434 -0.56622,-0.3775 -1.74304,-0.4774 -2.24264,-0.5107 -0.49959,-0.033 -1.25454,0.4774 -1.5876,0.7771 -0.33307,0.2998 -0.86598,0.8216 -0.82156,1.1325 0.0444,0.3108 1.06581,1.2989 1.46549,1.5987 0.39967,0.2998 1.1324,1.0658 1.25453,1.2213 0.12213,0.1554 0.13322,0.1998 -0.24425,0.3663 -0.37747,0.1666 -1.04359,0.1555 -1.43217,0.8105 -0.38857,0.655 -0.94369,3.0753 -0.98809,3.6527 -0.0444,0.5773 -0.16952,1.0444 -0.0753,1.17 0.0942,0.1256 0.67484,0.5508 0.83027,0.7062 0.15543,0.1555 0.15543,0.644 0.15543,0.8216 0,0.1777 0.0888,7.2609 0.13322,7.4608 0.0444,0.1998 0.53291,0.3997 0.77715,0.6661 0.24424,0.2665 0.5329,0.3775 0.66613,0.9104 0.13322,0.5329 0.37748,5.5067 0.35527,5.7288 -0.0222,0.222 -3.15301,1.7764 -3.15301,1.7764 0,0 -0.0721,0.028 -0.10548,0.067 -0.0333,0.039 -0.0666,0.1276 0.18319,0.1221 0.2498,-0.01 3.70257,-0.3386 3.85245,-0.3997 0.14988,-0.061 0.42743,-0.033 0.43853,-1.2323 0.0111,-1.1991 0.26308,-5.4479 0.26308,-5.6284 0,-0.1806 0.12561,-0.5496 0.28261,-0.4318 0.15701,0.1178 1.65809,3.7731 1.83572,4.1506 0.17764,0.3774 0.15544,0.6439 0.22205,1.1768 0.0666,0.5329 0.0666,3.0309 0.11102,3.2197 0.0444,0.1887 0.18873,0.8326 0.46629,1.2767 0.27755,0.4441 0.59951,0.9326 0.87707,0.9659 0.27755,0.033 0.59951,-0.3441 0.5551,-0.6328 -0.0444,-0.2887 -0.93258,-1.4544 -1.0658,-1.7653 -0.13322,-0.3108 -0.12213,-1.3766 -0.12213,-1.3766 z"
         id="path3071"
         inkscape:connector-curvature="0"
         sodipodi:nodetypes="ccscccscccssscssscssssssscssssssccscssssssscssc" />
      <path
         sodipodi:nodetypes="ccscccscccssscssscssssssscssssssccscssssssscssc"
         inkscape:connector-curvature="0"
         id="path3073"
         d="m 375.25994,1122.6079 -0.29388,-12.4167 c 0,0 0,-7.2002 -0.51431,-9.5513 -0.51429,-2.3511 -0.51429,-3.7471 -0.51429,-3.7471 l 1.68983,-1.102 -0.14692,-5.3635 c 0,0 0.13319,-0.5178 0.6787,-0.206 0.54548,0.3117 2.36379,1.5066 2.36379,1.5066 l -2.95149,2.0449 0.0541,1.9671 c 0,0 6.28357,-3.586 6.5407,-3.7697 0.25716,-0.1837 0.69464,-0.8138 0.26603,-1.1125 -0.42859,-0.2987 -8.27432,-6.3816 -9.30291,-6.8959 -1.02859,-0.5143 -1.70818,-0.8266 -2.20413,-0.8817 -0.49591,-0.055 -0.91837,-0.2388 -0.7898,-0.5326 0.12855,-0.2939 0.7898,-3.2879 0.7898,-3.7104 0,-0.4224 0.49595,-1.598 -0.4408,-2.2225 -0.93677,-0.6245 -2.88373,-0.7898 -3.71028,-0.8449 -0.82653,-0.055 -2.07554,0.7898 -2.62656,1.2857 -0.55104,0.496 -1.4327,1.3593 -1.35921,1.8736 0.0735,0.5143 1.7633,2.149 2.42454,2.645 0.66122,0.4959 1.87347,1.7633 2.07553,2.0204 0.20205,0.2572 0.2204,0.3307 -0.4041,0.6062 -0.62449,0.2755 -1.72654,0.2571 -2.36942,1.3408 -0.64285,1.0837 -1.56126,5.0879 -1.63472,6.0431 -0.0734,0.9551 -0.28045,1.7279 -0.12457,1.9357 0.15584,0.2079 1.11647,0.9113 1.37362,1.1685 0.25714,0.2571 0.25714,1.0653 0.25714,1.3592 0,0.2939 0.14692,12.0126 0.22041,12.3433 0.0734,0.3306 0.88165,0.6612 1.28573,1.102 0.40408,0.4409 0.88164,0.6245 1.10206,1.5062 0.22041,0.8817 0.62452,9.1105 0.58777,9.4778 -0.0367,0.3674 -5.21642,2.9389 -5.21642,2.9389 0,0 -0.11928,0.046 -0.17451,0.1102 -0.0551,0.064 -0.11018,0.2112 0.30308,0.202 0.41327,-0.01 6.12562,-0.5602 6.37359,-0.6612 0.24796,-0.1009 0.70715,-0.055 0.72551,-2.0389 0.0184,-1.9837 0.43525,-9.0129 0.43525,-9.3116 0,-0.2988 0.20781,-0.9092 0.46755,-0.7144 0.25977,0.1948 2.74319,6.2423 3.03706,6.8668 0.2939,0.6245 0.25717,1.0653 0.36737,1.947 0.11018,0.8816 0.11018,5.0144 0.18367,5.3266 0.0735,0.3124 0.31224,1.3776 0.77145,2.1124 0.45918,0.7347 0.99184,1.5429 1.45104,1.598 0.45919,0.055 0.99185,-0.5695 0.91837,-1.0469 -0.0734,-0.4777 -1.54288,-2.4062 -1.76328,-2.9206 -0.22041,-0.5144 -0.20206,-2.2776 -0.20206,-2.2776 z"
         style="fill:#399d2d;fill-opacity:1;stroke:none" />
    </g>
    <flowRoot
       xml:space="preserve"
       id="flowRoot3406"
       style="font-size:20px;font-style:normal;font-weight:normal;line-height:125%;letter-spacing:0px;word-spacing:0px;fill:#000000;fill-opacity:1;stroke:none;font-family:Sans"><flowRegion
         id="flowRegion3408"><rect
           id="rect3410"
           width="89.499992"
           height="103.49999"
           x="281.5"
           y="84.637398" /></flowRegion><flowPara
         id="flowPara3412" /></flowRoot>    <path
       sodipodi:nodetypes="ccscccscccssscssscssssssscssssssccscssssssscssc"
       inkscape:connector-curvature="0"
       id="path3414"
       d="m 430.22943,952.15013 -0.48971,-20.69027 c 0,0 0,-11.99792 -0.85699,-15.91562 -0.85698,-3.91768 -0.85698,-6.2438 -0.85698,-6.2438 l 2.8158,-1.83642 -0.24485,-8.93724 c 0,0 0.22194,-0.86273 1.13091,-0.3433 0.90897,0.51941 3.93885,2.51051 3.93885,2.51051 l -4.91812,3.40746 0.0901,3.27792 c 0,0 10.47046,-5.97552 10.89894,-6.2816 0.4285,-0.30606 1.15747,-1.35604 0.44328,-1.85382 -0.71419,-0.49777 -13.78769,-10.6338 -15.50164,-11.49079 -1.71396,-0.857 -2.84641,-1.37732 -3.67278,-1.46914 -0.82638,-0.0918 -1.53033,-0.39789 -1.31608,-0.88761 0.21424,-0.4897 1.31608,-5.47863 1.31608,-6.18259 0,-0.70396 0.82637,-2.66281 -0.73456,-3.70344 -1.56093,-1.04064 -4.80521,-1.31611 -6.1825,-1.40793 -1.37729,-0.0918 -3.45853,1.31611 -4.37672,2.14249 -0.91821,0.8264 -2.38731,2.26492 -2.26488,3.12191 0.12242,0.85699 2.93822,3.58101 4.04006,4.4074 1.10182,0.82639 3.12184,2.93828 3.45852,3.36677 0.33667,0.4285 0.36727,0.55092 -0.67335,1.01002 -1.04061,0.45911 -2.87699,0.42849 -3.94822,2.2343 -1.07122,1.80582 -2.60156,8.47813 -2.72398,10.06969 -0.12242,1.59156 -0.46733,2.87933 -0.20764,3.2256 0.25972,0.34628 1.8604,1.51847 2.28888,1.94696 0.4285,0.42851 0.4285,1.77521 0.4285,2.26493 0,0.4897 0.24484,20.01692 0.36727,20.56786 0.12242,0.55092 1.46911,1.10184 2.14245,1.83641 0.67334,0.73457 1.46911,1.04063 1.83638,2.50976 0.36728,1.46915 1.04063,15.18105 0.97941,15.79319 -0.0612,0.61213 -8.69224,4.8971 -8.69224,4.8971 0,0 -0.19893,0.0765 -0.29076,0.18364 -0.0918,0.10718 -0.18363,0.35198 0.50501,0.33668 0.68865,-0.0153 10.20725,-0.93351 10.62045,-1.10185 0.41318,-0.16833 1.17834,-0.0918 1.20894,-3.39736 0.0306,-3.30556 0.72526,-15.01858 0.72526,-15.51634 0,-0.49779 0.34628,-1.51497 0.77911,-1.19034 0.43285,0.32463 4.57102,10.40164 5.06073,11.44228 0.48969,1.04064 0.42849,1.7752 0.61213,3.24434 0.18363,1.46913 0.18363,8.35568 0.30606,8.87601 0.12242,0.52031 0.5203,2.29551 1.28546,3.5198 0.76517,1.22427 1.65276,2.57098 2.41792,2.6628 0.76516,0.0918 1.65275,-0.94881 1.53032,-1.74461 -0.12242,-0.79577 -2.57095,-4.0095 -2.93822,-4.86649 -0.36727,-0.85699 -0.33667,-3.79527 -0.33668,-3.79527 z"
       style="fill:#399d2d;fill-opacity:1;stroke:none" />
    <g
       id="g3440"
       transform="matrix(0.78672506,0,0,0.81464783,-88.951571,138.29133)">
      <path
         style="fill:none;stroke:#828282;stroke-width:1px;stroke-linecap:butt;stroke-linejoin:miter;stroke-opacity:1"
         d="m 383.5,419.8017 -38.25,-27.5 23.25,3 39.75,-22.75 -30.5,-19.25 -32.5,-0.75 25.75,37 9,-37.75 30.25,-2.25 20,-8.5"
         id="path3416"
         inkscape:connector-curvature="0"
         transform="translate(146.50183,547.77948)" />
      <path
         style="fill:none;stroke:#828282;stroke-width:1px;stroke-linecap:butt;stroke-linejoin:miter;stroke-opacity:1"
         d="m 378.5,351.8017 -46.25,29.5"
         id="path3418"
         inkscape:connector-curvature="0"
         transform="translate(146.50183,547.77948)" />
      <path
         style="fill:none;stroke:#828282;stroke-width:1px;stroke-linecap:butt;stroke-linejoin:miter;stroke-opacity:1"
         d="m 345.25,352.5517 -11,14.75"
         id="path3420"
         inkscape:connector-curvature="0"
         transform="translate(146.50183,547.77948)" />
      <path
         style="fill:none;stroke:#828282;stroke-width:1px;stroke-linecap:butt;stroke-linejoin:miter;stroke-opacity:1"
         d="m 392,420.3017 -22.25,-27.5"
         id="path3422"
         inkscape:connector-curvature="0"
         transform="translate(146.50183,547.77948)" />
      <path
         style="fill:none;stroke:#828282;stroke-width:1px;stroke-linecap:butt;stroke-linejoin:miter;stroke-opacity:1"
         d="m 423.25,360.8017 -14.25,9.25 11.5,15"
         id="path3424"
         inkscape:connector-curvature="0"
         transform="translate(146.50183,547.77948)" />
      <path
         style="fill:#79aef1;fill-opacity:1;stroke:none"
         d="m 495.76844,911.66063 -0.17763,-7.50516 c 0,0 0,-4.35211 -0.31087,-5.77321 -0.31086,-1.42109 -0.31086,-2.26487 -0.31086,-2.26487 l 1.0214,-0.66613 -0.0888,-3.24189 c 0,0 0.0805,-0.31295 0.41023,-0.12453 0.32971,0.18841 1.42877,0.91066 1.42877,0.91066 l -1.784,1.23602 0.0327,1.18903 c 0,0 3.79804,-2.16755 3.95346,-2.27858 0.15544,-0.11102 0.41987,-0.49189 0.1608,-0.67245 -0.25906,-0.18056 -5.00133,-3.85729 -5.62305,-4.16815 -0.62172,-0.31087 -1.03249,-0.49961 -1.33226,-0.53292 -0.29975,-0.0333 -0.5551,-0.14433 -0.47739,-0.32197 0.0777,-0.17764 0.47739,-1.98731 0.47739,-2.24266 0,-0.25536 0.29977,-0.96591 -0.26644,-1.34339 -0.56622,-0.37748 -1.74304,-0.4774 -2.24264,-0.51071 -0.49959,-0.0333 -1.25454,0.47741 -1.5876,0.77717 -0.33307,0.29976 -0.86598,0.82157 -0.82156,1.13243 0.0444,0.31087 1.06581,1.29897 1.46549,1.59874 0.39967,0.29976 1.1324,1.06583 1.25453,1.22126 0.12213,0.15543 0.13322,0.19984 -0.24425,0.36637 -0.37747,0.16654 -1.04359,0.15543 -1.43217,0.81046 -0.38857,0.65505 -0.94369,3.07535 -0.98809,3.65267 -0.0444,0.57732 -0.16952,1.04445 -0.0753,1.17005 0.0942,0.12561 0.67484,0.5508 0.83027,0.70624 0.15543,0.15543 0.15543,0.64394 0.15543,0.82158 0,0.17763 0.0888,7.2609 0.13322,7.46075 0.0444,0.19984 0.53291,0.39968 0.77715,0.66614 0.24424,0.26645 0.5329,0.37748 0.66613,0.91038 0.13322,0.53293 0.37748,5.50675 0.35527,5.7288 -0.0222,0.22205 -3.15301,1.77637 -3.15301,1.77637 0,0 -0.0721,0.0277 -0.10548,0.0666 -0.0333,0.0389 -0.0666,0.12768 0.18319,0.12213 0.2498,-0.006 3.70257,-0.33862 3.85245,-0.39968 0.14988,-0.061 0.42743,-0.0333 0.43853,-1.23236 0.0111,-1.19905 0.26308,-5.44781 0.26308,-5.62837 0,-0.18057 0.12561,-0.54954 0.28261,-0.43178 0.15701,0.11775 1.65809,3.77307 1.83572,4.15056 0.17764,0.37748 0.15544,0.64392 0.22205,1.17684 0.0666,0.53291 0.0666,3.03093 0.11102,3.21967 0.0444,0.18874 0.18873,0.83267 0.46629,1.27677 0.27755,0.44409 0.59951,0.93259 0.87707,0.9659 0.27755,0.0333 0.59951,-0.34417 0.5551,-0.63284 -0.0444,-0.28866 -0.93258,-1.4544 -1.0658,-1.76527 -0.13322,-0.31086 -0.12213,-1.37668 -0.12213,-1.37668 z"
         id="path3426"
         inkscape:connector-curvature="0"
         sodipodi:nodetypes="ccscccscccssscssscssssssscssssssccscssssssscssc" />
      <path
         style="fill:#79aef1;fill-opacity:1;stroke:none"
         d="m 522.52311,911.66081 0.17763,-7.50514 c 0,0 0,-4.3521 0.31087,-5.77319 0.31086,-1.42109 0.31086,-2.26487 0.31086,-2.26487 l -1.02141,-0.66613 0.0888,-3.24187 c 0,0 -0.0805,-0.31295 -0.41023,-0.12454 -0.32972,0.18841 -1.42879,0.91066 -1.42879,0.91066 l 1.78401,1.23602 -0.0327,1.18902 c 0,0 -3.79809,-2.16755 -3.95352,-2.27857 -0.15543,-0.11102 -0.41986,-0.49189 -0.1608,-0.67245 0.25907,-0.18056 5.00139,-3.85729 5.62312,-4.16814 0.62174,-0.31087 1.03251,-0.49961 1.33228,-0.53292 0.29976,-0.0333 0.55511,-0.14433 0.4774,-0.32196 -0.0777,-0.17764 -0.4774,-1.98731 -0.4774,-2.24267 0,-0.25535 -0.29977,-0.9659 0.26645,-1.34337 0.56622,-0.37748 1.74306,-0.4774 2.24267,-0.51071 0.4996,-0.0333 1.25456,0.47741 1.58763,0.77716 0.33306,0.29976 0.86597,0.82157 0.82156,1.13243 -0.0444,0.31087 -1.06582,1.29897 -1.4655,1.59874 -0.39968,0.29976 -1.13243,1.06582 -1.25456,1.22125 -0.12212,0.15543 -0.13322,0.19984 0.24425,0.36637 0.37748,0.16653 1.04362,0.15543 1.4322,0.81047 0.38858,0.65504 0.94369,3.07533 0.9881,3.65265 0.0444,0.57732 0.16953,1.04445 0.0754,1.17005 -0.0942,0.12561 -0.67484,0.5508 -0.83027,0.70624 -0.15543,0.15543 -0.15543,0.64393 -0.15543,0.82157 0,0.17764 -0.0888,7.26089 -0.13323,7.46074 -0.0444,0.19984 -0.5329,0.39967 -0.77716,0.66613 -0.24425,0.26646 -0.53291,0.37748 -0.66614,0.91038 -0.13322,0.53292 -0.37747,5.50674 -0.35527,5.72878 0.0222,0.22205 3.15305,1.77637 3.15305,1.77637 0,0 0.0721,0.0277 0.10547,0.0666 0.0333,0.0388 0.0666,0.12768 -0.18319,0.12213 -0.2498,-0.005 -3.70261,-0.33862 -3.85249,-0.39968 -0.14988,-0.061 -0.42744,-0.0333 -0.43854,-1.23236 -0.0111,-1.19904 -0.26308,-5.44779 -0.26308,-5.62836 0,-0.18056 -0.12561,-0.54953 -0.28262,-0.43177 -0.157,0.11775 -1.6581,3.77307 -1.83574,4.15054 -0.17763,0.37748 -0.15543,0.64394 -0.22205,1.17684 -0.0666,0.53292 -0.0666,3.03093 -0.11102,3.21967 -0.0444,0.18873 -0.18874,0.83267 -0.46629,1.27676 -0.27756,0.44409 -0.59953,0.93259 -0.87708,0.96589 -0.27756,0.0333 -0.59953,-0.34416 -0.55512,-0.63282 0.0444,-0.28867 0.93259,-1.4544 1.06582,-1.76526 0.13323,-0.31087 0.12213,-1.37669 0.12213,-1.37669 z"
         id="path3428"
         inkscape:connector-curvature="0"
         sodipodi:nodetypes="ccscccscccssscssscssssssscssssssccscssssssscssc" />
      <path
         sodipodi:nodetypes="ccscccscccssscssscssssssscssssssccscssssssscssc"
         inkscape:connector-curvature="0"
         id="path3430"
         d="m 553.89811,909.03581 0.17763,-7.50514 c 0,0 0,-4.3521 0.31087,-5.77319 0.31086,-1.42109 0.31086,-2.26487 0.31086,-2.26487 l -1.02141,-0.66613 0.0888,-3.24187 c 0,0 -0.0805,-0.31295 -0.41023,-0.12454 -0.32972,0.18841 -1.42879,0.91066 -1.42879,0.91066 l 1.78401,1.23602 -0.0327,1.18902 c 0,0 -3.79809,-2.16755 -3.95352,-2.27857 -0.15543,-0.11102 -0.41986,-0.49189 -0.1608,-0.67245 0.25907,-0.18056 5.00139,-3.85729 5.62312,-4.16814 0.62174,-0.31087 1.03251,-0.49961 1.33228,-0.53292 0.29976,-0.0333 0.55511,-0.14433 0.4774,-0.32196 -0.0777,-0.17764 -0.4774,-1.98731 -0.4774,-2.24267 0,-0.25535 -0.29977,-0.9659 0.26645,-1.34337 0.56622,-0.37748 1.74306,-0.4774 2.24267,-0.51071 0.4996,-0.0333 1.25456,0.47741 1.58763,0.77716 0.33306,0.29976 0.86597,0.82157 0.82156,1.13243 -0.0444,0.31087 -1.06582,1.29897 -1.4655,1.59874 -0.39968,0.29976 -1.13243,1.06582 -1.25456,1.22125 -0.12212,0.15543 -0.13322,0.19984 0.24425,0.36637 0.37748,0.16653 1.04362,0.15543 1.4322,0.81047 0.38858,0.65504 0.94369,3.07533 0.9881,3.65265 0.0444,0.57732 0.16953,1.04445 0.0754,1.17005 -0.0942,0.12561 -0.67484,0.5508 -0.83027,0.70624 -0.15543,0.15543 -0.15543,0.64393 -0.15543,0.82157 0,0.17764 -0.0888,7.26089 -0.13323,7.46074 -0.0444,0.19984 -0.5329,0.39967 -0.77716,0.66613 -0.24425,0.26646 -0.53291,0.37748 -0.66614,0.91038 -0.13322,0.53292 -0.37747,5.50674 -0.35527,5.72878 0.0222,0.22205 3.15305,1.77637 3.15305,1.77637 0,0 0.0721,0.0277 0.10547,0.0666 0.0333,0.0388 0.0666,0.12768 -0.18319,0.12213 -0.2498,-0.005 -3.70261,-0.33862 -3.85249,-0.39968 -0.14988,-0.061 -0.42744,-0.0333 -0.43854,-1.23236 -0.0111,-1.19904 -0.26308,-5.44779 -0.26308,-5.62836 0,-0.18056 -0.12561,-0.54953 -0.28262,-0.43177 -0.157,0.11775 -1.6581,3.77307 -1.83574,4.15054 -0.17763,0.37748 -0.15543,0.64394 -0.22205,1.17684 -0.0666,0.53292 -0.0666,3.03093 -0.11102,3.21967 -0.0444,0.18873 -0.18874,0.83267 -0.46629,1.27676 -0.27756,0.44409 -0.59953,0.93259 -0.87708,0.96589 -0.27756,0.0333 -0.59953,-0.34416 -0.55512,-0.63282 0.0444,-0.28867 0.93259,-1.4544 1.06582,-1.76526 0.13323,-0.31087 0.12213,-1.37669 0.12213,-1.37669 z"
         style="fill:#79aef1;fill-opacity:1;stroke:none" />
      <path
         style="fill:#79aef1;fill-opacity:1;stroke:none"
         d="m 513.64811,951.41081 0.17763,-7.50514 c 0,0 0,-4.3521 0.31087,-5.77319 0.31086,-1.42109 0.31086,-2.26487 0.31086,-2.26487 l -1.02141,-0.66613 0.0888,-3.24187 c 0,0 -0.0805,-0.31295 -0.41023,-0.12454 -0.32972,0.18841 -1.42879,0.91066 -1.42879,0.91066 l 1.78401,1.23602 -0.0327,1.18902 c 0,0 -3.79809,-2.16755 -3.95352,-2.27857 -0.15543,-0.11102 -0.41986,-0.49189 -0.1608,-0.67245 0.25907,-0.18056 5.00139,-3.85729 5.62312,-4.16814 0.62174,-0.31087 1.03251,-0.49961 1.33228,-0.53292 0.29976,-0.0333 0.55511,-0.14433 0.4774,-0.32196 -0.0777,-0.17764 -0.4774,-1.98731 -0.4774,-2.24267 0,-0.25535 -0.29977,-0.9659 0.26645,-1.34337 0.56622,-0.37748 1.74306,-0.4774 2.24267,-0.51071 0.4996,-0.0333 1.25456,0.47741 1.58763,0.77716 0.33306,0.29976 0.86597,0.82157 0.82156,1.13243 -0.0444,0.31087 -1.06582,1.29897 -1.4655,1.59874 -0.39968,0.29976 -1.13243,1.06582 -1.25456,1.22125 -0.12212,0.15543 -0.13322,0.19984 0.24425,0.36637 0.37748,0.16653 1.04362,0.15543 1.4322,0.81047 0.38858,0.65504 0.94369,3.07533 0.9881,3.65265 0.0444,0.57732 0.16953,1.04445 0.0754,1.17005 -0.0942,0.12561 -0.67484,0.5508 -0.83027,0.70624 -0.15543,0.15543 -0.15543,0.64393 -0.15543,0.82157 0,0.17764 -0.0888,7.26089 -0.13323,7.46074 -0.0444,0.19984 -0.5329,0.39967 -0.77716,0.66613 -0.24425,0.26646 -0.53291,0.37748 -0.66614,0.91038 -0.13322,0.53292 -0.37747,5.50674 -0.35527,5.72878 0.0222,0.22205 3.15305,1.77637 3.15305,1.77637 0,0 0.0721,0.0277 0.10547,0.0666 0.0333,0.0388 0.0666,0.12768 -0.18319,0.12213 -0.2498,-0.005 -3.70261,-0.33862 -3.85249,-0.39968 -0.14988,-0.061 -0.42744,-0.0333 -0.43854,-1.23236 -0.0111,-1.19904 -0.26308,-5.44779 -0.26308,-5.62836 0,-0.18056 -0.12561,-0.54953 -0.28262,-0.43177 -0.157,0.11775 -1.6581,3.77307 -1.83574,4.15054 -0.17763,0.37748 -0.15543,0.64394 -0.22205,1.17684 -0.0666,0.53292 -0.0666,3.03093 -0.11102,3.21967 -0.0444,0.18873 -0.18874,0.83267 -0.46629,1.27676 -0.27756,0.44409 -0.59953,0.93259 -0.87708,0.96589 -0.27756,0.0333 -0.59953,-0.34416 -0.55512,-0.63282 0.0444,-0.28867 0.93259,-1.4544 1.06582,-1.76526 0.13323,-0.31087 0.12213,-1.37669 0.12213,-1.37669 z"
         id="path3432"
         inkscape:connector-curvature="0"
         sodipodi:nodetypes="ccscccscccssscssscssssssscssssssccscssssssscssc" />
      <path
         sodipodi:nodetypes="ccscccscccssscssscssssssscssssssccscssssssscssc"
         inkscape:connector-curvature="0"
         id="path3434"
         d="m 496.26844,955.16063 -0.17763,-7.50516 c 0,0 0,-4.35211 -0.31087,-5.77321 -0.31086,-1.42109 -0.31086,-2.26487 -0.31086,-2.26487 l 1.0214,-0.66613 -0.0888,-3.24189 c 0,0 0.0805,-0.31295 0.41023,-0.12453 0.32971,0.18841 1.42877,0.91066 1.42877,0.91066 l -1.784,1.23602 0.0327,1.18903 c 0,0 3.79804,-2.16755 3.95346,-2.27858 0.15544,-0.11102 0.41987,-0.49189 0.1608,-0.67245 -0.25906,-0.18056 -5.00133,-3.85729 -5.62305,-4.16815 -0.62172,-0.31087 -1.03249,-0.49961 -1.33226,-0.53292 -0.29975,-0.0333 -0.5551,-0.14433 -0.47739,-0.32197 0.0777,-0.17764 0.47739,-1.98731 0.47739,-2.24266 0,-0.25536 0.29977,-0.96591 -0.26644,-1.34339 -0.56622,-0.37748 -1.74304,-0.4774 -2.24264,-0.51071 -0.49959,-0.0333 -1.25454,0.47741 -1.5876,0.77717 -0.33307,0.29976 -0.86598,0.82157 -0.82156,1.13243 0.0444,0.31087 1.06581,1.29897 1.46549,1.59874 0.39967,0.29976 1.1324,1.06583 1.25453,1.22126 0.12213,0.15543 0.13322,0.19984 -0.24425,0.36637 -0.37747,0.16654 -1.04359,0.15543 -1.43217,0.81046 -0.38857,0.65505 -0.94369,3.07535 -0.98809,3.65267 -0.0444,0.57732 -0.16952,1.04445 -0.0753,1.17005 0.0942,0.12561 0.67484,0.5508 0.83027,0.70624 0.15543,0.15543 0.15543,0.64394 0.15543,0.82158 0,0.17763 0.0888,7.2609 0.13322,7.46075 0.0444,0.19984 0.53291,0.39968 0.77715,0.66614 0.24424,0.26645 0.5329,0.37748 0.66613,0.91038 0.13322,0.53293 0.37748,5.50675 0.35527,5.7288 -0.0222,0.22205 -3.15301,1.77637 -3.15301,1.77637 0,0 -0.0721,0.0277 -0.10548,0.0666 -0.0333,0.0389 -0.0666,0.12768 0.18319,0.12213 0.2498,-0.006 3.70257,-0.33862 3.85245,-0.39968 0.14988,-0.061 0.42743,-0.0333 0.43853,-1.23236 0.0111,-1.19905 0.26308,-5.44781 0.26308,-5.62837 0,-0.18057 0.12561,-0.54954 0.28261,-0.43178 0.15701,0.11775 1.65809,3.77307 1.83572,4.15056 0.17764,0.37748 0.15544,0.64392 0.22205,1.17684 0.0666,0.53291 0.0666,3.03093 0.11102,3.21967 0.0444,0.18874 0.18873,0.83267 0.46629,1.27677 0.27755,0.44409 0.59951,0.93259 0.87707,0.9659 0.27755,0.0333 0.59951,-0.34417 0.5551,-0.63284 -0.0444,-0.28866 -0.93258,-1.4544 -1.0658,-1.76527 -0.13322,-0.31086 -0.12213,-1.37668 -0.12213,-1.37668 z"
         style="fill:#79aef1;fill-opacity:1;stroke:none" />
      <path
         style="fill:#79aef1;fill-opacity:1;stroke:none"
         d="m 560.14344,935.91063 -0.17763,-7.50516 c 0,0 0,-4.35211 -0.31087,-5.77321 -0.31086,-1.42109 -0.31086,-2.26487 -0.31086,-2.26487 l 1.0214,-0.66613 -0.0888,-3.24189 c 0,0 0.0805,-0.31295 0.41023,-0.12453 0.32971,0.18841 1.42877,0.91066 1.42877,0.91066 l -1.784,1.23602 0.0327,1.18903 c 0,0 3.79804,-2.16755 3.95346,-2.27858 0.15544,-0.11102 0.41987,-0.49189 0.1608,-0.67245 -0.25906,-0.18056 -5.00133,-3.85729 -5.62305,-4.16815 -0.62172,-0.31087 -1.03249,-0.49961 -1.33226,-0.53292 -0.29975,-0.0333 -0.5551,-0.14433 -0.47739,-0.32197 0.0777,-0.17764 0.47739,-1.98731 0.47739,-2.24266 0,-0.25536 0.29977,-0.96591 -0.26644,-1.34339 -0.56622,-0.37748 -1.74304,-0.4774 -2.24264,-0.51071 -0.49959,-0.0333 -1.25454,0.47741 -1.5876,0.77717 -0.33307,0.29976 -0.86598,0.82157 -0.82156,1.13243 0.0444,0.31087 1.06581,1.29897 1.46549,1.59874 0.39967,0.29976 1.1324,1.06583 1.25453,1.22126 0.12213,0.15543 0.13322,0.19984 -0.24425,0.36637 -0.37747,0.16654 -1.04359,0.15543 -1.43217,0.81046 -0.38857,0.65505 -0.94369,3.07535 -0.98809,3.65267 -0.0444,0.57732 -0.16952,1.04445 -0.0753,1.17005 0.0942,0.12561 0.67484,0.5508 0.83027,0.70624 0.15543,0.15543 0.15543,0.64394 0.15543,0.82158 0,0.17763 0.0888,7.2609 0.13322,7.46075 0.0444,0.19984 0.53291,0.39968 0.77715,0.66614 0.24424,0.26645 0.5329,0.37748 0.66613,0.91038 0.13322,0.53293 0.37748,5.50675 0.35527,5.7288 -0.0222,0.22205 -3.15301,1.77637 -3.15301,1.77637 0,0 -0.0721,0.0277 -0.10548,0.0666 -0.0333,0.0389 -0.0666,0.12768 0.18319,0.12213 0.2498,-0.006 3.70257,-0.33862 3.85245,-0.39968 0.14988,-0.061 0.42743,-0.0333 0.43853,-1.23236 0.0111,-1.19905 0.26308,-5.44781 0.26308,-5.62837 0,-0.18057 0.12561,-0.54954 0.28261,-0.43178 0.15701,0.11775 1.65809,3.77307 1.83572,4.15056 0.17764,0.37748 0.15544,0.64392 0.22205,1.17684 0.0666,0.53291 0.0666,3.03093 0.11102,3.21967 0.0444,0.18874 0.18873,0.83267 0.46629,1.27677 0.27755,0.44409 0.59951,0.93259 0.87707,0.9659 0.27755,0.0333 0.59951,-0.34417 0.5551,-0.63284 -0.0444,-0.28866 -0.93258,-1.4544 -1.0658,-1.76527 -0.13322,-0.31086 -0.12213,-1.37668 -0.12213,-1.37668 z"
         id="path3436"
         inkscape:connector-curvature="0"
         sodipodi:nodetypes="ccscccscccssscssscssssssscssssssccscssssssscssc" />
      <path
         sodipodi:nodetypes="ccscccscccssscssscssssssscssssssccscssssssscssc"
         inkscape:connector-curvature="0"
         id="path3438"
         d="m 533.47496,1001.5161 0.29388,-12.41653 c 0,0 0,-7.20015 0.5143,-9.55121 0.51429,-2.35106 0.51429,-3.74702 0.51429,-3.74702 l -1.68983,-1.10205 0.14691,-5.36338 c 0,0 -0.13318,-0.51774 -0.67868,-0.20604 -0.5455,0.31171 -2.3638,1.50661 -2.3638,1.50661 l 2.95148,2.04488 -0.0541,1.96712 c 0,0 -6.28359,-3.58601 -6.54074,-3.76968 -0.25714,-0.18367 -0.69462,-0.81379 -0.26603,-1.11251 0.42861,-0.29872 8.27434,-6.38153 9.30294,-6.8958 1.02861,-0.51431 1.70819,-0.82656 2.20413,-0.88167 0.49593,-0.0551 0.91838,-0.23878 0.78981,-0.53265 -0.12854,-0.29389 -0.78981,-3.28782 -0.78981,-3.71029 0,-0.42245 -0.49594,-1.59799 0.44082,-2.22248 0.93676,-0.62451 2.88373,-0.78982 3.71029,-0.84493 0.82654,-0.0551 2.07555,0.78983 2.62659,1.28574 0.55101,0.49593 1.43266,1.35922 1.35919,1.8735 -0.0734,0.51431 -1.7633,2.14903 -2.42453,2.64497 -0.66124,0.49593 -1.8735,1.7633 -2.07556,2.02045 -0.20203,0.25714 -0.2204,0.33061 0.40409,0.60612 0.62451,0.27551 1.72657,0.25715 2.36944,1.34085 0.64287,1.0837 1.56125,5.08785 1.63472,6.04297 0.0735,0.95513 0.28048,1.72795 0.12475,1.93574 -0.15585,0.20781 -1.11646,0.91125 -1.37361,1.16841 -0.25714,0.25715 -0.25714,1.06532 -0.25714,1.35921 0,0.29389 -0.14691,12.01248 -0.22042,12.34311 -0.0735,0.33062 -0.88163,0.66122 -1.28574,1.10205 -0.40409,0.44083 -0.88165,0.62451 -1.10207,1.50614 -0.2204,0.88167 -0.62449,9.11037 -0.58776,9.47777 0.0367,0.3673 5.21643,2.9388 5.21643,2.9388 0,0 0.11929,0.046 0.17449,0.1102 0.0551,0.064 0.11019,0.2112 -0.30307,0.202 -0.41327,-0.01 -6.12562,-0.5602 -6.37359,-0.6612 -0.24796,-0.1009 -0.70716,-0.055 -0.72552,-2.0388 -0.0184,-1.9837 -0.43524,-9.01288 -0.43524,-9.31162 0,-0.29872 -0.20781,-0.90914 -0.46757,-0.71432 -0.25974,0.19481 -2.74317,6.2422 -3.03706,6.86668 -0.29388,0.62451 -0.25715,1.06536 -0.36737,1.94696 -0.11018,0.8817 -0.11018,5.0144 -0.18367,5.3267 -0.0734,0.3122 -0.31225,1.3775 -0.77143,2.1122 -0.4592,0.7347 -0.99187,1.5429 -1.45105,1.598 -0.4592,0.055 -0.99187,-0.5694 -0.91839,-1.0469 0.0734,-0.4776 1.54288,-2.4062 1.7633,-2.9205 0.22041,-0.5143 0.20205,-2.2776 0.20205,-2.2776 z"
         style="fill:#79aef1;fill-opacity:1;stroke:none" />
    </g>
  </g>
</svg>
