<?xml version="1.0" encoding="UTF-8" standalone="no"?>
<svg
   xmlns:dc="http://purl.org/dc/elements/1.1/"
   xmlns:cc="http://creativecommons.org/ns#"
   xmlns:rdf="http://www.w3.org/1999/02/22-rdf-syntax-ns#"
   xmlns:svg="http://www.w3.org/2000/svg"
   xmlns="http://www.w3.org/2000/svg"
   xmlns:sodipodi="http://sodipodi.sourceforge.net/DTD/sodipodi-0.dtd"
   xmlns:inkscape="http://www.inkscape.org/namespaces/inkscape"
   version="1.0"
   width="601.01379mm"
   height="305.2114mm"
   viewBox="0 0 1703.6611 865.16614"
   preserveAspectRatio="xMidYMid meet"
   id="svg2"
   inkscape:version="0.91 r13725"
   sodipodi:docname="Starbucks.svg">
  <defs
     id="defs138" />
  <sodipodi:namedview
     pagecolor="#ffffff"
     bordercolor="#666666"
     borderopacity="1"
     objecttolerance="10"
     gridtolerance="10"
     guidetolerance="10"
     inkscape:pageopacity="0"
     inkscape:pageshadow="2"
     inkscape:window-width="960"
     inkscape:window-height="1020"
     id="namedview136"
     showgrid="false"
     inkscape:zoom="0.21478953"
     inkscape:cx="1434.4821"
     inkscape:cy="-129.57315"
     inkscape:window-x="0"
     inkscape:window-y="27"
     inkscape:window-maximized="0"
     inkscape:current-layer="svg2"
     units="mm"
     fit-margin-top="15"
     fit-margin-left="3"
     fit-margin-bottom="3"
     fit-margin-right="3" />
  <metadata
     id="metadata4">
Created by potrace 1.10, written by Peter Selinger 2001-2011
<rdf:RDF>
  <cc:Work
     rdf:about="">
    <dc:format>image/svg+xml</dc:format>
    <dc:type
       rdf:resource="http://purl.org/dc/dcmitype/StillImage" />
    <dc:title></dc:title>
  </cc:Work>
</rdf:RDF>
</metadata>
  <path
     inkscape:connector-curvature="0"
     id="_85613576"
     style="fill:#007042;fill-rule:evenodd"
     d="m 8.503937,448.27932 c 0,-224.07824 181.658673,-405.759635 405.756393,-405.759635 224.07824,0 405.75963,181.681395 405.75963,405.759635 0,224.09771 -181.68139,405.75639 -405.75963,405.75639 -224.09772,0 -405.756393,-181.65868 -405.756393,-405.75639 l 0,0 z" />
  <path
     inkscape:connector-curvature="0"
     id="_85612608"
     style="fill:#ffffff;fill-opacity:1;fill-rule:evenodd"
     d="m 20.473837,448.27932 c 0,-217.47656 176.312373,-393.767051 393.786493,-393.767051 217.49928,0 393.78977,176.290491 393.78977,393.767051 0,217.47412 -176.29049,393.80925 -393.78977,393.80925 -217.47412,0 -393.786493,-176.33513 -393.786493,-393.80925 l 0,0 z" />
  <path
     inkscape:connector-curvature="0"
     id="_85611640"
     style="fill:#007042;fill-rule:evenodd"
     d="m 33.298137,448.27932 c 0,-210.39365 170.570983,-380.940229 380.962193,-380.940229 210.41636,0 380.96214,170.546579 380.96214,380.940229 0,210.41312 -170.54578,380.96214 -380.96214,380.96214 -210.39121,0 -380.962193,-170.54902 -380.962193,-380.96214 l 0,0 z" />
  <path
     inkscape:connector-curvature="0"
     id="_85610944"
     style="fill:#ffffff;fill-opacity:1;fill-rule:evenodd"
     d="m 178.78922,446.6717 c 0,-129.58368 105.03046,-234.61415 234.59142,-234.61415 129.56178,0 234.59224,105.03047 234.59224,234.61415 0,129.56097 -105.03046,234.59468 -234.59224,234.59468 -129.56096,0 -234.59142,-105.03371 -234.59142,-234.59468 z" />
  <path
     inkscape:connector-curvature="0"
     id="_47085368"
     style="fill:#000000;fill-opacity:1;fill-rule:evenodd"
     d="m 196.49812,458.77303 c -0.17367,-2.17892 -0.28322,-3.69645 -0.28322,-3.69645 20.43641,7.89767 38.41149,-6.75506 55.90128,-14.34517 4.15902,-1.84864 11.37664,0.99167 13.3535,-3.9602 1.71717,-3.80601 7.61526,-9.37058 0.99167,-10.88892 -25.56438,-3.45625 -42.28404,27.58911 -68.77274,13.37622 -2.68611,-1.47372 -1.9801,-3.9602 -1.9801,-3.9602 5.45501,-74.53937 47.49885,-146.58901 117.24053,-182.05388 62.34878,-35.6215 157.98513,-32.65054 216.68452,8.90882 31.15167,19.11688 60.98462,50.6248 77.17761,82.61395 15.48778,28.04843 22.59342,59.51091 24.70498,92.97296 -27.03809,20.45913 -45.16655,-19.27432 -72.6883,-10.36225 1.4729,4.29049 2.28766,8.73273 5.41038,12.36507 24.42176,-0.17691 41.2315,25.41019 66.79588,15.3336 -0.0446,1.27732 0.0422,2.77213 0.0227,3.69645 0.15094,5.58729 -0.0901,9.43874 -0.90484,16.05909 -22.57069,6.42477 -38.01628,-17.42244 -59.95074,-13.81525 l 2.44185,12.36426 c 20.30737,0.65814 33.70632,20.21811 54.6272,19.38063 -0.74822,4.57695 -1.91274,18.24125 -12.65072,15.40095 -17.40053,-5.4331 -24.04685,-15.79535 -39.04934,-15.79535 -1.804,3.29881 -0.28566,7.17218 -0.43985,12.16625 15.83999,2.48648 27.23611,15.83998 43.05418,18.30455 -1.49563,5.45583 -3.08052,11.17458 -6.97336,15.00331 -12.84955,-3.14543 -23.36598,-14.8264 -37.04977,-14.47663 l -2.48729,11.37664 c 13.02564,0.30757 21.43051,11.85787 33.15692,15.31087 0.30838,4.77496 -3.98211,9.06545 -6.44668,13.37622 -10.36306,-3.14543 -18.30537,-12.05426 -30.16324,-11.39612 0.0893,-5.63192 2.46457,-9.54748 1.47614,-14.32244 -13.35674,3.93747 -22.24284,-8.42435 -32.14333,-15.86271 -0.26375,-24.30977 -25.87276,-40.28203 -27.23692,-63.07427 -0.26536,-4.53394 -0.17609,-8.14113 2.48487,-14.58862 8.82199,-21.31528 5.78611,-44.68126 -3.45382,-62.80972 -3.76381,-6.60168 -7.74348,-8.55906 -12.36425,-11.39612 6.75506,14.36465 13.61886,30.97476 11.35067,48.92711 -1.55973,13.72923 -8.97293,26.75488 -9.06301,39.86735 -0.0219,4.6857 0.96895,9.3933 3.62991,14.12363 10.73798,19.27188 30.03096,37.57643 22.79467,61.84482 -2.55465,7.63393 -8.53633,15.13477 -9.43874,20.74397 12.53874,10.4077 24.44124,22.08866 41.07489,22.77195 5.94029,-3.78328 2.00201,-19.46989 14.82639,-12.87145 l 18.23801,9.19772 c -2.02229,4.46659 -6.75262,9.61403 -9.32594,12.07861 -6.75506,-3.30206 -13.35349,-7.26145 -21.75837,-6.90925 -2.46457,2.61876 -4.62158,5.58729 -4.44467,9.39411 5.91758,0.96895 11.85787,3.65182 16.8065,7.10807 -3.76138,4.9259 -7.25901,7.89767 -11.3734,11.68096 l -13.86069,-4.95106 c -2.28767,3.30206 -7.08291,6.75506 -5.4331,10.38416 3.14543,1.32196 6.93197,3.69727 8.88934,5.45582 -7.06343,6.57896 -16.65555,13.20255 -21.25441,15.33684 -6.42477,-20.94604 -27.54448,-35.64178 -25.74048,-59.86391 l -0.98843,-0.99167 c -4.92914,5.61244 -5.34707,14.14634 -2.97177,21.7608 5.9403,15.1794 20.15319,26.86118 22.26557,43.53945 -2.46539,4.29049 -8.07459,5.10282 -12.34316,6.92873 0.48447,-30.00905 -43.77967,-47.41282 -15.83998,-83.11791 10.93355,-13.97025 26.07076,-29.01819 20.26274,-49.45703 -5.91514,-19.79531 -27.50796,-33.03682 -26.77435,-54.25471 -0.0446,-0.46176 0.13147,-1.54026 0.2183,-2.28767 4.77496,-23.0576 17.66671,-46.90562 7.8782,-72.11699 -3.21198,-9.41602 -11.3312,-20.57112 -21.38588,-24.6847 15.00574,17.13679 20.94604,45.14383 12.38698,68.26879 -3.74109,9.58887 -10.29733,20.10855 -10.91408,30.88792 -0.30513,5.67412 0.86021,11.26466 4.46739,16.61092 11.3734,18.45631 32.429,40.87525 19.77827,62.81053 -12.82682,19.29379 -35.26605,38.8984 -22.74679,64.30859 8.73191,15.31087 23.0998,30.31743 19.29379,48.97256 l -14.82964,4.94862 c 9.87777,-34.80349 -38.58759,-55.24314 -18.32484,-90.04663 12.53873,-18.63565 34.98039,-36.12626 22.26231,-60.85558 -7.56738,-15.31169 -22.17548,-26.28988 -22.79142,-41.36054 0.13146,-1.05578 0.30756,-4.06894 0.5713,-5.38847 5.12797,-27.12654 25.78511,-52.80048 11.3312,-81.84301 -3.78329,-8.60126 -11.37339,-17.3137 -19.77827,-22.26557 l -0.48447,0.48448 c 16.82922,16.32527 21.93447,43.20836 12.86902,64.79306 -4.26533,12.6702 -13.5296,25.23409 -15.44315,38.83104 -0.87887,6.42234 -0.13147,13.06784 3.56256,20.04201 10.71525,16.98584 30.23059,36.12545 17.82332,56.89214 -12.36426,18.15118 -32.98001,35.77325 -24.75205,59.35997 8.51443,19.82046 28.02895,40.2374 17.79817,65.80177 l -15.31087,3.45625 c 12.18816,-24.90624 -6.1164,-49.63394 -16.83247,-71.24056 -13.00048,-30.99747 28.02895,-45.82712 28.69034,-74.20664 -0.1761,-18.30456 -19.60217,-28.66762 -23.71574,-45.49684 -2.41994,-8.25068 -16.52409,1.2968 -26.93179,1.2968 -8.44625,0 -19.11688,-10.53834 -23.53883,2.15701 -5.27972,18.63566 -29.34848,32.31944 -18.80932,54.43082 10.05387,19.62408 34.29629,33.966 26.22495,59.35671 -7.26225,23.73847 -31.17682,46.33189 -16.30498,73.7027 -6.11396,-0.3311 -15.11286,0.68005 -17.33641,-7.90092 -9.41602,-33.15449 30.64771,-52.44828 18.30536,-85.58004 -5.78611,-20.30738 -32.01187,-31.50468 -26.20304,-55.90372 4.24586,-20.08664 26.77435,-34.14535 23.58428,-56.16746 -0.26293,-1.82591 -0.70277,-3.71918 -1.34143,-5.67655 -8.42435,-23.76119 -25.56438,-47.49966 -15.3336,-75.19751 2.79243,-7.9204 8.40487,-14.67546 13.3535,-21.75837 -16.32527,8.73191 -24.55323,27.19147 -24.24567,46.0227 -0.70277,20.41693 14.43525,37.92944 16.54681,56.60973 0.85697,7.56739 -0.39764,15.31169 -5.65464,23.49501 -10.71526,14.52127 -24.73014,29.85487 -18.28264,48.99772 6.07176,19.27107 30.16324,30.99748 28.66761,53.41642 -0.17691,26.55361 -31.00072,43.05498 -22.26556,72.71102 l -15.3336,-4.92671 c -6.09448,-26.40187 21.93203,-39.90874 22.26232,-64.30859 3.9602,-28.05086 -31.81224,-38.41392 -29.67876,-65.82612 -0.1761,-20.74803 18.15117,-33.94734 26.20304,-51.43713 1.82672,-4.26858 1.87135,-8.27341 1.67253,-12.12162 -0.98924,-19.3157 -17.07267,-32.34135 -15.53242,-56.12526 1.01359,-16.01364 6.44669,-30.02853 16.83166,-42.0625 -14.34517,5.78611 -21.18706,21.82248 -24.62059,36.16765 -5.47773,23.40737 9.92241,42.15258 11.57222,62.02011 0.72793,8.77736 -1.42827,17.55472 -9.70167,26.46679 -11.85787,14.03679 -23.91457,31.65805 -15.31087,50.46736 9.06301,20.79267 37.57643,36.94103 25.23409,62.81297 -6.77779,16.34799 -22.94562,28.70981 -22.26557,47.98413 -4.30996,-1.804 -8.75463,-3.60719 -12.38698,-6.90925 0,-24.55323 34.96011,-39.93146 18.30456,-65.80421 -0.0219,4.79768 -0.52587,10.4296 -2.96853,17.82089 -6.00684,14.52127 -18.15118,27.05919 -22.74923,42.55022 -7.7443,-2.97177 -15.84079,-9.26183 -22.26556,-15.86351 l 8.88934,-5.41363 c -0.96895,-3.29881 -4.59886,-8.3789 -5.91757,-8.90882 -4.05028,-1.54026 -9.57021,2.94905 -14.34517,4.4674 -4.1363,-3.62992 -8.0965,-6.95388 -11.39612,-11.37665 2.96853,-8.42435 26.07158,-1.51753 14.36789,-15.3555 -5.63273,-5.85103 -15.84079,2.15619 -22.75004,5.43553 l -9.41602,-11.86031 c 8.07459,-4.97134 16.14836,-11.85787 26.22576,-9.90049 2.46133,4.44467 2.63824,11.04554 7.4132,13.35674 11.92523,3.01316 29.01738,-13.20255 42.04302,-23.25724 -9.06544,-13.50768 -16.47864,-32.12061 -8.42678,-48.46536 6.46941,-16.3699 23.32135,-30.14051 24.09148,-48.24706 0.1761,-4.11357 -1.27733,-10.58379 -2.31039,-13.11247 -9.02162,-22.85879 -12.03478,-53.90171 4.97054,-74.18636 -9.26183,2.48648 -14.91648,14.08142 -18.12602,22.61776 -8.49414,21.82248 3.01397,43.20836 3.45381,64.68107 0.15419,3.71675 0.35301,8.05186 -1.18806,11.63714 -8.71244,17.64398 -22.90342,33.15692 -25.23653,53.43914 -10.03196,6.40205 -18.28264,17.64398 -32.62456,13.8607 0,4.40004 0.65814,9.54748 1.97685,13.83797 -11.3734,-0.50395 -19.13961,7.89767 -28.68709,11.88059 -5.12473,-1.67253 -6.44668,-8.2734 -8.42678,-12.89174 11.22245,-3.78329 19.31895,-15.00331 32.16525,-14.82965 1.49562,-4.11357 -0.83424,-7.92039 -1.47291,-11.85787 -16.01689,-7.08291 -41.38244,35.09239 -43.53945,-1.51753 15.99498,-0.96976 26.22576,-15.79616 42.04383,-17.29179 l 0.50395,-11.88059 c -17.97427,-1.80319 -30.05125,17.22686 -47.49884,14.82721 l -3.9602,-15.81807 c 20.79185,1.32196 33.15367,-17.3137 52.93519,-18.30212 2.63824,-3.45625 2.96852,-8.55906 3.453,-13.35674 -21.60418,-2.79243 -36.43382,21.10022 -59.35672,13.83797 0,0 -0.77013,-9.94189 -1.19049,-15.57462 z" />
  <path
     inkscape:connector-curvature="0"
     id="_85615536"
     style="fill:#ffffff;fill-opacity:1;fill-rule:evenodd"
     d="m 590.97038,337.32804 c -6.42396,33.66168 16.65312,57.40015 32.14333,83.1179 -17.79817,11.8806 -34.60791,-6.42152 -51.43956,-10.88892 -7.34585,-1.69445 -16.14592,-2.13348 -23.23127,-0.99086 -10.23078,-15.81807 -23.93729,-30.66719 -40.56769,-39.55654 0.85696,-4.92671 8.55582,-5.78611 13.83797,-6.42477 14.95868,-1.07851 27.52257,4.59886 39.55654,10.86944 1.2546,-6.40286 3.32154,-11.52758 4.97135,-17.31369 3.9602,-9.72683 11.70368,-19.62408 21.78028,-23.73847 2.5514,-0.90159 3.5658,1.51754 2.94905,4.92591 z m -136.04985,50.97538 c 0.21829,1.01358 0.32785,4.29048 -1.96063,5.43553 -6.29006,-2.46457 -15.0033,-5.91758 -21.2958,-0.99086 -3.608,-7.76621 6.46941,-6.11396 9.92241,-8.40487 5.08333,-0.15176 11.04311,-0.32786 13.33402,3.9602 z m -58.85358,2.46457 0,1.9801 c -5.6092,-0.50476 -14.69737,-6.11396 -19.77746,0.99086 -3.32234,1.47371 -3.62991,-2.1562 -3.69726,-4.42195 -0.0868,-2.92714 1.03306,-4.48931 3.19007,-4.97378 7.7662,-1.82348 16.47864,0.48447 20.28465,6.42477 z M 265.46968,372.44315 c 15.99741,-6.07177 37.75578,-16.63365 54.91529,-5.43635 -5.30164,4.00483 -10.71526,7.9204 -15.86271,12.38779 -8.38215,8.25069 -18.61293,18.28265 -24.70741,28.68953 -20.61251,-4.11439 -37.11469,7.92039 -54.42838,14.8264 -5.91758,1.91599 -15.31331,2.00282 -20.76913,-2.46458 16.32445,-26.88309 39.40235,-51.63271 33.63815,-87.05538 -0.68005,-4.24585 4.95187,-0.5072 6.93197,0.48448 12.69292,9.90049 18.78659,23.56236 20.28222,38.56811 z m 188.10616,-4.68813 c 0.90241,2.04664 3.16816,5.54509 1.34469,8.68971 -9.70411,-2.99044 -24.75205,-0.85696 -30.16324,2.44266 -8.40487,6.27059 -7.08535,19.12013 -4.95187,28.20506 l 2.46457,1.95818 c 4.13711,-0.96651 4.31077,-6.22595 7.94312,-7.4132 6.09449,1.49482 14.51883,3.6291 20.26274,0 5.12473,0.15338 6.00441,7.54467 5.45583,10.88893 -3.62992,19.14204 -11.72641,39.90873 -31.17439,48.99446 -8.07702,3.94073 -21.69426,1.10042 -26.20304,-1.51834 -19.14204,-11.3734 -29.85487,-33.94328 -27.72058,-54.40566 0.41712,-2.9036 3.78329,-5.6092 7.4132,-3.43352 7.76621,5.26024 16.17108,-4.15578 23.2759,2.44266 8.55906,-3.7841 3.45381,-14.34273 3.45381,-22.24041 -6.92953,-8.91126 -18.80931,-7.61202 -29.19428,-6.95388 -4.8618,-1.67172 -0.0649,-7.65665 1.4729,-10.38497 11.22245,-15.81807 32.67244,-16.14836 51.43956,-13.81525 8.69053,1.12314 19.47071,6.99608 24.88108,16.54357 z m -11.50486,-52.20726 c 15.00331,-8.71 29.78751,-19.77827 47.93869,-20.94361 -0.94623,5.41119 -8.14113,18.96351 -8.35943,29.37039 9.50204,-3.98211 21.40536,-10.05387 33.63815,-9.3933 -5.80802,10.09688 -18.63565,28.02895 -19.29379,45.51956 -16.65556,-6.29331 -33.81506,-13.86069 -52.45072,-16.83247 -39.73263,-6.75181 -77.97046,1.9801 -110.81657,17.79817 -2.79486,-16.63039 -10.86863,-31.15166 -20.76913,-44.98963 4.55342,-2.81759 13.70651,0.94704 19.31571,2.94905 5.74472,2.13428 9.90049,4.00239 14.82964,5.95977 0.98843,-9.9005 -4.79443,-19.6468 -8.90882,-28.70981 3.73865,-2.13348 7.25901,-0.48448 10.40445,0.50476 13.00373,4.92915 24.70741,12.67263 36.56528,19.75879 l -0.0219,-0.0454 10.86864,-26.62016 -20.24002,-18.28265 c -2.31039,-2.11156 -2.46458,-2.02473 -0.81477,-2.13429 2.7056,-0.15337 27.52176,-1.45018 27.52176,-1.45018 0,0 11.63957,-25.21461 11.77104,-25.47754 0.0868,-0.28565 0.26374,0 0.26374,0 l 11.77104,25.01498 c 0,0 27.43492,1.54026 28.20505,1.55973 0.79285,0.0455 0,0.63867 0,0.63867 l -21.73564,20.63847 10.35981,25.10182 -0.0422,0.0649 z" />
  <path
     inkscape:connector-curvature="0"
     id="_46965384"
     style="fill:#ffffff;fill-opacity:1;fill-rule:evenodd"
     d="m 702.53516,512.0588 -29.43774,0 23.01297,18.43683 -8.22877,28.13769 25.5871,-15.79859 25.67637,15.79859 -8.27341,-28.18314 22.81415,-18.39138 -29.26083,0 -10.95628,-27.19472 -10.93356,27.19472 z m -599.60403,0 -29.458033,0 23.03326,18.43683 -8.22877,28.13769 25.587103,-15.79859 25.67637,15.79859 -8.27341,-28.18314 22.81415,-18.39138 -29.26083,0 -10.95628,-27.19472 -10.93356,27.19472 z m 137.30446,129.00913 c 2.48729,4.68813 4.92914,8.84472 6.62359,15.68661 -5.54509,2.77295 -12.47381,6.18375 -18.50338,9.15228 -1.47371,-10.8662 -11.04311,-21.51411 -21.75836,-24.33169 -8.90883,-2.24303 -18.63322,1.95738 -25.23409,9.9005 -5.4331,6.40205 -7.08535,15.66388 -5.4331,23.73846 2.39721,9.37382 15.97225,19.31571 28.18314,19.62408 l 3.47491,0.13147 c -3.60719,7.26226 -5.78611,11.74913 -8.91126,17.8428 -19.93246,-0.66057 -40.06373,-12.36507 -47.49966,-31.65886 -6.42396,-15.66388 -3.60718,-35.94854 6.4475,-48.99447 12.21088,-15.48778 31.65886,-19.77827 50.46818,-15.81807 13.46549,3.21279 24.55323,13.04593 32.14253,24.72689 z m 69.74249,50.44871 c 10.0766,12.89093 10.23079,32.82339 3.98211,47.49884 -7.04071,14.91648 -20.45831,24.42177 -35.15649,27.72139 -17.79817,2.79486 -34.60792,-2.96934 -47.47694,-15.3336 -11.37339,-12.56389 -17.64398,-30.53897 -11.85787,-47.98413 5.10281,-18.96594 23.58428,-32.82663 42.52506,-35.13458 19.6249,-1.14505 37.75579,7.92039 47.98413,23.23208 z m -31.17438,1.51753 c -7.08291,-3.32153 -15.15669,-0.66057 -20.76994,3.93829 -9.21639,9.06545 -15.24352,21.44999 -11.61361,34.62982 1.54026,5.38847 6.79645,9.54749 12.01125,11.63633 7.56739,2.81758 14.9814,0.35301 20.87949,-4.7076 9.06302,-9.23911 15.5097,-22.08866 9.9005,-35.11187 -1.32196,-4.29048 -6.11721,-9.08492 -10.40769,-10.38497 z m 207.31069,31.30586 c -13.85826,1.98334 -27.06,3.61043 -40.2374,5.76663 0.48448,6.18132 0.87969,11.26465 1.27408,16.45349 12.40971,-1.73584 23.47554,-3.32154 35.00312,-5.01598 l 3.54227,21.82572 c -11.52677,1.67253 -24.99307,3.62991 -36.8055,5.32436 0.63785,9.50528 1.54026,21.71616 2.3745,32.25208 -9.85505,0.81557 -19.84238,1.34468 -29.91897,2.00282 l -6.04986,-93.04112 c 22.32968,-2.13348 45.75977,-5.16936 67.10102,-8.64508 1.14261,6.99607 2.26575,14.08142 3.71674,23.07708 z m 76.65094,-38.96251 -35.7059,17.40296 6.20404,14.65354 c 11.02039,-5.0387 20.32685,-9.26183 31.45923,-14.432 2.41994,5.32355 5.14826,11.50487 7.89849,17.59935 -10.25107,4.81716 -20.98824,9.41602 -31.65887,14.3898 2.13429,4.904 3.54308,8.24744 6.99608,16.08101 l 38.85377,-17.997 8.42678,19.00814 c -22.46439,10.36225 -46.8829,21.49544 -68.13732,30.84654 l -33.37278,-84.98845 c 21.25198,-9.23992 41.13899,-18.83204 61.3571,-29.48319 2.50921,5.19289 7.67938,16.9193 7.67938,16.9193 z m -160.77999,47.41201 c -13.79334,-2.31039 -26.88391,-4.77496 -40.12785,-6.73234 -1.51834,6.37933 -2.81758,13.35593 -4.02755,18.19582 12.25551,2.15619 22.15601,3.80601 34.87084,5.98493 l -3.2347,21.20653 c -11.81324,-2.00282 -24.30977,-3.91556 -36.65212,-6.13912 -2.33311,9.46066 -4.6857,20.5062 -7.30446,30.88874 -9.46065,-2.28523 -18.83123,-4.70517 -29.08473,-7.32393 l 22.50658,-91.34668 c 21.91175,4.75061 44.39886,8.88691 65.78149,12.07698 -0.81233,7.01799 -1.82591,15.00574 -2.7275,23.18907 z m 224.51483,-100.54359 -29.54405,26.57877 10.05387,12.36426 c 9.17257,-7.85547 16.96068,-14.49854 26.24524,-22.50902 3.80601,4.42277 8.09649,9.59293 12.42918,14.74281 -8.53634,7.43593 -17.55472,14.82721 -26.46597,22.54798 3.4108,4.11763 5.69927,6.93197 11.1551,13.53284 l 32.40627,-28.02895 13.33402,15.97225 c -18.72249,16.14836 -39.13942,33.57161 -56.98223,48.44589 L 563.40399,663.2913 c 17.885,-14.74281 34.56247,-29.35091 51.06464,-45.16898 3.82549,4.29048 12.03154,14.12362 12.03154,14.12362 z M 750.74003,341.28823 c 8.57853,13.8607 11.88059,32.16606 7.43592,48.975 l -18.30537,-0.99086 c 2.4873,-11.04311 4.26858,-24.88109 -3.47572,-34.12344 -2.31039,-2.79486 -6.42477,-4.44224 -9.37382,-2.96853 -9.96461,7.98451 0.46256,25.85003 -5.34627,40.4135 -2.66096,6.97336 -5.7642,11.68421 -13.96944,15.00574 -10.38497,3.93748 -23.23208,1.95738 -31.15166,-5.96221 -15.49103,-16.14916 -22.75004,-41.22907 -12.87227,-62.32929 l 19.29623,0 c -3.27934,8.2734 -5.58972,19.95517 -2.46458,29.70148 1.64982,4.11358 3.62991,9.37382 8.40244,10.86945 15.51294,1.73583 5.83074,-23.23208 8.64833,-32.9581 1.86811,-7.43592 6.02713,-15.8408 14.10171,-19.47071 14.85156,-7.25901 32.16525,0.99168 39.0745,13.83797 z m -48.51324,-97.0427 c -8.62317,6.44424 -19.49262,14.49611 -28.02895,20.92088 13.26666,1.49562 29.26164,3.10324 43.05498,4.64349 5.06061,9.37139 9.24154,17.1376 14.85155,27.49985 l -49.56902,-3.60719 c -9.83314,17.73081 -19.3579,34.62739 -28.73172,51.54587 -5.7642,-8.40487 -10.23079,-19.29379 -15.8408,-28.68709 6.35742,-12.54117 13.70651,-27.1939 20.04202,-39.33824 -10.05225,7.43592 -20.15076,14.96111 -30.60065,22.77276 l -18.10898,-24.22294 c 24.48912,-18.26073 74.67165,-55.61887 74.67165,-55.61887 l 18.25992,24.09148 z M 652.8152,185.96407 c 5.58729,6.90925 9.3933,15.49022 11.87978,24.24485 -6.93116,3.69727 -12.25551,7.15027 -18.83447,10.86945 -1.62709,-10.20806 -7.25901,-20.59303 -17.29097,-25.71857 -4.79769,-2.79486 -11.8806,-3.30125 -17.3137,-1.47534 -8.40487,3.12515 -15.66713,10.38498 -18.81175,18.78903 -2.79486,8.09731 0.35301,15.99499 4.95106,22.26557 6.42477,7.25901 15.00331,11.04311 24.74961,11.3734 -4.46658,7.21762 -7.30364,11.85787 -10.88892,17.31369 -16.14836,-2.30795 -31.35049,-11.1973 -40.57012,-26.20304 -7.89767,-12.71483 -8.38215,-32.16281 -1.49562,-45.51874 7.25901,-14.67303 21.60418,-24.06876 37.11468,-26.22252 17.42569,-1.87136 35.44215,6.75181 46.51042,20.28222 z M 503.10023,164.53599 c -3.25742,8.46898 -4.59886,14.76229 9.48257,19.33842 7.65422,2.4873 12.33991,-1.01114 15.61925,-9.50204 l 21.05559,-51.57184 29.61141,13.00373 -19.80018,49.69724 c -10.84429,28.27322 -27.63131,31.88041 -56.45311,21.14568 -32.20745,-12.05751 -39.84219,-26.79707 -30.03178,-52.34197 l 18.43684,-51.23831 30.978,10.25107 -18.89859,51.21802 z m -51.3503,-63.51574 c 6.42478,5.76339 7.76621,15.17941 6.64307,21.62609 -1.27408,5.8981 -5.12472,11.7045 -10.40444,15.81807 6.44425,4.79769 12.71483,8.9989 14.12362,18.28346 1.69445,8.91126 -0.92432,16.01689 -5.69603,22.28747 -10.05468,11.3734 -25.30145,9.41521 -39.79999,9.92241 l -39.09479,-0.0219 -0.26617,-3.47572 -4.02431,-89.170195 c 20.5484,0 26.28987,-0.0422 45.18846,-0.0422 25.27872,0 28.77717,1.537823 33.33058,4.772525 z m -30.00905,12.56308 c -3.67454,-0.0219 -12.73755,0.0227 -16.71966,0.0227 0.24102,5.56538 0.48447,12.07617 0.7474,17.4898 4.55423,0 12.07942,-0.0446 16.74239,-0.0446 6.04985,-0.41712 6.13912,-6.42477 6.18375,-8.6678 -0.22073,-2.94905 -0.87887,-7.98775 -6.95388,-8.80008 z m 1.60762,34.91304 c -3.65183,-0.0414 -12.75947,0 -16.72291,0 0.24426,5.59054 0.46499,13.22528 0.72874,18.63566 4.59805,0 12.09889,-0.0446 16.78377,-0.0446 6.05229,-0.41712 6.13912,-6.97335 6.18375,-9.26183 -0.22073,-2.90441 -0.90159,-8.53634 -6.97335,-9.32919 z m -133.65588,69.78714 c -11.4156,-27.87477 -25.4743,-60.52206 -35.81464,-86.66099 13.00049,-5.50045 30.29471,-12.8463 44.79406,-19.00814 13.33078,-5.74066 30.95285,-5.50045 42.81072,6.73315 5.9403,6.59844 8.31804,16.89657 7.59254,23.32135 -0.68329,5.69603 -2.88494,10.88892 -7.08615,16.25791 9.46065,8.75707 22.00263,20.43884 32.65053,30.31661 l -31.17682,6.77454 c -10.55864,-8.49089 -16.32283,-13.0224 -25.65121,-20.7245 -3.67455,1.56298 -6.68852,2.81759 -10.45233,4.40248 l 11.3312,25.0799 -28.9979,13.50769 z m 16.03961,-84.81236 c -5.47854,2.33311 -11.46347,4.81716 -16.14835,6.79726 2.70802,6.09449 4.97378,11.02364 8.49089,18.76712 l 16.14917,-6.84189 c 3.50088,-2.41994 3.71917,-8.07458 2.09208,-12.18816 -2.26899,-4.8626 -7.17299,-7.61283 -10.58379,-6.53433 z m -108.02171,63.89147 12.25308,28.40144 13.96944,-12.36507 -26.22252,-16.03637 z m -31.19954,-1.49806 35.24657,-29.70148 85.38366,53.57385 -24.61734,16.21328 -18.80931,-9.87777 -23.7831,20.81132 8.22796,19.801 -21.51735,24.09066 -40.13109,-94.91086 z m -28.35599,30.71426 19.73282,11.59494 -14.63001,23.71575 57.09096,37.46769 -15.04794,24.61734 -58.05991,-36.08081 -13.90289,22.59341 -19.052783,-12.73755 43.869753,-71.17077 z m -33.46287,101.86312 c -10.208063,7.92039 -17.470313,19.44798 -15.336033,32.62456 0.43985,2.00282 1.91599,5.19289 5.06062,5.5459 8.096493,0.52587 11.749133,-8.4917 14.740373,-14.432 4.75224,-9.43874 13.02565,-20.61575 24.72933,-21.78109 10.05469,-0.63866 18.61293,2.00282 25.21137,9.9005 10.05468,12.05426 8.25068,31.48195 3.47572,45.51874 -4.46415,10.40445 -11.39612,20.94361 -21.27389,27.72139 l -17.82008,-10.89217 c 9.74631,-6.77453 19.95437,-17.82008 21.27389,-30.20462 0,-4.42277 -0.98923,-10.36225 -6.42233,-10.86945 -9.30647,-0.39521 -12.51926,16.98584 -20.28547,24.73014 -5.93949,6.11315 -13.3535,10.71201 -22.749233,9.41521 -8.75463,-0.50639 -16.17108,-5.96221 -21.27389,-12.87146 -9.72359,-14.82721 -4.95187,-36.60748 0.98842,-47.98088 3.63235,-6.42477 7.92284,-12.84955 13.86313,-17.82089 4.99407,3.56255 10.42717,7.59011 15.818073,11.39612 z" />
  <path
     inkscape:connector-curvature="0"
     id="_85710816"
     style="fill:#000000;fill-opacity:1;fill-rule:evenodd"
     d="m 434.65454,321.50997 -2.48405,2.46457 c -12.36507,-1.31871 -26.35723,-0.30756 -37.09197,0.5072 -1.32196,-1.32196 -3.96263,-3.30206 -1.47614,-4.95187 l 18.78984,-14.34436 c 7.76621,4.44467 15.99498,10.20806 22.26232,16.32446 z m -3.47573,112.29271 c -3.93747,5.9403 -9.87777,13.37622 -17.79817,12.86902 -8.88853,0.66058 -10.88892,-6.59843 -17.31369,-10.86944 l -0.50639,-2.99125 c 11.8806,1.804 24.90624,-0.48447 35.61825,0.99167 z m -7.89767,-13.86069 c -2.99125,6.26815 -12.56064,2.31039 -17.82008,3.453 -1.82672,-0.66057 -0.66139,-2.59604 -0.96895,-3.93747 5.25943,-3.62992 14.65273,-4.11439 18.78903,0.48447 z" />
  <path
     d="m 702.53516,512.0588 -29.43774,0 23.01297,18.43683 -8.22877,28.13769 25.5871,-15.79859 25.67637,15.79859 -8.27341,-28.18314 22.81415,-18.39138 -29.26083,0 -10.95628,-27.19472 z m -599.60403,0 -29.458033,0 23.03326,18.43683 -8.22877,28.13769 25.587103,-15.79859 25.67637,15.79859 -8.27341,-28.18314 22.81415,-18.39138 -29.26083,0 -10.95628,-27.19472 z m 137.30446,129.00913 c 2.48729,4.68813 4.92914,8.84472 6.62359,15.68661 -5.54509,2.77295 -12.47381,6.18375 -18.50338,9.15228 -1.47371,-10.8662 -11.04311,-21.51411 -21.75836,-24.33169 -8.90883,-2.24303 -18.63322,1.95738 -25.23409,9.9005 -5.4331,6.40205 -7.08535,15.66388 -5.4331,23.73846 2.39721,9.37382 15.97225,19.31571 28.18314,19.62408 l 3.47491,0.13147 c -3.60719,7.26226 -5.78611,11.74913 -8.91126,17.8428 -19.93246,-0.66057 -40.06373,-12.36507 -47.49966,-31.65886 -6.42396,-15.66388 -3.60718,-35.94854 6.4475,-48.99447 12.21088,-15.48778 31.65886,-19.77827 50.46818,-15.81807 13.46549,3.21279 24.55323,13.04593 32.14253,24.72689 z m 69.74249,50.44871 c 10.0766,12.89093 10.23079,32.82339 3.98211,47.49884 -7.04071,14.91648 -20.45831,24.42177 -35.15649,27.72139 -17.79817,2.79486 -34.60792,-2.96934 -47.47694,-15.3336 -11.37339,-12.56389 -17.64398,-30.53897 -11.85787,-47.98413 5.10281,-18.96594 23.58428,-32.82663 42.52506,-35.13458 19.6249,-1.14505 37.75579,7.92039 47.98413,23.23208 z m -31.17438,1.51753 c -7.08291,-3.32153 -15.15669,-0.66057 -20.76994,3.93829 -9.21639,9.06545 -15.24352,21.44999 -11.61361,34.62982 1.54026,5.38847 6.79645,9.54749 12.01125,11.63633 7.56739,2.81758 14.9814,0.35301 20.87949,-4.7076 9.06302,-9.23911 15.5097,-22.08866 9.9005,-35.11187 -1.32196,-4.29048 -6.11721,-9.08492 -10.40769,-10.38497 z m 207.31069,31.30586 c -13.85826,1.98334 -27.06,3.61043 -40.2374,5.76663 0.48448,6.18132 0.87969,11.26465 1.27408,16.45349 12.40971,-1.73584 23.47554,-3.32154 35.00312,-5.01598 l 3.54227,21.82572 c -11.52677,1.67253 -24.99307,3.62991 -36.8055,5.32436 0.63785,9.50528 1.54026,21.71616 2.3745,32.25208 -9.85505,0.81557 -19.84238,1.34468 -29.91897,2.00282 l -6.04986,-93.04112 c 22.32968,-2.13348 45.75977,-5.16936 67.10102,-8.64508 1.14261,6.99607 2.26575,14.08142 3.71674,23.07708 z m 76.65094,-38.96251 -35.7059,17.40296 6.20404,14.65354 c 11.02039,-5.0387 20.32685,-9.26183 31.45923,-14.432 2.41994,5.32355 5.14826,11.50487 7.89849,17.59935 -10.25107,4.81716 -20.98824,9.41602 -31.65887,14.3898 2.13429,4.904 3.54308,8.24744 6.99608,16.08101 l 38.85377,-17.997 8.42678,19.00814 c -22.46439,10.36225 -46.8829,21.49544 -68.13732,30.84654 l -33.37278,-84.98845 c 21.25198,-9.23992 41.13899,-18.83204 61.3571,-29.48319 2.50921,5.19289 7.67938,16.9193 7.67938,16.9193 z m -160.77999,47.41201 c -13.79334,-2.31039 -26.88391,-4.77496 -40.12785,-6.73234 -1.51834,6.37933 -2.81758,13.35593 -4.02755,18.19582 12.25551,2.15619 22.15601,3.80601 34.87084,5.98493 l -3.2347,21.20653 c -11.81324,-2.00282 -24.30977,-3.91556 -36.65212,-6.13912 -2.33311,9.46066 -4.6857,20.5062 -7.30446,30.88874 -9.46065,-2.28523 -18.83123,-4.70517 -29.08473,-7.32393 l 22.50658,-91.34668 c 21.91175,4.75061 44.39886,8.88691 65.78149,12.07698 -0.81233,7.01799 -1.82591,15.00574 -2.7275,23.18907 z m 224.51483,-100.54359 -29.54405,26.57877 10.05387,12.36426 c 9.17257,-7.85547 16.96068,-14.49854 26.24524,-22.50902 3.80601,4.42277 8.09649,9.59293 12.42918,14.74281 -8.53634,7.43593 -17.55472,14.82721 -26.46597,22.54798 3.4108,4.11763 5.69927,6.93197 11.1551,13.53284 l 32.40627,-28.02895 13.33402,15.97225 c -18.72249,16.14836 -39.13942,33.57161 -56.98223,48.44589 L 563.40399,663.2913 c 17.885,-14.74281 34.56247,-29.35091 51.06464,-45.16898 3.82549,4.29048 12.03154,14.12362 12.03154,14.12362 z"
     style="fill:#ffffff;fill-opacity:1;fill-rule:evenodd"
     id="path4420"
     inkscape:connector-curvature="0"
     sodipodi:nodetypes="ccccccccccccccccccccccccccccccccccccccccccccccccccccccccccccccccccccccccccccccccccccccccccccccccc" />
  <g
     id="g4637"
     transform="translate(-117.97406,14.50996)"
     style="stroke-width:4;stroke-miterlimit:4;stroke-dasharray:none">
    <path
       d="m 1001.6152,436.39586 c 0,-224.07824 181.6587,-405.759631 405.7564,-405.759631 224.0782,0 405.7596,181.681391 405.7596,405.759631 0,224.09771 -181.6814,405.75639 -405.7596,405.75639 -224.0977,0 -405.7564,-181.65868 -405.7564,-405.75639 l 0,0 z"
       style="fill:#007042;fill-rule:evenodd;stroke-width:4;stroke-miterlimit:4;stroke-dasharray:none"
       id="path4468"
       inkscape:connector-curvature="0" />
    <path
       d="m 1013.5851,436.39586 c 0,-217.47656 176.3124,-393.767047 393.7865,-393.767047 217.4993,0 393.7898,176.290487 393.7898,393.767047 0,217.47412 -176.2905,393.80925 -393.7898,393.80925 -217.4741,0 -393.7865,-176.33513 -393.7865,-393.80925 l 0,0 z"
       style="fill:#ffffff;fill-opacity:1;fill-rule:evenodd;stroke-width:4;stroke-miterlimit:4;stroke-dasharray:none"
       id="path4470"
       inkscape:connector-curvature="0" />
    <path
       d="m 1026.4094,436.39586 c 0,-210.39365 170.571,-380.940225 380.9622,-380.940225 210.4164,0 380.9621,170.546575 380.9621,380.940225 0,210.41312 -170.5457,380.96214 -380.9621,380.96214 -210.3912,0 -380.9622,-170.54902 -380.9622,-380.96214 l 0,0 z"
       style="fill:#007042;fill-rule:evenodd;stroke-width:4;stroke-miterlimit:4;stroke-dasharray:none"
       id="path4472"
       inkscape:connector-curvature="0" />
    <path
       sodipodi:nodetypes="cccccccccccccccccccccccccccccccccccccccccccccccccccccccccccccccccccccccccccc"
       inkscape:connector-curvature="0"
       id="path4474"
       style="fill:#ffffff;fill-opacity:1;fill-rule:evenodd;stroke-width:4;stroke-miterlimit:4;stroke-dasharray:none"
       d="m 1233.3469,629.18447 c 2.4872,4.68813 4.9291,8.84472 6.6235,15.68661 -5.545,2.77295 -12.4738,6.18375 -18.5033,9.15228 -1.4737,-10.8662 -11.0431,-21.51411 -21.7584,-24.33169 -8.9088,-2.24303 -18.6332,1.95738 -25.2341,9.9005 -5.4331,6.40205 -7.0853,15.66388 -5.4331,23.73846 2.3972,9.37382 15.9723,19.31571 28.1832,19.62408 l 3.4749,0.13147 c -3.6072,7.26226 -5.7861,11.74913 -8.9113,17.8428 -19.9325,-0.66057 -40.0637,-12.36507 -47.4997,-31.65886 -6.4239,-15.66388 -3.6071,-35.94854 6.4475,-48.99447 12.2109,-15.48778 31.6589,-19.77827 50.4682,-15.81807 13.4655,3.21279 24.5533,13.04593 32.1426,24.72689 z m 69.7424,50.44871 c 10.0766,12.89093 10.2308,32.82339 3.9822,47.49884 -7.0408,14.91648 -20.4584,24.42177 -35.1565,27.72139 -17.7982,2.79486 -34.608,-2.96934 -47.477,-15.3336 -11.3734,-12.56389 -17.644,-30.53897 -11.8578,-47.98413 5.1028,-18.96594 23.5842,-32.82663 42.525,-35.13458 19.6249,-1.14505 37.7558,7.92039 47.9841,23.23208 z m -31.1743,1.51753 c -7.0829,-3.32153 -15.1567,-0.66057 -20.77,3.93829 -9.2164,9.06545 -15.2435,21.44999 -11.6136,34.62982 1.5403,5.38847 6.7965,9.54749 12.0113,11.63633 7.5674,2.81758 14.9814,0.35301 20.8795,-4.7076 9.063,-9.23911 15.5097,-22.08866 9.9005,-35.11187 -1.322,-4.29048 -6.1173,-9.08492 -10.4077,-10.38497 z m 207.3107,31.30586 c -13.8583,1.98334 -27.06,3.61043 -40.2374,5.76663 0.4844,6.18132 0.8796,11.26465 1.274,16.45349 12.4097,-1.73584 23.4756,-3.32154 35.0032,-5.01598 l 3.5422,21.82572 c -11.5267,1.67253 -24.993,3.62991 -36.8055,5.32436 0.6379,9.50528 1.5403,21.71616 2.3745,32.25208 -9.855,0.81557 -19.8424,1.34468 -29.9189,2.00282 l -6.0499,-93.04112 c 22.3297,-2.13348 45.7598,-5.16936 67.101,-8.64508 1.1426,6.99607 2.2658,14.08142 3.7167,23.07708 z m 76.6509,-38.96251 -35.7059,17.40296 6.204,14.65354 c 11.0204,-5.0387 20.3269,-9.26183 31.4593,-14.432 2.4199,5.32355 5.1482,11.50487 7.8985,17.59935 -10.2511,4.81716 -20.9883,9.41602 -31.6589,14.3898 2.1343,4.904 3.5431,8.24744 6.9961,16.08101 l 38.8537,-17.997 8.4268,19.00814 c -22.4644,10.36225 -46.8829,21.49544 -68.1373,30.84654 l -33.3728,-84.98845 c 21.252,-9.23992 41.139,-18.83204 61.3571,-29.48319 2.5092,5.19289 7.6794,16.9193 7.6794,16.9193 z m -160.78,47.41201 c -13.7933,-2.31039 -26.8839,-4.77496 -40.1278,-6.73234 -1.5184,6.37933 -2.8176,13.35593 -4.0276,18.19582 12.2555,2.15619 22.156,3.80601 34.8708,5.98493 l -3.2347,21.20653 c -11.8132,-2.00282 -24.3097,-3.91556 -36.6521,-6.13912 -2.3331,9.46066 -4.6857,20.5062 -7.3044,30.88874 -9.4607,-2.28523 -18.8313,-4.70517 -29.0848,-7.32393 l 22.5066,-91.34668 c 21.9118,4.75061 44.3989,8.88691 65.7815,12.07698 -0.8123,7.01799 -1.8259,15.00574 -2.7275,23.18907 z m 224.5148,-100.54359 -29.544,26.57877 10.0539,12.36426 c 9.1725,-7.85547 16.9606,-14.49854 26.2452,-22.50902 3.806,4.42277 8.0965,9.59293 12.4292,14.74281 -8.5364,7.43593 -17.5547,14.82721 -26.466,22.54798 3.4108,4.11763 5.6993,6.93197 11.1551,13.53284 l 32.4063,-28.02895 13.334,15.97225 c -18.7225,16.14836 -39.1394,33.57161 -56.9822,48.44589 l -55.7276,-72.60147 c 17.885,-14.74281 34.5624,-29.35091 51.0646,-45.16898 3.8255,4.29048 12.0315,14.12362 12.0315,14.12362 z" />
    <path
       d="m 1170.1765,437.7486 c 0,-129.58368 105.0304,-234.61415 234.5914,-234.61415 129.5618,0 234.5922,105.03047 234.5922,234.61415 0,129.56097 -105.0304,234.59468 -234.5922,234.59468 -129.561,0 -234.5914,-105.03371 -234.5914,-234.59468 z"
       style="fill:#ffffff;fill-opacity:1;fill-rule:evenodd;stroke-width:4;stroke-miterlimit:4;stroke-dasharray:none"
       id="path4476"
       inkscape:connector-curvature="0" />
    <path
       style="fill:#ffffff;fill-opacity:1;fill-rule:evenodd;stroke-width:4;stroke-miterlimit:4;stroke-dasharray:none"
       d="m 1760.1652,392.62594 c 0,-1.3 -0.9,-3.3 -1.9,-4.3 -2.9,-2.9 -3.8,-5 -5.1,-12.1 -0.7,-3.6 -1.8,-7.5 -2.6,-8.6 -1.5,-2.5 -8.8,-7 -13,-8 -1.6,-0.4 -3.9,-1.5 -5.1,-2.4 -1.3,-1 -4,-2.1 -6,-2.5 -7.6,-1.4 -14.6,-7.1 -12.7,-10.3 0.9,-1.4 3.4,-1.8 13.5,-2.4 10.1,-0.6 12.6,-1 13.6,-2.4 1.9,-2.6 1.6,-7.2 -0.8,-12.4 -1.1,-2.4 -2.2,-6.5 -2.5,-9 -1,-8.3 -1.3,-9 -4,-9 -1.3,0 -3.7,0.9 -5.2,2 -1.5,1.1 -5.5,2.5 -8.8,3 -3.4,0.6 -8.3,1.9 -10.9,3.1 -2.6,1.1 -7.3,2.4 -10.5,2.9 -3.1,0.4 -9,2.3 -13.1,4 -4.7,2.1 -9.6,3.4 -13.7,3.8 -5.2,0.4 -6.6,0.9 -8.3,3.1 -1.6,2 -1.9,3.4 -1.4,6.1 0.4,1.9 1,7 1.5,11.3 1,9.8 2.3,11.6 7.7,10 9.3,-2.8 14.1,-4.8 17.7,-7.5 4.6,-3.2 5.8,-3.4 8,-1.2 2.6,2.6 1.9,4.6 -3.7,9.9 -3,2.7 -8.6,8.7 -12.5,13.2 -8.3,9.4 -8.8,11.6 -4.8,20.7 1.4,3 2.8,8 3.1,11 1.4,10.7 4.5,11.1 11.4,1.5 2.5,-3.4 6.3,-8.2 8.6,-10.7 4.5,-5.2 9.5,-12.6 9.5,-14.2 0,-1.4 5.5,-7 6.9,-7 0.7,0 3.8,1.8 7,3.9 3.2,2.2 7,4.3 8.4,4.6 1.4,0.4 3.5,1.8 4.8,3.1 1.2,1.3 2.8,2.4 3.5,2.4 0.7,0 3.4,1.8 5.9,4 2.5,2.2 5.2,4 6,4 0.7,0 2.3,0.8 3.6,1.9 1.584,2.05049 4.3462,1.2239 5.9,-5.5 z M 1420.923,84.03531 c -4.1577,-0.02816 -4.5328,2.615624 -4.4577,11.390624 0,7.100006 -0.4,10.100006 -1.7,12.700006 -1.7,3.2 -2.4,8.6 -4.2,31.1 -0.4,4.7 -1.5,10.7 -2.6,13.4 -1.9,4.9 -1.9,5 0,7.5 2.7,3.6 5.9,5.1 11.4,5.1 2.6,0 6.6,0.7 8.9,1.6 3.5,1.4 4.2,1.5 5.5,0.3 2,-2.1 3.4,-10.9 3.4,-22 0,-10 1,-12.9 4.5,-12.9 1.8,0 4.5,2.8 4.5,4.5 0,1.4 5.1,11.7 8.4,17 1.1,1.6 2.9,4.6 4.1,6.5 1.3,1.9 2.6,4.7 2.9,6.2 0.9,3.8 4.6,6 10.3,6 2.7,0 6.7,0.9 9.1,2 4,1.9 4.4,1.9 6.7,0.4 2.6,-1.7 2.9,-2.5 4.4,-12.1 0.5,-3.3 1.6,-7.8 2.4,-10 0.8,-2.2 1.8,-8.5 2.2,-14 0.4,-5.5 1.2,-10.9 1.8,-12 0.6,-1.1 1.4,-4.3 1.8,-7 0.3,-2.8 1.2,-8.5 1.8,-12.8 1.6,-10.300006 1.3,-10.700006 -9.4,-10.700006 -7.6,0 -8.5,-0.2 -12,-3 -4.2,-3.3 -4.4,-3.4 -6.5,-2 -1.2,0.7 -1.4,3.9 -1.3,17.700006 0.1,9.2 -0.2,17.4 -0.6,18.2 -0.7,1.1 -1.7,0.8 -5.1,-1.5 -3.4,-2.3 -5,-4.5 -7.9,-10.9 -2,-4.5 -4.5,-9.3 -5.6,-10.7 -1.1,-1.5 -3.3,-5.000006 -5,-7.900006 -4.3,-7.5 -5.8,-8.7 -11.2,-9.4 -2.6,-0.3 -7.6,-1.2 -11,-1.9 -2.35,-0.475 -4.1563,-0.781248 -5.5423,-0.790624 z m -24.7577,0.190624 -2.7,0.1 c -3.5,0.1 -12.4,2.2 -14.3,3.4 -3.3,2.1 -26.3,4.7 -33.7,3.9 -4.6,-0.6 -5.4,-0.3 -7.7,1.9 -3.1,3.1 -3.2,5 -0.7,10.800006 1.2,2.7 2.4,9.1 3.1,16.4 0.6,6.6 1.6,13.3 2.1,15 0.5,1.6 1.6,7.9 2.5,13.9 1.5,10.4 1.5,11.1 -0.2,12.3 -1.5,1.1 -2.2,1 -4.8,-0.7 -1.7,-1.1 -6.7,-4.1 -11.1,-6.6 -4.4,-2.4 -8.7,-4.9 -9.5,-5.3 -0.8,-0.5 -3.4,-1.7 -5.7,-2.6 -6.3,-2.6 -8.7,-5.6 -8,-10.1 0.3,-2 1.8,-5.2 3.3,-7.1 1.5,-1.9 3.2,-5.5 4,-7.8 0.7,-2.4 2.2,-6.1 3.3,-8.2 1.1,-2.1 2.3,-5 2.5,-6.4 0.3,-1.4 1.7,-3.8 3.1,-5.3 1.5,-1.6 2.4,-3.500006 2.1,-4.300006 -0.3,-0.8 -0.6,-1.7 -0.6,-1.9 0,-0.2 -2,-0.4 -4.4,-0.4 -3.4,0 -5.2,0.7 -8.7,3.5 -2.4,1.900006 -5.1,3.500006 -5.9,3.500006 -1.9,0 -13.2,5.9 -14.2,7.4 -0.4,0.6 -0.8,2.6 -0.8,4.4 0,1.8 -1,5.4 -2.1,8 -1.2,2.6 -2.6,7.6 -3.1,11.2 -1.6,10.8 -2.2,12.5 -4.4,12.8 -3.9,0.6 -6.4,-2.8 -7.1,-9.3 -0.3,-3.3 -1.1,-6.9 -1.8,-8 -0.6,-1.1 -1.5,-3.6 -1.9,-5.6 -0.9,-5.1 -2.8,-6.5 -6.6,-4.9 -1.7,0.7 -3.7,2.2 -4.5,3.3 -0.9,1.2 -3.3,2.3 -6.6,2.9 -5.1,0.9 -12.9,5.7 -12.9,7.9 0,0.6 1.3,2.7 2.9,4.7 1.6,2 3.2,4.8 3.6,6.1 0.4,1.4 1.6,3.8 2.6,5.5 1.1,1.7 1.9,4 1.9,5.2 0,1.2 1.1,3.7 2.4,5.6 1.3,1.9 2.9,5.8 3.5,8.6 0.7,2.8 2.1,5.8 3.1,6.7 1.1,1 2.5,3.4 3.1,5.4 0.6,2 2,4.8 3.1,6.3 1,1.5 2.2,4.8 2.7,7.3 1.3,6.9 2.5,7.8 8.6,6.1 2.8,-0.8 6.8,-2.4 9,-3.5 2.1,-1.2 5.1,-2.1 6.5,-2.1 3.6,0 5,-1.7 5,-6.2 0,-2.7 -0.8,-4.6 -3,-7.1 -1.6,-1.9 -3,-3.9 -3,-4.4 0,-0.5 -1.6,-3 -3.6,-5.6 -2.7,-3.5 -3.5,-5.3 -3.2,-7.9 0.5,-5.1 3,-4.7 10.7,1.9 8.7,7.2 11.7,9.4 16.1,11.4 1.9,0.9 4.1,2.3 4.9,3.2 2.1,2.7 8.3,2.2 11.1,-0.8 1.3,-1.4 3,-2.5 3.7,-2.5 0.7,0 3.9,-1 7.1,-2.1 3.5,-1.3 9.7,-2.5 16.2,-2.9 14.6,-1.1 22.2,-2 24.5,-3 3.6,-1.4 16.3,-3 19.3,-2.4 5.9,1.2 7.6,-6.1 4,-17.4 -0.9,-3 -1.3,-3.3 -3.7,-2.7 -1.4,0.3 -7.2,1.4 -12.9,2.2 -11.7,1.8 -12.8,1.5 -13.8,-4.8 -1,-6.3 0.6,-7.1 13.5,-7 7.3,0.1 11.8,-0.2 12.7,-1 3.1,-2.6 0.9,-19.9 -2.6,-19.9 -0.5,0 -3.1,0.8 -5.7,1.9 -2.6,1 -7.9,2.4 -11.6,3.1 -8.3,1.5 -10,0.5 -10,-5.9 0,-6.5 0.7,-6.9 15,-7 8.9,-0.1 12.9,-0.5 13.5,-1.4 0.4,-0.6 0.8,-5.8 0.8,-11.500006 z m 135.039,22.146876 c -1.229,-0.0251 -2.5328,0.43438 -4.239,1.35313 -2.2,1.2 -2.8,2.4 -3.4,7.1 -0.4,3.5 -1.5,6.5 -2.9,8.2 -1.2,1.5 -2.6,3.8 -3,5.2 -0.4,1.4 -1.6,3.7 -2.7,5.2 -1,1.5 -2.5,4.5 -3.3,6.8 -0.8,2.2 -2.1,5.1 -3,6.3 -0.8,1.2 -1.5,3 -1.5,4.1 0,2.1 -6.3,15.7 -9.2,19.8 -1.3,1.9 -1.8,4 -1.6,6.5 0.3,3.7 0.4,3.8 5.2,4.5 2.7,0.4 5.8,1.6 7,2.7 1.1,1.1 4.1,2.4 6.4,3 2.4,0.5 5.4,1.8 6.5,2.9 1.2,1.1 3.3,2.3 4.7,2.7 1.4,0.4 4,1.9 5.8,3.2 2.3,1.7 5.4,2.8 10,3.3 3.7,0.5 7.5,1.2 8.4,1.5 0.8,0.3 4.1,-0.1 7.2,-1 4.9,-1.4 6.2,-2.4 9.5,-6.8 8.3,-11.1 9.2,-16 3.6,-20.3 -5.6,-4.2 -4.9,-6.8 2.9,-10.4 11.6,-5.5 14.7,-14 8.3,-23.2 -3.8,-5.6 -13.3,-13.4 -17.3,-14.4 -1.6,-0.4 -3.6,-1.2 -4.4,-1.9 -0.8,-0.7 -3.5,-2.2 -6,-3.4 -9.8,-4.8 -14.9,-7.7 -17.9,-10.4 -2.0251,-1.68751 -3.4809,-2.52083 -5.061,-2.55313 z m 17.461,26.85313 c 1.6,0 7.6,4.2 8.5,6 1.3,2.5 1.3,7.3 -0.2,10.5 -1.4,3.2 -3.9,3.2 -11.2,0 -5,-2.2 -5.6,-2.8 -5.6,-5.4 0,-2.1 1.2,-4.2 3.8,-7.1 2.2,-2.2 4.2,-4 4.7,-4 z m -334.3,10 c -0.4,0 -3.2,2.6 -6.3,5.9 -3,3.2 -7.4,6.8 -9.7,8 -4,2 -4.2,2.4 -4.2,6.5 0,4.2 0.3,4.6 6.5,9.5 13.9,10.9 18.5,17 14,18.7 -1.8,0.7 -11.9,-1.8 -16,-4 -1.6,-0.9 -5,-1.6 -7.5,-1.6 -2.5,-0.1 -7.3,-0.7 -10.8,-1.4 -7.9,-1.7 -12,-0.8 -17.1,3.5 -2.2,1.9 -6.4,5.2 -9.5,7.4 -3,2.2 -5.6,4.5 -5.6,5 0,0.6 4,4.6 9,9 4.9,4.4 9.5,9.2 10.1,10.8 0.6,1.5 7.2,8.7 14.6,16.1 11.5,11.4 13.4,13.7 12.8,15.6 -0.7,2.1 -1.1,2.2 -7.4,1.5 -3.6,-0.4 -8.4,-1.1 -10.6,-1.7 -6.9,-1.7 -14.6,-2.8 -27,-3.7 -11.1,-0.8 -15.3,-1.5 -27.4,-4.2 -5.1,-1.1 -5.5,-0.7 -6.5,5.4 -0.7,3.9 -2.1,6.3 -8.3,13.6 -4.7,5.5 -4.4,8 2.5,16.1 3.1,3.8 8.8,11.5 12.5,17.2 7.3,11 8.7,13 15.7,22.2 9.2,12 9,13.2 -3,13.7 -6.3,0.3 -8.3,0.8 -10.2,2.5 -3.1,2.9 -6.3,3.8 -7.5,2.2 -0.6,-0.7 -1.3,-3 -1.7,-5 -0.6,-3.2 -1.5,-4.2 -6.6,-7.3 -6,-3.6 -7.5,-4 -14.1,-3.7 -3,0.2 -4.7,1.4 -10.7,7.4 -4,3.9 -7.2,7.8 -7.2,8.5 0,0.7 -1.3,5.3 -2.9,10.1 -1.5,4.8 -3.1,11.3 -3.5,14.5 -0.4,3.2 -1.9,8.2 -3.2,11.2 -1.9,4.1 -2.4,6.7 -2.2,10.7 l 0.3,5.3 8,0.6 c 4.7,0.3 10.2,1.5 13.3,2.7 2.9,1.2 6.8,2.2 8.8,2.2 2,0 6.8,1.1 10.7,2.4 4,1.3 9,2.7 11.2,3.1 2.2,0.3 6.6,1.9 9.7,3.6 6.9,3.5 12.2,3.8 13.9,0.8 0.6,-1.2 1.7,-5.7 2.5,-10 0.7,-4.4 2.1,-9.3 2.9,-11 1.9,-3.6 1.1,-6.7 -1.8,-7.3 -1.2,-0.2 -5.1,-1 -8.7,-1.7 -3.6,-0.6 -9.2,-1.4 -12.5,-1.6 -6.4,-0.5 -7.5,-1.3 -7.5,-5.5 0,-4.1 4.8,-6.4 16,-7.8 13.3,-1.6 19.4,-2.9 21.6,-4.4 1.5,-1.1 2,-3.3 2.5,-10.3 0.6,-9.3 2.7,-14.4 8.6,-21.6 1.6,-2 2.3,-4.1 2.3,-7.3 0,-2.4 -0.5,-4.4 -1,-4.4 -0.6,0 -2.2,-1.1 -3.5,-2.4 -3.1,-3.1 -2.5,-7.6 1.7,-12.4 1.5,-1.8 2.8,-3.8 2.8,-4.5 0,-0.7 1.1,-2.8 2.5,-4.7 1.4,-1.9 2.5,-4.4 2.5,-5.6 0,-3.4 2.4,-4.7 7.8,-4.1 2.6,0.3 5.4,0.8 6.3,1.2 2.3,0.9 7.6,-3.9 8.5,-7.7 0.9,-4.3 7.9,-13.6 11.7,-15.7 1.6,-0.9 4.3,-2.8 5.9,-4.4 1.6,-1.5 3.2,-2.7 3.6,-2.7 0.4,0 2.2,-1.4 4,-3.1 3.8,-3.6 4.2,-7.3 1,-9 -2.2,-1.1 -9.7,-7.4 -17.5,-14.6 -2.4,-2.2 -3.3,-4 -3.1,-5.5 0.5,-3.9 5.5,-3.7 21.8,1.2 3.6,1.1 10.5,2.6 15.4,3.4 l 8.9,1.4 7.3,-6.7 c 3.9,-3.6 8,-7.2 8.9,-8 2.6,-2.1 1,-5.8 -4.9,-12.1 -2.9,-3 -6.1,-6.9 -7.1,-8.5 -1,-1.7 -2.7,-3.9 -3.6,-5 -1,-1.1 -4.3,-4.9 -7.4,-8.5 -3.1,-3.6 -6.9,-7.9 -8.4,-9.5 -3.2,-3.4 -11.7,-14 -14.4,-17.9 -1,-1.4 -2.1,-2.6 -2.5,-2.6 z m 399.8624,9.075 c -2.5375,0 -4.7625,2.575 -8.7625,7.725 -3.4,4.3 -9.3,11.2 -13.2999,15.3 -8.8,9 -10.5,11.3 -14.7,20.2 -4,8.3 -4.8,16.8 -1.9,21.2 1,1.5 2.3,4.2 2.9,6 1.4,3.9 14.2,17.4 21.6999,22.8 2.9,2.1 6.6,4.1 8.4,4.4 1.7,0.3 4.3,1.2 5.8,1.9 8.3,4.2 21.5,-2.2 34.4,-16.6 2.7,-3 10.1,-10.6 16.3,-16.9 11.9,-11.9 12.4,-13 7.5,-15.6 -5.1,-2.7 -11.5,-7.9 -12.8,-10.4 -2.7,-5.2 -4.1,-5.6 -9.1,-2.7 -2.5,1.5 -4.5,3.1 -4.5,3.5 0,1.3 -8.5,11.2 -18.9,22.2 -8.8,9.2 -9.7,9.9 -13.4,9.9 -3.2,0 -4.5,-0.7 -7.8,-4.1 -3.5,-3.6 -3.9,-4.6 -3.9,-9.1 0,-4.5 0.4,-5.4 4.8,-10 11.3,-11.9 25.9,-26.4 27.7,-27.4 1.9,-1.1 1.9,-1.1 0,-4 -1,-1.6 -5.4,-6.4 -9.8,-10.6 -5.25,-5.15 -8.1,-7.725 -10.6375,-7.725 z m -78.4828,9.04531 c 4.3078,0.15469 9.6704,3.75469 11.3204,8.47969 1.3,3.8 1.3,4.3 -0.7,7.1 -3.8,5.4 -11.5,4.9 -17.1,-1.1 -2,-2.2 -2.1,-2.4 -0.5,-7.2 0.9,-2.7 2.4,-5.5 3.2,-6.2 1.0249,-0.8 2.3437,-1.13125 3.7796,-1.07969 z m 145.0203,77.97969 c -0.6,0.1 -5.3,0.6 -10.5,1 -8.5,0.8 -9.8,1.1 -12.5,3.8 -1.7,1.6 -4.2,3.4 -5.4,4.1 -5.2,2.6 -10.5,8.6 -13.8,15.6 -3,6.5 -3.4,8.1 -3.4,15.7 0,7 0.5,9.8 2.8,15.4 1.5,3.7 3.6,8.1 4.7,9.7 3.8,5.5 15.7,17.4 18.6,18.6 2.6,1.1 3.3,1 6.7,-1.3 2,-1.4 5.8,-3.5 8.4,-4.6 8.1,-3.4 8.1,-6.4 -0.1,-10.6 -7,-3.5 -11.9,-9.2 -14.3,-16.6 l -2.2,-6.8 2.3,-4.8 c 2.2,-4.7 9.6,-11.1 14.9,-12.7 2.7,-0.9 7.3,1.5 13,6.7 6.4,6 7.9,10.3 7.2,20.2 -0.4,4.4 -0.8,8.7 -1.1,9.5 -0.5,1.7 3.6,2.7 5.4,1.2 0.7,-0.5 2.4,-1.2 3.9,-1.6 1.5,-0.3 4.3,-2.1 6.2,-3.9 1.8,-1.7 4.6,-4.1 6.1,-5.1 2.6,-1.8 2.7,-2.2 2.2,-8.2 -0.4,-3.6 -1.6,-8.3 -3,-11.1 -1.4,-2.6 -2.8,-6.3 -3.2,-8.1 -0.4,-1.8 -1.3,-3.6 -2.1,-3.9 -0.8,-0.3 -2.2,-2 -3.1,-3.7 -3,-5.9 -13.2,-14 -21.1,-16.7 -3,-1 -6,-1.8 -6.6,-1.8 z m -543.5999,29.9875 c 1.65,-0.0875 4.25,0.2625 8.4,1.0125 3.4,0.6 7.1,1.3 8.3,1.5 3.3,0.6 3.7,3.8 1.3,8.9 -2.2,4.6 -6.2,8.5 -8.7,8.5 -0.7,0 -1.9,-1.2 -2.5,-2.8 -0.7,-1.5 -3.4,-4.8 -6.1,-7.5 -2.6,-2.6 -4.6,-5 -4.4,-5.5 0.2,-0.4 0.7,-1.5 1,-2.5 0.35,-1 1.05,-1.525 2.7,-1.6125 z m -41.0907,79.01563 c 1.0037,0.0422 2.1281,0.42187 3.5907,1.09687 5.2,2.4 7.3,11 3.5,14.8 -2.2,2.2 -8.1,2.7 -12.4,1 -2.3,-0.8 -2.6,-1.5 -2.6,-6.1 0,-4.3 0.5,-5.5 2.9,-8 2,-2 3.3364,-2.86719 5.0093,-2.79687 z M 1066.6371,407.24 c -3.9844,-0.0516 -4.6218,0.36094 -5.3718,1.78594 -1.5,2.8 0.1,21.5 2,23.8 1.1,1.3 1.4,5.5 1.4,17.7 l 0,15.9 37.2,0 c 20.4,0 37.6,-0.2 38.1,-0.6 1.5,-0.9 1.2,-28.4 -0.4,-29.7 -1.5,-1.2 -17.6,0.3 -23,2.3 -2.9,1 -3.7,1 -4.9,-0.3 -1.3,-1.3 -1.4,-3.1 -0.4,-13.7 0.8,-9.5 0.8,-12.6 -0.1,-13.7 -0.9,-1.1 -3.4,-1.5 -9.1,-1.5 -9.8,0 -10,0.3 -8.8,13 1.4,13.8 1.4,15.1 -0.2,16.1 -2.1,1.3 -8.3,1.1 -10.3,-0.4 -1.6,-1.2 -1.7,-2 -0.7,-8.8 1.6,-10.6 1.7,-18.7 0.4,-20 -0.7,-0.7 -5.4,-1.4 -10.6,-1.7 -2.2,-0.1 -3.9,-0.16875 -5.2282,-0.18594 z m 667.2906,3.04843 c -2.4375,-0.0625 -4.8625,0.43751 -6.2625,1.53751 -1.1,0.9 -3.7,2.3 -5.8,3.1 -4.4,1.8 -8.1,7.5 -9.2,14.2 -1,6.4 -3.6,8.5 -9.3,7.6 -8.4,-1.1 -8.5,-1.2 -7.9,-5.7 0.4,-3 1.6,-5.2 4.6,-8.2 4.3,-4.3 5.1,-7.5 2.6,-9.6 -1.1,-0.9 -2.8,-0.9 -7.8,0.4 -3.5,0.9 -7.7,1.6 -9.4,1.6 -3.7,0 -5.3,3 -5.3,9.8 0,8.5 -0.5,9.1 -6.8,9.4 -5.4,0.3 -5.6,0.4 -6.4,3.6 -1.2,4.6 0.4,6.9 6,8.5 5.3,1.6 7.2,4.1 7.2,10 0,3.3 0.8,4.6 6.3,10.3 l 6.3,6.4 8.7,0 c 8.6,0 8.7,0 12.7,-3.8 4.6,-4.1 10,-12.8 10,-16 0,-1.2 1,-3.3 2.3,-4.8 2,-2.3 2.9,-2.6 5.8,-2 2,0.3 4.4,1.2 5.4,2 1.8,1.3 1.7,1.5 -0.4,6 -1.3,2.5 -3.1,5.1 -4.2,5.6 -3.3,1.8 -4.1,4.6 -2.4,8.6 1.3,3.1 1.8,3.5 3.7,2.9 1.3,-0.3 4.2,-1.1 6.5,-1.5 8.7,-1.9 12.3,-5 12.3,-10.9 0,-5 1.7,-7.9 5.8,-10 4.1,-2.1 5.2,-3.7 5.2,-7.7 0,-2.1 -3.6,-5.4 -7.2,-6.6 -0.5,-0.2 -1.6,-3.4 -2.7,-7.1 -1.9,-7 -5.5,-12.1 -9.5,-13.3 -1.2,-0.4 -3.2,-1.5 -4.5,-2.5 -1.45,-1.15 -3.9,-1.775 -6.3375,-1.83751 z m 1.7,20.02501 c 1.4625,0.0125 2.8375,0.6125 3.9375,1.8125 2.7,2.9 1.7,6.5 -1.8,6.9 -7,0.8 -11.1,-3.4 -6.6,-7 1.45,-1.15 3,-1.725 4.4625,-1.7125 z m -38.2469,15.06094 c 0.7469,-0.0172 1.6344,0.002 2.6844,0.0515 4.9,0.3 5.6,0.6 5.9,2.5 0.2,1.2 -0.4,3.5 -1.3,5.2 -2.7,5.3 -9.2,3.7 -10.8,-2.7 -0.3,-1.3 -0.3,-3 0,-3.8 0.3,-0.825 1.275,-1.2 3.5156,-1.25156 z"
       id="path4478"
       inkscape:connector-curvature="0"
       sodipodi:nodetypes="csccccccscccssccccccccccsccccccsscccsssccscccccsccssscccscccsssccsccccscccccscccccccccccccccscsccssscssscccccccccssccssccsccccsscsccccccscccccccsccsccscsscscccscccsccccccsccccccccssccsscccscssccscccccccsccccscccccccccccccccscscccccscccccccccsccccssscssscccccsccccccccccccsccsscccccccccccccscscsccccsscccscscccccscccccccccccccccccccsscccscccscsccsscscscssccscscccccssccscscssccccssccsscccsccscsccccccccsssccccsscscsscccccs" />
    <path
       sodipodi:nodetypes="scscssccccsscccccccccccsccccccsccccccsccccscccscssccsscccccsccccccsccccccscccccssccccccccscccssccscccscccsccccccscsccccscccsccccsccsssscscscccccscscccccscscccscccssccscsccsccccccscccccscsccccccccccsscccccccsssccsccscccsccccccccscccccscscccccscccscsccsscscccccccssccccccccccccccscssscccsccsccccscccccsccccccscscccsccsscscsccccccccccscccccccccccccccssccccccccscsscccccsccscssccsccccccsccccccccccscsccscccccccsccccccsccsscscscccccscsccccccscccccccsccscccccccccccsccccscccsccsccscsccssccccccccccccccccccccccscccccscccccccccsccccccccccccccsccscccsccscccccccccccsccccsccccsscccscsscccccsscsscccscccccccccccccsscccccccccscssccsccccccscscccccscccscsccccccccccccccccccccscscccsccsscscsccccccsccsssccsssccsccccccccsscccsccsscccccscccsccccsccssccccccscscccsssccccsscsssccsscsssscscccsccccccccccccccccccsssssssccsccscccccssccccccsccccccccsccsccscccccccsscccssccscssscsccssccccscccccccsccccscccscccccscccccccccsssccccscsccccccccccsscccssscccccccccsssccsccsccsscsccccscsc"
       inkscape:connector-curvature="0"
       id="path4626"
       d="m 1429.0855,212.99897 c -1.2627,0.0403 -2.3276,0.28403 -2.6593,0.76305 -0.7861,1.27739 3.6357,11.98783 4.9131,11.98783 2.8495,0 5.4043,-8.84348 3.2426,-11.39826 -0.737,-0.9212 -3.3921,-1.41979 -5.4964,-1.35262 z m -45.9923,0.002 c -2.26,0 -4.52,0.31935 -4.9131,0.95805 -0.6878,1.08087 1.2774,8.84348 2.6531,10.51391 0.5896,0.68783 1.3756,0.98261 1.8669,0.68783 1.5722,-0.88435 5.8957,-10.21914 5.3061,-11.20174 -0.393,-0.6387 -2.653,-0.95805 -4.913,-0.95805 z m 25.9624,0.0584 c -0.5051,-0.004 -1.0656,0.003 -1.692,0.0153 -3.0461,0 -6.1904,0.29478 -6.8782,0.58956 -0.7861,0.29479 -2.1618,2.35826 -3.1444,4.61826 -0.9826,2.16174 -3.6356,5.89566 -5.7974,8.25392 -4.52,4.61826 -4.52,5.10956 0.9826,9.82609 7.6644,6.68174 11.7913,27.90609 8.2539,42.74348 -3.9304,16.40957 -4.7165,18.47304 -8.0573,21.02783 -4.127,3.14435 -4.127,5.30608 0.1965,8.54869 2.3582,1.86696 3.5374,3.63566 4.0287,6.2887 0.393,1.96522 1.5721,5.79739 2.5548,8.5487 1.5721,3.83217 1.9652,7.2713 1.8669,15.42695 0,11.69305 -0.8843,14.54261 -4.52,14.54261 -3.5374,0 -5.5026,-4.71652 -6.3869,-15.23043 -0.4914,-5.60087 -1.6705,-11.00522 -3.2427,-14.73913 -1.2773,-3.24261 -2.653,-6.68174 -3.046,-7.66435 -1.0809,-3.24261 -3.8322,-1.37565 -6.0922,4.22522 l -4.3235,10.80869 c -1.2774,2.94783 -2.653,8.05739 -3.1443,11.3 -1.1792,7.46783 -2.7513,10.8087 -5.2079,10.8087 -5.3061,0 -7.173,-14.64087 -3.2426,-26.13739 1.9652,-5.89566 3.8322,-8.84348 10.7105,-16.31131 3.5373,-3.93043 3.5373,-4.81478 0.098,-6.97652 -3.4391,-2.06348 -11.3982,-11.00522 -13.56,-15.03392 -1.2774,-2.55478 -1.4739,-5.60087 -1.1791,-16.99913 0.5896,-18.17826 2.1617,-22.50174 12.2826,-32.72087 3.9304,-4.0287 7.173,-7.56609 7.173,-7.86087 0,-0.29478 -2.0634,-3.14435 -4.6182,-6.2887 -5.0113,-6.19043 -7.2713,-7.36956 -12.3809,-6.38696 -1.6704,0.29479 -4.8148,0.88435 -6.78,1.17914 -2.653,0.4913 -4.913,2.06347 -9.04,6.38695 -3.0461,3.14435 -5.5026,6.38696 -5.5026,7.27131 0,0.78608 1.7687,3.34087 3.8322,5.69913 2.5548,2.7513 4.6182,6.58348 6.3869,11.59478 4.0287,11.69305 3.6357,25.15479 -1.4739,44.31566 -0.5895,2.16174 -2.0635,4.42174 -3.8322,5.69913 -5.306,3.83217 -5.6008,5.50261 -1.2774,9.5313 5.6992,5.40435 9.1383,16.31131 9.1383,29.47827 0,8.84348 -0.2948,10.41565 -1.9652,12.08609 -4.7165,4.71652 -7.7626,0.0983 -8.3522,-12.5774 -0.393,-7.46782 -0.8843,-9.33478 -4.1269,-15.62348 -2.0635,-3.93043 -4.2253,-7.17304 -4.9131,-7.17304 -1.5722,0 -7.173,9.62957 -7.173,12.28261 0,1.08087 -1.0809,4.32348 -2.4565,7.17304 -1.3757,2.94783 -2.4566,6.68174 -2.4566,8.35218 -0.098,1.76869 -0.6878,4.81478 -1.3756,6.87826 -0.7861,1.96522 -1.0809,3.83217 -0.6878,4.0287 0.393,0.29478 10.3173,0.4913 22.2069,0.4913 11.8896,0.0983 23.1896,0.0983 25.0565,0.19652 1.867,0.0983 4.9131,0.0983 6.6818,0 7.7626,-0.29478 12.1843,-0.29478 39.5991,-0.19652 16.0165,0.0983 29.7731,-0.0983 30.6574,-0.4913 1.2774,-0.49131 1.2774,-0.98261 -0.4913,-3.93044 -1.3757,-2.35826 -2.26,-6.19043 -2.7513,-11.98783 -0.393,-4.91304 -1.7687,-11.3 -3.1444,-14.93565 -2.8495,-7.76261 -3.4391,-8.84348 -5.2078,-8.84348 -1.6704,0 -6.1904,7.76261 -6.9765,11.98783 -0.393,1.76869 -1.3757,4.52 -2.3583,6.19043 -0.9826,1.57218 -1.9652,5.7974 -2.26,9.23653 -0.5895,7.36956 -3.0461,10.80869 -6.3869,9.04 -4.4218,-2.35826 -5.4044,-12.87218 -2.1618,-23.58261 2.0635,-6.97653 4.9131,-11.49653 10.3174,-16.50783 1.867,-1.7687 3.4392,-3.83218 3.4392,-4.61826 0,-0.78609 -2.26,-2.94783 -4.9131,-4.91305 -7.173,-5.10956 -11.9878,-13.16695 -12.8722,-21.12609 -1.9652,-18.47304 2.5548,-33.21217 13.2653,-43.62783 6.5834,-6.38695 6.5834,-6.58347 0.4913,-14.14956 -1.867,-2.35826 -4.3235,-5.50261 -5.6009,-7.17305 -1.8055,-2.32141 -2.6331,-2.83805 -6.1689,-2.86491 z m 41.6457,4.90383 c -2.6179,0.0315 -4.6045,1.76869 -7.8655,5.52717 -2.653,3.14435 -5.2078,6.2887 -5.6009,6.87826 -0.393,0.78609 1.0809,2.94783 4.2253,5.79739 2.9478,2.65305 5.1095,5.69914 5.5026,7.46783 0.393,1.67044 1.4739,4.81478 2.5547,7.07478 1.474,3.43914 1.7687,5.99392 1.474,15.42696 -0.4913,15.03392 -3.9305,27.90609 -8.8435,33.4087 -4.6183,5.01131 -4.52,7.07478 0.393,10.31739 2.26,1.57218 3.9305,3.43913 3.9305,4.52 0,0.98261 0.8843,4.32348 1.9652,7.46783 1.0808,3.04609 2.26,9.53131 2.653,14.44435 0.4913,7.86087 0.2948,9.33478 -1.5722,13.0687 -1.1791,2.26 -2.653,4.12695 -3.2426,4.12695 -0.8843,0 -0.8843,0.29479 0,1.17913 1.5722,1.57218 43.0383,2.55479 47.6566,1.17914 1.7687,-0.58957 1.6704,-0.78609 -0.5896,-3.14435 -3.5374,-3.83218 -4.6183,-6.48522 -4.6183,-11.20174 0,-4.52 -0.5895,-6.87826 -3.8321,-15.52522 -3.0461,-8.05739 -4.127,-8.74522 -7.2713,-4.22522 -2.8496,4.12696 -6.0922,12.57739 -7.9592,20.63478 -1.0808,5.10957 -3.8322,9.13827 -6.0922,9.13827 -0.6878,0 -2.1617,-1.17913 -3.3408,-2.75131 -1.867,-2.26 -2.0635,-3.53739 -1.7687,-9.04 0.6878,-9.13826 3.7339,-16.21304 10.1209,-23.09131 2.9478,-3.2426 5.4043,-6.48521 5.4043,-7.07478 0,-0.68783 -1.6704,-2.06348 -3.6357,-3.14435 -4.1269,-2.06348 -7.3695,-5.40435 -11.3,-11.39826 -2.0634,-2.94783 -2.8495,-5.69913 -3.3408,-11.3 -1.4739,-16.60609 3.8322,-32.22957 14.0513,-41.9574 4.2252,-3.93043 5.2078,-5.5026 4.7165,-7.07478 -0.9826,-3.24261 -9.433,-10.71043 -15.6235,-13.85478 -3.697,-1.89152 -6.1149,-2.89865 -8.151,-2.87413 z m 29.7485,10.83479 c -0.4283,0.023 -0.5942,0.39151 -0.3731,0.98108 0.1965,0.68782 0.9826,1.47391 1.6704,1.67043 0.7861,0.29478 1.1791,-0.0983 0.8844,-0.88435 -0.1966,-0.68782 -0.9826,-1.47391 -1.6705,-1.67043 -0.1965,-0.0737 -0.3685,-0.10439 -0.5112,-0.0967 z m -158.1064,0.71086 c -0.7007,0.0179 -1.394,0.1044 -2.0389,0.27022 -1.5722,0.39304 -3.7339,1.67043 -4.9131,2.65304 -1.0808,1.08087 -3.7339,2.45652 -5.6991,3.04609 -2.0635,0.68782 -3.9304,1.57217 -4.2252,2.06348 -0.2948,0.4913 -2.8496,1.96521 -5.6991,3.43913 -5.994,2.94782 -11.5948,6.28869 -14.1496,8.45043 -0.9826,0.88435 -4.8148,3.24261 -8.4504,5.30609 -3.734,2.06348 -6.9766,4.22522 -7.2713,4.91304 -0.1966,0.78609 -2.1618,2.45653 -4.2253,3.83218 -5.8956,3.93043 -18.08,15.82 -28.8887,28.39739 -13.1669,15.3287 -14.9356,17.49044 -15.7217,19.94696 -0.393,1.17913 -1.4739,2.84957 -2.5548,3.83218 -1.0809,0.9826 -1.9652,2.26 -1.9652,2.84956 0,0.49131 -2.4565,4.81478 -5.4043,9.53131 -2.9479,4.71652 -5.4044,8.94174 -5.4044,9.43304 0,0.49131 -1.2774,2.84957 -2.8496,5.30609 -1.5721,2.35826 -3.1443,6.09217 -3.5374,8.25391 -0.393,2.16174 -1.7687,5.69913 -3.046,7.95913 -1.2774,2.16174 -2.3583,5.50261 -2.3583,7.36957 0,1.86696 -0.8844,5.0113 -1.9652,7.07478 -1.0809,1.96522 -2.5548,7.27131 -3.3409,11.69305 -0.7861,4.52 -2.4565,11.69304 -3.6356,16.01652 -2.0635,7.27131 -2.1618,9.92435 -2.1618,35.86522 -0.098,28.59392 0.3931,33.70348 4.6183,47.16522 0.6878,2.45653 1.6704,6.87826 2.0635,9.82609 0.393,2.94783 1.3756,6.68174 2.1617,8.15565 0.7861,1.57218 1.7687,5.20783 2.26,8.15566 0.4913,2.94782 1.7687,6.58348 2.8496,8.15565 1.0808,1.47391 2.3582,4.61826 2.9478,6.87826 0.4913,2.26 1.6704,5.01131 2.5548,5.99392 0.8843,0.88434 2.0634,3.43913 2.5548,5.5026 0.5895,2.16174 1.8669,4.71653 2.7513,5.7974 1.7687,2.06347 8.9417,13.75652 8.9417,14.54261 0,0.68782 5.9939,9.43304 10.907,15.91826 6.78,8.84348 35.3739,37.73218 39.5008,39.89392 2.0635,1.08087 3.9305,2.55478 4.2252,3.2426 0.4914,1.37566 4.6183,4.12696 16.1148,11.00522 3.5374,2.06348 7.6644,4.81479 9.1383,5.99392 1.5722,1.27739 3.4391,2.26 4.127,2.26 0.6878,0 2.5547,1.08087 4.1269,2.35826 1.5722,1.37565 4.2252,2.7513 5.7974,3.04609 1.5722,0.39304 5.1096,1.76869 7.9591,3.14434 2.7513,1.27739 6.9766,2.65305 9.3348,2.94783 2.3583,0.29478 5.1096,1.37565 6.1904,2.35826 1.0809,0.98261 4.7166,2.16174 8.0574,2.75131 3.3409,0.4913 7.4679,1.67043 9.2366,2.55478 1.7687,0.98261 8.5487,2.45652 15.2304,3.43913 6.6817,0.98261 12.5774,2.06348 13.2652,2.45652 0.5896,0.39304 2.7513,0.19652 4.8148,-0.4913 3.2426,-1.08087 4.0287,-0.98261 6.387,0.58956 2.4565,1.57218 4.52,1.7687 15.6234,1.47391 7.0748,-0.0983 13.7566,-0.78608 14.8374,-1.37565 1.0809,-0.58956 5.3061,-1.17913 9.3348,-1.27739 10.6122,-0.19652 20.8313,-1.96522 27.4148,-4.71652 3.2426,-1.27739 8.1557,-2.65304 11.1035,-3.04609 5.9939,-0.78609 9.2365,-2.45652 10.1208,-5.40435 0.4914,-1.67043 0.9827,-1.76869 2.6531,-0.88434 2.4565,1.27739 8.2539,0.4913 10.5139,-1.37566 0.8844,-0.78608 3.3409,-1.96521 5.5026,-2.65304 2.1618,-0.68783 4.6183,-1.7687 5.4044,-2.55478 0.7861,-0.68783 3.4391,-2.16174 5.8956,-3.34087 4.127,-1.86696 10.5139,-5.69913 17.2939,-10.21913 1.5722,-1.08087 4.9131,-3.24261 7.5661,-4.91305 5.2078,-3.43913 6.387,-5.99391 4.7165,-11.39826 -0.5895,-1.96522 -1.0808,-5.01131 -1.0808,-6.58348 0,-1.67043 -0.5896,-3.43913 -1.1792,-3.93043 -0.6878,-0.49131 -7.173,-1.08087 -14.4443,-1.17914 -7.2713,-0.0983 -13.6583,-0.4913 -14.1496,-0.78608 -0.393,-0.19652 -3.1443,-0.88435 -5.8956,-1.37565 -2.8496,-0.39305 -6.4852,-1.08087 -8.1557,-1.47392 -4.52,-0.88435 -6.5835,0.78609 -10.6122,7.95913 -2.9478,5.40435 -3.4391,6.97653 -2.7513,9.92435 0.8844,4.22522 -3.9159,16.61089 -2.3437,13.17176 -0.4438,2.75107 -0.989,5.89073 -1.4884,9.32998 -0.5896,-2.16174 -1.2774,-4.52 -1.4739,-5.20782 -0.6879,-2.26 -2.3583,-1.17913 -2.1618,1.47391 0.2948,4.52 -1.1791,7.27131 -4.7165,8.74522 -4.52,1.86696 -9.2365,1.76869 -9.2365,-0.19652 0,-2.35826 6.5834,-16.11479 7.7626,-16.11479 1.7687,0 3.2426,-3.93043 4.0287,-10.71043 0.6878,-5.20783 1.3756,-6.87826 3.4391,-8.74522 2.26,-1.96522 2.5548,-2.65305 1.9652,-6.09218 -0.5895,-3.53739 -0.393,-3.93043 2.26,-5.30608 2.5548,-1.37566 2.9479,-2.06348 3.4392,-7.46783 0.4913,-6.2887 2.26,-9.23652 5.9939,-10.41565 3.3408,-1.08087 3.4391,-2.35826 0.5895,-8.15566 -4.8147,-9.62956 -6.1904,-15.03391 -5.0113,-19.35739 0.5896,-2.16174 1.0809,-5.0113 1.0809,-6.58348 0,-1.76869 1.0809,-3.63565 3.0461,-5.40435 2.9478,-2.65304 3.0461,-3.04608 2.4565,-7.46782 -1.2774,-8.35218 -6.0922,-6.87827 -7.173,2.26 -0.3931,3.63565 -1.2774,5.89565 -2.9479,7.56608 -2.0634,2.06348 -2.26,2.94783 -1.6704,6.78 0.2948,2.45653 0.2948,8.15566 -0.098,12.77392 -0.6878,8.05739 -0.786,8.35217 -6.0921,15.42696 -2.9479,3.93043 -8.4505,10.12087 -12.1844,13.65826 -5.2078,5.10957 -7.173,6.38696 -9.04,6.09217 -4.1269,-0.78608 -8.9417,1.08087 -9.5313,3.73392 -0.5896,2.26 -0.9826,2.35826 -7.8609,2.35826 -4.0287,0 -8.1556,0.4913 -9.1382,1.08087 -1.5722,0.88435 -0.6878,1.47391 5.7974,3.73391 8.4504,3.04609 10.5139,2.75131 11.0052,-1.67043 0.2948,-2.26 0.6878,-2.55479 3.1443,-1.96522 1.9653,0.39304 4.0287,-0.0983 6.4853,-1.57218 4.0287,-2.45652 6.8782,-1.96521 7.566,1.17914 0.7861,3.04608 -2.4565,17.88348 -4.4217,20.04521 -0.7861,0.98261 -1.867,3.5374 -2.1617,5.69914 -0.3931,2.16174 -1.4739,5.0113 -2.3583,6.38695 -0.8843,1.37566 -3.1443,5.30609 -4.913,8.84348 -1.867,3.53739 -3.734,6.97652 -4.3235,7.56609 -1.7687,2.16174 -5.5026,1.47391 -6.9765,-1.17913 -1.2774,-2.55478 -9.8261,-12.47913 -17.0974,-19.94696 -5.3061,-5.30609 -5.3061,-7.36957 -0.2948,-10.51391 2.1617,-1.37566 3.9304,-3.04609 3.9304,-3.73392 0,-0.68782 -1.9652,-3.24261 -4.4217,-5.60087 -3.9305,-3.93043 -4.9131,-4.32348 -10.0226,-4.71652 -6.387,-0.4913 -7.3696,0.19652 -10.3174,6.87826 l -1.6705,3.53739 4.4218,2.06348 c 5.3061,2.55479 5.6991,5.30609 1.6704,11.3 -1.3756,2.26 -3.6356,5.60087 -4.913,7.56609 -1.2774,1.86696 -2.26,3.93044 -2.26,4.61826 0,2.06348 -9.2366,10.12087 -11.3,9.82609 -1.6705,-0.29478 -2.0635,-1.27739 -2.5548,-6.68174 -0.2948,-3.53739 -1.2774,-7.76261 -2.1618,-9.33478 -0.8843,-1.67044 -1.6704,-3.83218 -1.6704,-5.01131 0,-1.08087 -1.1791,-4.42174 -2.653,-7.36956 -2.26,-4.32348 -2.7513,-6.58348 -2.7513,-12.38087 0,-6.09218 0.2947,-7.36957 2.4565,-9.72783 1.7687,-1.86696 2.0635,-2.75131 1.1791,-3.04609 -0.6878,-0.29478 -3.6356,-1.76869 -6.5835,-3.34087 -2.9478,-1.57217 -6.3869,-2.84956 -7.6643,-2.84956 -1.6704,0 -3.1444,-1.17913 -5.0113,-3.93044 -1.3757,-2.16174 -2.9478,-3.93043 -3.3409,-3.93043 -1.0809,0 -13.3635,-14.73914 -16.8026,-20.04522 -3.8322,-6.09218 -4.52,-9.62957 -2.9478,-15.13218 1.1791,-4.22522 1.0808,-4.52 -1.0809,-6.2887 -3.9304,-3.14434 -4.4217,-1.17913 -4.52,17.98175 0,17.58869 0,17.78521 2.1617,18.66956 3.6357,1.37565 5.3061,4.91305 5.2079,10.90696 -0.098,3.04609 0.1965,5.99391 0.4913,6.58348 1.4739,2.26 7.8608,0.88435 11.3,-2.55478 1.8669,-1.86696 9.433,-1.37566 9.433,0.68782 0,0.78609 -0.9826,1.57218 -2.1617,1.7687 -1.2774,0.19652 -3.1444,1.57217 -4.2252,3.04609 -1.7687,2.55478 -2.3583,2.7513 -6.2887,2.35826 -4.0287,-0.49131 -4.4218,-0.39305 -5.0113,1.86695 -0.3931,1.67044 0.1965,4.0287 1.8669,7.27131 2.26,4.52 2.3583,5.60087 2.1618,17.39217 -0.2948,10.8087 -0.5896,13.0687 -2.26,15.23044 -2.7513,3.63565 -4.6183,3.73391 -7.0748,0.29478 -1.7687,-2.45652 -2.1618,-4.42174 -2.26,-13.56 -0.098,-6.48522 0.393,-12.67565 1.1791,-15.91826 1.2774,-4.91304 1.2774,-5.30609 -0.4913,-6.58348 -1.2774,-0.98261 -3.2426,-1.27739 -5.8956,-0.88435 -8.1557,1.08087 -32.2296,0.49131 -41.9574,-0.98261 l -4.7166,-0.68782 0,4.32348 c 0,5.30608 -2.0634,8.64695 -4.2252,6.87826 -3.5374,-2.94783 -2.26,-11.98783 1.7687,-11.98783 1.1791,0 1.4739,-1.96522 1.4739,-11.20174 0,-14.05131 0.1965,-14.34609 10.3174,-14.34609 4.127,0 7.5661,-0.4913 7.9591,-1.08087 0.2948,-0.58956 -0.8843,-3.34087 -2.7513,-6.09217 -5.5026,-8.15566 -9.433,-15.82 -10.1208,-19.75044 -0.3931,-1.96522 -1.5722,-4.61826 -2.5548,-5.89565 -0.9826,-1.27739 -2.0635,-4.12696 -2.4565,-6.2887 -0.3931,-2.26 -1.6705,-5.50261 -2.9479,-7.2713 -1.2773,-1.67044 -2.3582,-3.83218 -2.3582,-4.61826 0,-0.88435 -1.0809,-3.73392 -2.3583,-6.48522 -9.1382,-19.16087 -10.2191,-23.97566 -7.5661,-34.39131 4.127,-16.31131 5.7974,-21.81392 7.2713,-24.17218 0.8844,-1.27739 1.867,-4.32348 2.26,-6.78 0.2948,-2.45652 1.474,-5.99391 2.5548,-7.86087 1.0809,-1.86695 2.3583,-5.99391 2.8496,-9.23652 0.5896,-3.24261 1.7687,-7.2713 2.8496,-8.94174 0.9826,-1.57217 2.0634,-4.42174 2.4565,-6.2887 0.393,-1.76869 1.9652,-6.19043 3.6356,-9.82608 7.7626,-17.49044 12.2826,-24.86001 16.7044,-27.21827 2.1617,-1.17913 2.26,-1.67043 2.26,-14.83739 l 0,-13.56 3.2426,-1.47391 3.3409,-1.47392 -0.5896,-7.46782 c -0.5896,-6.87827 -0.3931,-8.0574 2.4565,-14.73914 1.6704,-4.02869 4.127,-8.54869 5.4044,-10.02261 1.2774,-1.57217 2.3582,-3.24261 2.3582,-3.73391 0,-0.39304 1.3757,-1.47391 2.9478,-2.35826 2.3583,-1.17913 2.9479,-2.16174 2.9479,-4.71652 0,-2.65305 -0.6879,-3.53739 -4.0287,-5.60087 -2.26,-1.37566 -6.2887,-5.10957 -9.1383,-8.25392 l -5.0113,-5.89565 0,-13.75652 c 0,-13.85479 0,-13.85479 3.1444,-18.86609 4.8147,-7.86087 10.1208,-14.54261 12.5774,-15.82 2.4565,-1.37566 5.4043,-5.40435 5.4043,-7.56609 0,-1.59674 -3.1783,-2.8044 -6.215,-2.72674 z m 168.1489,1.25283 c -0.6878,0.0983 -2.26,0.39304 -3.5374,0.68782 -1.2774,0.39305 -2.26,0.98261 -2.26,1.37565 0.098,0.49131 0.098,1.37566 0.098,2.16174 0,0.78609 2.1617,3.5374 4.913,6.09218 3.0461,2.94782 5.4044,6.19043 6.4853,9.13826 0.8843,2.45652 2.4565,6.09217 3.4391,8.05739 2.653,5.01131 2.653,20.34 0,27.61131 -0.9826,2.84956 -2.26,6.97652 -2.9478,9.23652 -0.6879,2.45652 -2.5548,5.30609 -5.0113,7.66435 -5.0113,4.61826 -5.0113,6.78 0,9.92435 2.9478,1.86696 4.0287,3.24261 4.52,6.09217 0.393,2.06348 1.4739,5.7974 2.4565,8.35218 2.7513,6.97652 3.4391,18.47304 1.4739,23.38609 -0.8844,2.16174 -1.5722,4.12695 -1.5722,4.32348 0,0.19652 1.5722,0.68782 3.5374,0.98261 1.867,0.39304 3.6357,1.17913 3.8322,1.86695 0.2948,0.68783 0.5896,7.76261 0.6878,15.91826 l 0.2948,14.73914 3.6356,0.58956 c 4.127,0.68783 7.8609,2.84957 10.1209,5.99391 4.3235,6.19044 6.78,10.41566 7.9592,13.75653 0.6878,2.06348 2.653,5.40435 4.2252,7.46782 5.7974,7.27131 15.9182,29.28175 17.1956,37.33914 0.2948,2.35826 1.5722,6.19043 2.7513,8.35217 1.7687,3.63566 2.0635,5.89566 2.1618,17.88348 0.098,12.38087 -0.098,14.05131 -1.9653,17.19566 -1.1791,1.86695 -2.4565,4.91304 -2.8495,6.68174 -0.7861,3.63565 -4.7165,11.20174 -7.9591,15.13217 -1.1792,1.47392 -2.4566,4.32348 -2.8496,6.38696 -0.2948,2.06348 -1.9652,5.99391 -3.5374,8.74522 -1.5722,2.7513 -2.8496,6.09217 -2.8496,7.36956 0,1.2774 -0.9826,4.32348 -2.0634,6.78 -1.0809,2.35827 -2.3583,7.66435 -2.8496,11.79131 -0.4913,4.0287 -1.1791,8.64696 -1.5722,10.12087 -0.5896,2.45652 -0.2948,2.84957 3.3409,4.32348 4.52,1.76869 6.0922,4.52 8.1556,14.73913 1.0809,5.20783 1.6705,6.19044 4.2253,7.27131 2.9478,1.37565 3.046,1.47391 2.7513,7.36956 -0.3931,9.72783 1.1791,9.33479 14.2478,-3.73391 6.1904,-6.09218 13.0687,-13.56 15.3287,-16.50783 2.26,-2.94783 4.6182,-6.09217 5.3061,-6.87826 1.5721,-1.86696 6.9765,-9.13826 13.3634,-18.08 5.4044,-7.56609 16.4096,-28.29914 16.4096,-30.85392 0,-0.88435 1.0809,-3.83217 2.3583,-6.58348 3.0461,-6.28869 7.3695,-18.96435 8.9417,-26.33391 0.7861,-3.14435 1.9652,-7.36957 2.7513,-9.43305 0.8844,-2.06348 1.9652,-9.82609 2.6531,-17.39217 0.5895,-7.46783 1.4739,-16.31131 1.9652,-19.55392 0.5895,-3.24261 0.9826,-8.35217 0.9826,-11.39826 0,-9.5313 -3.8322,-40.38522 -5.7974,-47.06696 -5.0113,-16.60609 -10.3174,-32.22957 -11.9878,-35.57044 -0.9826,-2.06348 -1.867,-4.22522 -1.867,-4.91304 0,-0.68783 -1.0809,-3.53739 -2.4565,-6.19044 -1.2774,-2.7513 -2.4565,-5.60087 -2.4565,-6.48522 0,-0.88434 -1.0809,-3.04608 -2.4566,-4.91304 -1.3756,-1.86696 -5.4043,-7.76261 -8.9417,-13.16696 -3.6356,-5.40435 -7.5661,-11.10348 -8.8435,-12.57739 -1.2774,-1.57217 -2.3582,-3.24261 -2.3582,-3.73391 0,-1.57218 -15.6235,-19.3574 -24.2705,-27.51305 -8.1556,-7.86087 -15.6234,-13.75652 -24.7617,-19.75044 -3.0461,-1.96521 -6.78,-4.52 -8.4504,-5.69913 -5.994,-4.12695 -10.6122,-6.97652 -15.034,-9.33478 -2.5547,-1.37565 -5.306,-2.84957 -6.0921,-3.34087 -3.8322,-2.35826 -11.8896,-5.99391 -12.9705,-5.89565 z m -108.6673,8.86804 c -0.7144,0.0201 -1.5077,0.57728 -2.4657,1.64587 -0.8844,0.98261 -2.3583,3.53739 -3.2426,5.60087 -0.8844,2.16174 -2.4566,5.10957 -3.4392,6.58348 -1.0808,1.37565 -2.653,6.38696 -3.5374,11.00522 -1.9652,10.02261 -0.786,17.39217 3.5374,22.50174 1.4739,1.76869 3.7339,4.81478 5.0113,6.87826 3.4392,5.20783 5.994,4.61826 7.5661,-1.57217 0.6879,-2.65305 1.867,-5.89566 2.7513,-7.17305 0.7861,-1.27739 2.1618,-6.19043 3.0461,-10.90696 1.2774,-7.7626 1.2774,-9.13826 -0.098,-14.93565 -0.8844,-3.53739 -2.1618,-7.36956 -2.8496,-8.45043 -0.6878,-1.08087 -1.9652,-4.0287 -2.9478,-6.68174 -1.1669,-3.07066 -2.1408,-4.52902 -3.3317,-4.49544 z m 49.1612,0.15661 c -0.6731,0.0954 -1.8455,1.08394 -2.7913,2.37361 -5.5026,7.56609 -11.2017,22.30522 -11.2017,28.98696 0,5.89565 2.4565,11.88956 7.8609,19.25913 5.9939,8.35217 7.7626,8.74522 9.5313,2.16174 0.5895,-2.45652 2.0634,-6.19044 3.1443,-8.35218 1.7687,-3.34087 2.0635,-5.5026 1.9652,-16.70435 0,-12.67565 -0.098,-12.77391 -3.6356,-20.04521 -1.9652,-4.0287 -4.127,-7.46783 -4.6183,-7.66435 -0.074,-0.0246 -0.1587,-0.029 -0.2548,-0.0153 z m -98.4974,2.66794 c -0.393,0 -1.9652,1.27739 -3.2426,2.94783 -1.3756,1.57217 -2.8495,3.93043 -3.2426,5.10956 -0.393,1.27739 -1.5722,3.43913 -2.7513,4.81478 -2.653,3.14435 -5.0113,16.60609 -4.1269,22.89479 0.6878,4.42174 6.3869,14.0513 10.9069,18.27652 1.9652,1.86696 2.6531,2.06348 3.9304,0.98261 0.7861,-0.68783 1.474,-1.67043 1.474,-2.16174 0,-0.58956 1.1791,-3.24261 2.5547,-5.99391 3.6357,-7.36957 5.6992,-19.25913 4.3235,-25.64609 -1.1791,-5.50261 -8.4504,-21.22435 -9.8261,-21.22435 z m 147.9809,1.96522 c -0.1965,0 -1.7687,1.57217 -3.4391,3.43913 -1.6704,1.96521 -3.0461,4.12695 -3.0461,4.81478 0,0.68783 -0.8843,2.35826 -1.867,3.73391 -1.0808,1.27739 -2.26,3.73392 -2.653,5.30609 -0.393,1.57218 -1.4739,4.52 -2.4565,6.48522 -3.6357,7.17304 -1.3757,15.72174 6.5835,25.74435 7.2713,9.04 7.0747,9.04 10.9069,-0.0983 3.5374,-8.25392 4.52,-14.34609 3.9305,-24.86 -0.3931,-8.0574 -0.9827,-10.41566 -4.0287,-16.99914 -1.867,-4.12695 -3.6357,-7.56608 -3.9305,-7.56608 z m 58.5635,88.63131 c 0.6878,-0.68783 3.4391,-1.17913 6.1904,-1.17913 4.2253,0 5.5026,0.4913 7.4679,2.55478 1.2774,1.37565 5.1095,4.52 8.5487,6.97652 3.3408,2.45653 8.9417,7.56609 12.2826,11.49653 3.3408,3.83217 8.5487,9.5313 11.4965,12.77391 6.4852,6.87826 12.5774,14.93565 14.0513,18.27652 0.5896,1.37566 2.0635,3.5374 3.2426,4.91305 2.6531,3.04609 9.2365,15.52522 9.2365,17.39217 0,0.78609 0.7861,2.55479 1.867,3.83218 0.9826,1.27739 2.1617,3.93043 2.5548,5.99391 0.2948,1.96522 1.9652,6.78 3.5374,10.8087 3.2426,8.15565 3.7339,15.91826 1.3756,21.51913 -1.0809,2.75131 -1.8669,3.43913 -3.6356,3.14435 -2.4566,-0.29478 -3.4392,-2.94783 -3.6357,-9.62957 -0.098,-2.7513 -1.0809,-5.89565 -2.5548,-8.35217 -1.3756,-2.16174 -2.4565,-4.81478 -2.4565,-5.89565 0,-1.08087 -0.6878,-3.34087 -1.5722,-4.91305 -0.8843,-1.67043 -2.3582,-5.0113 -3.2426,-7.46783 -0.9826,-2.55478 -4.8148,-9.13826 -8.5487,-14.73913 -3.7339,-5.60087 -7.3695,-11.3 -7.9591,-12.67565 -0.6878,-1.37565 -2.4565,-4.0287 -4.0287,-5.99391 -11.3983,-15.13218 -14.4444,-18.76783 -18.1783,-22.01044 -2.26,-2.06348 -7.173,-6.68174 -11.0052,-10.31739 -3.7339,-3.63566 -8.4504,-7.36957 -10.3174,-8.35218 -1.8669,-0.88435 -4.4217,-2.55478 -5.5026,-3.63565 -1.8669,-1.67044 -2.1617,-1.7687 -2.7513,-0.29478 -5.5751,25.48307 -8.2472,27.47753 2.8496,26.6287 3.7339,1.47391 9.5313,6.78 14.6408,13.26521 2.7514,3.5374 8.5487,10.90696 12.8722,16.31131 4.3235,5.50261 9.6296,12.67565 11.7913,16.11478 4.9131,7.86087 11.3,20.53653 11.3,22.50175 0,0.78608 0.9826,3.04608 2.1618,4.91304 3.0461,4.91304 8.4504,20.83131 9.04,26.72696 0.2948,2.7513 1.0808,7.56609 1.6704,10.61217 1.867,9.43305 -0.393,46.77218 -3.3409,56.59827 -3.3408,11.00522 -6.3869,16.11478 -9.6295,16.11478 -2.4566,0 -3.2426,-3.63565 -2.4566,-10.61217 0.2948,-3.04609 0.8844,-8.94174 1.1792,-12.97044 0.393,-4.02869 0.9826,-7.86087 1.4739,-8.35217 1.1791,-1.47392 2.8496,-12.87218 2.8496,-19.25913 0,-3.04609 -0.8844,-9.92435 -1.867,-15.23044 -1.0809,-5.40435 -2.1617,-11.69305 -2.4565,-13.95305 -0.3931,-2.35826 -1.4739,-5.99391 -2.5548,-8.05739 -1.0809,-2.06348 -2.3583,-6.68174 -2.9478,-10.31739 -0.5896,-3.73391 -1.9652,-7.76261 -2.9479,-9.13826 -1.0808,-1.27739 -1.9652,-3.14435 -1.9652,-3.93044 0,-1.96521 -6.6817,-15.62348 -9.5313,-19.45565 -1.2774,-1.67044 -2.26,-3.34087 -2.26,-3.83217 0,-0.39305 -2.0635,-3.83218 -4.6182,-7.56609 -2.6531,-3.83218 -5.5027,-8.15566 -6.387,-9.72783 -0.8843,-1.47391 -2.5548,-3.63565 -3.7339,-4.81478 -1.0809,-1.08087 -1.9652,-2.35826 -1.9652,-2.84957 0,-0.4913 -1.4739,-1.86695 -3.3409,-2.94782 -1.7687,-1.17914 -5.4043,-4.32348 -8.0574,-6.97653 0.099,-16.00629 -7.0958,-36.42179 1.7687,-44.02087 z m -248.7965,24.27044 c 0,3.93043 -1.5722,5.79739 -11.0053,13.06869 -1.9652,1.47392 -8.0574,8.35218 -13.6582,15.23044 -13.7565,16.99913 -14.4444,17.88348 -16.6061,22.40348 -0.9826,2.16174 -2.5548,5.0113 -3.3409,6.38696 -2.26,3.93043 -6.1904,12.87217 -7.2713,16.90087 -0.5896,2.06348 -1.8669,4.91304 -2.9478,6.38696 -1.0809,1.57217 -2.4565,4.61826 -3.0461,6.97652 -0.6878,2.26 -1.9652,5.60087 -2.9478,7.36956 -1.0809,1.67044 -2.1618,5.10957 -2.5548,7.56609 -0.2948,2.45652 -1.2774,7.66435 -2.1617,11.59479 -1.9653,9.5313 -1.3757,40.58174 0.9826,47.36174 2.653,7.76261 4.2252,11.69304 4.8147,12.28261 -1.4816,5.64966 5.2225,9.29235 12.6757,3.43913 3.6308,-0.71037 2.653,0.78609 3.4391,-9.23652 0.6879,-8.35218 0.5896,-8.5487 -2.0635,-11.3 l -2.653,-2.84957 0.393,-24.46696 c 0.3931,-23.18957 0.5896,-24.76174 3.0461,-32.22957 1.4739,-4.32348 2.6531,-9.13826 2.6531,-10.61217 0,-1.47392 0.8843,-4.61826 1.8669,-6.87826 1.0809,-2.26 2.1618,-5.7974 2.5548,-7.95913 0.7861,-3.93044 4.52,-11.98783 7.6644,-16.31131 0.9826,-1.37565 3.5374,-5.60087 5.7974,-9.33478 2.26,-3.83218 5.306,-8.35218 6.8782,-10.12087 1.4739,-1.7687 2.7513,-3.83218 2.7513,-4.61827 0,-2.06347 7.1731,-6.58347 9.1383,-5.79739 2.26,0.78609 2.1617,1.27739 -1.4739,8.15566 -6.0922,11.49652 -7.5661,14.14956 -8.9418,15.72174 -0.7861,0.88434 -1.9652,3.2426 -2.5547,5.20782 -0.6879,1.96522 -1.7687,4.0287 -2.5548,4.71652 -0.6879,0.58957 -1.5722,2.26 -1.867,3.73392 -0.393,1.47391 -1.9652,5.69913 -3.4391,9.5313 -3.7339,9.04 -7.4678,23.28783 -10.6122,40.28696 -3.0461,16.31131 -3.1443,28.59392 -0.2948,36.84783 0.9826,2.94783 2.3583,10.71044 2.9479,17.19566 0.5895,6.48522 -0.1112,3.94979 0.1836,4.34283 -8.1774,3.47618 -17.7165,0.57594 -40.2741,-3.94979 -1.9652,-3.14435 -2.1617,-4.22522 -1.8669,-15.91826 0.2947,-9.33479 0,-13.16696 -0.9827,-15.13218 -1.1791,-2.35826 -1.1791,-3.14435 0.098,-6.19043 0.9826,-2.26 1.5722,-8.64696 1.9652,-18.96435 0.4913,-13.65826 0.8844,-16.31131 2.9479,-21.12609 1.2773,-3.14435 2.653,-6.97652 3.046,-8.5487 0.3931,-1.67043 1.2774,-3.63565 2.0635,-4.52 0.7861,-0.78609 1.9652,-3.43913 2.7513,-5.89565 2.1618,-6.78 5.7974,-14.83739 8.0574,-18.08 1.1791,-1.67044 2.3583,-3.93044 2.7513,-5.10957 0.3931,-1.08087 3.7339,-5.50261 7.5661,-9.82609 3.8322,-4.22521 7.5661,-8.84348 8.3522,-10.41565 0.7861,-1.47391 1.8669,-2.65304 2.3582,-2.65304 0.4913,0 1.867,-1.7687 2.8496,-3.83218 1.0809,-2.06348 3.3409,-4.91304 5.0113,-6.09217 1.6704,-1.27739 5.6991,-4.91305 8.9418,-7.95913 3.2426,-3.04609 6.2886,-5.69913 6.5834,-5.89566 0.3931,-0.19652 1.3757,-1.67043 2.1618,-3.2426 0.8843,-1.67044 2.4565,-3.04609 3.7339,-3.24261 21.1724,-6.29654 35.8525,-45.35034 2.7513,-23.28783 -1.0809,0.78608 -3.1444,1.47391 -4.6183,1.47391 -3.1443,0 -5.9939,2.06348 -22.5017,16.60609 -5.1096,4.52 -9.7278,8.94174 -10.2191,9.82609 -0.4914,0.88435 -2.9479,3.83217 -5.4044,6.58348 -8.7452,9.62956 -21.6174,26.72696 -24.6635,32.91739 -1.7687,3.43913 -5.2078,10.51391 -7.8608,15.62348 -2.5548,5.10957 -5.0114,10.61218 -5.3061,12.28261 -0.5896,2.45652 -5.6009,11.00522 -8.647,14.64087 -0.393,0.58957 -1.5722,0.19652 -2.7513,-0.88435 -2.8496,-2.55478 -2.653,-9.43304 0.393,-13.56 1.3757,-1.86695 2.5548,-5.0113 2.7514,-7.66435 0.2947,-2.55478 1.7686,-7.17304 3.2426,-10.31739 5.5026,-11.7913 10.5139,-21.61739 12.1843,-23.48435 0.8844,-1.08087 2.8496,-3.73391 4.3235,-5.99391 1.4739,-2.16174 3.5374,-4.91305 4.52,-5.99392 0.9826,-1.08087 2.5548,-3.2426 3.3409,-4.81478 3.046,-5.60087 25.9408,-28.00435 36.0617,-35.17739 2.9478,-2.16174 7.0748,-5.40435 9.1383,-7.36957 3.2426,-3.04609 4.4217,-3.53739 8.8434,-3.63565 4.2253,0 5.4736,0.39262 6.2014,1.08483 3.7347,16.4234 4.3609,29.73014 4.3126,36.74561 z m 70.9812,9.12598 c -2.2232,-0.0123 -4.7534,0.55271 -8.5856,1.68271 -3.2426,1.08087 -7.0748,2.16174 -8.5487,2.45652 -3.8322,0.88435 -5.6991,3.24261 -5.6991,7.07479 0,3.14435 0.1965,3.34087 3.2426,3.34087 3.3409,0 11.1035,-2.26 15.7217,-4.52 3.8322,-1.86696 4.127,-1.7687 12.3809,1.67043 7.7626,3.24261 9.3348,3.14435 11.1035,-0.4913 1.5722,-3.63565 -1.0809,-7.46783 -5.4044,-7.46783 -1.6704,0 -5.1095,-0.88435 -7.4678,-1.96522 -2.6039,-1.17913 -4.52,-1.76869 -6.7431,-1.78097 z m 94.005,3.20576 c -3.1923,0.005 -6.0984,0.17195 -8.0636,0.54043 -8.4505,1.47391 -16.3113,8.84348 -13.3635,12.38087 1.5722,1.96522 6.0922,1.67044 8.8435,-0.4913 1.2774,-0.98261 4.8148,-2.45652 7.8609,-3.24261 4.8147,-1.17913 6.2886,-1.17913 12.7739,0.19652 4.0287,0.88435 8.4504,2.35826 9.9243,3.34087 3.5374,2.35826 5.6991,1.47391 5.6991,-2.35826 0,-4.32348 -1.5721,-6.87826 -5.4043,-8.45044 -2.8373,-1.14842 -11.2473,-1.92585 -18.2703,-1.91608 z m -143.0602,18.16138 c -0.6218,-0.0139 -1.2913,0.38536 -1.9791,1.24514 -1.9652,2.35826 -5.4043,11.39826 -5.0113,13.26522 0.1965,1.17913 1.3757,1.86696 3.7339,2.06348 3.4392,0.39304 5.8957,1.67043 5.8957,3.14435 0,0.4913 -1.5722,1.67043 -3.4392,2.84956 -4.1269,2.35826 -4.3234,3.83218 -0.8843,7.07478 l 2.4565,2.35827 -2.8495,2.45652 c -4.6183,3.93043 -4.6183,5.50261 0.393,15.72174 4.2252,8.74522 4.4217,9.62956 3.8322,14.93565 -0.3931,3.34087 -0.1965,6.97652 0.393,8.94174 0.8844,2.55478 0.7861,4.52 -0.1965,8.5487 -0.9826,3.63565 -1.0809,6.68174 -0.4913,10.21913 0.4913,2.7513 0.5896,8.45044 0.1965,12.57739 l -0.5896,7.56609 3.1444,2.94783 c 3.1443,2.84956 3.1443,2.84956 2.9478,11.49652 -0.4913,16.50783 -0.1965,18.08 2.8496,18.08 2.653,0 3.0461,-1.7687 3.0461,-15.23044 0,-12.08608 0,-12.28261 -2.6531,-14.73913 l -2.7513,-2.45652 0.2948,-29.77305 0.1965,-29.8713 -2.5548,-4.71653 c -2.0634,-3.93043 -2.4565,-5.69913 -1.9652,-9.33478 0.2948,-2.45652 0.5896,-5.30609 0.4913,-6.38696 0,-1.08087 -0.098,-3.63565 -0.1965,-5.79739 0,-2.55478 0.4913,-4.12695 1.5722,-5.0113 2.26,-1.57218 2.0635,-4.71652 -0.2948,-6.87826 -1.1791,-1.08087 -1.9652,-3.14435 -2.0635,-5.30609 -0.2211,-6.19044 -1.6581,-9.94892 -3.5235,-9.99036 z m 50.5782,0.61873 c -1.8301,-0.0123 -3.1321,0.0368 -3.4268,0.13511 -0.6879,0.29478 -2.5548,1.57217 -4.2253,3.04608 -2.5547,2.26 -2.9478,3.34087 -2.9478,7.36957 0,4.32348 0.1965,4.71652 2.1618,4.42174 2.0634,-0.29478 2.8495,-1.7687 4.2252,-7.27131 0.1965,-0.58956 4.0287,-1.37565 8.9417,-1.76869 8.0574,-0.68783 8.8435,-0.58957 10.4157,1.27739 1.9652,2.45652 3.2426,12.97044 2.26,18.66957 -0.3931,2.45652 -2.1618,5.89565 -4.6183,8.94174 -3.5374,4.52 -4.2252,4.91304 -7.9591,4.91304 -6.78,0 -8.4505,-0.88435 -10.4157,-5.50261 -2.653,-5.79739 -5.0113,-5.79739 -5.0113,0 0,8.84348 8.3522,13.16696 20.6348,10.8087 3.5374,-0.78609 10.907,-7.86087 13.2652,-12.87218 2.7513,-5.69913 1.2774,-24.3687 -1.9652,-26.23565 -0.9826,-0.58957 -2.7513,-1.96522 -3.8322,-3.14435 -1.6704,-1.67044 -3.6356,-2.16174 -10.9069,-2.55478 -2.4074,-0.14739 -4.7657,-0.22109 -6.5958,-0.23337 z m 87.4645,0.52815 c -1.2774,0 -4.127,1.47391 -6.387,3.14435 -2.26,1.76869 -5.5026,4.81478 -7.0748,6.97652 -3.0461,3.83217 -3.0461,3.93044 -3.0461,16.01652 0,6.68174 0.4913,13.0687 0.9826,14.14957 0.5896,0.98261 2.4566,2.55478 4.2253,3.43913 1.7687,0.88435 4.1269,2.65304 5.3061,3.93044 2.5547,2.84956 9.1382,3.2426 11.2017,0.78608 0.6878,-0.78608 2.8496,-2.35826 4.7165,-3.34087 6.2887,-3.14435 8.9418,-6.97652 9.6296,-13.16695 0.2948,-3.04609 0.9826,-5.7974 1.3756,-6.09218 1.5722,-0.98261 0.8844,-5.89565 -1.4739,-10.90696 -2.9478,-6.09217 -7.7626,-10.31739 -11.2017,-9.92435 -3.7339,0.49131 -3.7339,2.45653 0.098,4.71653 2.26,1.37565 4.0287,3.43913 5.1096,6.09217 0.8844,2.26 2.5548,5.40435 3.6357,6.97652 l 2.0634,2.84957 -3.6356,3.34087 c -1.9652,1.76869 -3.5374,3.83217 -3.5374,4.52 -0.098,0.68783 -1.9652,3.34087 -4.4217,5.89565 -5.1096,5.69913 -8.5487,6.19044 -12.4792,1.96522 -4.8148,-4.91304 -6.8782,-11.59478 -6.3869,-19.75044 0.393,-6.28869 0.7861,-7.56608 2.7513,-9.04 1.2774,-0.98261 3.7339,-2.84956 5.3061,-4.22522 1.6704,-1.47391 3.8321,-3.14434 4.8147,-3.93043 2.4566,-1.67044 1.3757,-4.52 -1.5721,-4.42174 z m 84.1881,2.85878 c 1.3563,0.0507 3.7185,1.05937 6.7032,2.93861 2.7513,1.67044 4.8148,3.83218 5.2078,5.30609 0.2948,1.27739 1.3757,3.14435 2.4565,4.02869 0.9826,0.98261 2.3583,3.34087 2.9479,5.30609 0.6878,1.96522 1.9652,4.61826 2.9478,5.89565 1.0809,1.2774 1.8669,3.04609 1.8669,3.93044 0,0.88435 1.0809,3.24261 2.3583,5.10957 1.3757,1.96521 2.7513,4.81478 3.1443,6.38695 0.2948,1.57218 1.6705,4.61826 2.8496,6.78 1.1791,2.16174 2.5548,5.89566 2.9478,8.35218 0.3931,2.45652 1.3757,5.99391 2.1618,7.86087 2.4565,5.79739 3.2426,15.13217 3.2426,39.89392 0,21.61739 -0.098,24.07391 -1.9652,28.00435 -1.3757,3.14434 -1.9652,6.48521 -1.9652,12.38087 0,7.95913 -0.098,8.15565 -2.8496,9.5313 -1.5722,0.88435 -3.0461,2.26 -3.4391,3.04609 -0.824,0.86989 -1.0897,1.43804 -1.9879,1.79004 -1.3873,-0.22392 -2.3989,-0.56864 -4.4652,-1.6338 -0.2577,-1.22423 -4.2574,-3.39885 -1.9974,-5.75711 3.5374,-3.83218 3.6357,-4.22522 4.4218,-17.49044 0.393,-6.09217 1.1791,-11.49652 2.0634,-13.26522 1.7687,-3.53739 3.4392,-16.80261 2.8496,-22.40348 -2.3583,-20.53652 -3.7339,-30.46087 -5.1096,-35.07913 -0.786,-2.94783 -2.26,-8.84348 -3.2426,-12.97044 -0.9826,-4.12695 -2.653,-8.74521 -3.7339,-10.12087 -1.0809,-1.37565 -2.3582,-3.93043 -2.7513,-5.69913 -0.5896,-2.65304 -3.3409,-7.56609 -8.9417,-15.42696 -1.6705,-2.26 -5.6992,-11.10348 -6.8783,-15.03391 -0.3439,-1.16071 0.1028,-1.70068 1.1577,-1.66122 z m -31.1119,1.09008 c -0.8705,-0.0431 -1.7963,0.28864 -2.5701,1.06244 -0.5896,0.58957 -1.1792,1.7687 -1.1792,2.55479 0,0.78608 -0.8843,2.45652 -1.9652,3.83217 -1.0809,1.47391 -1.9652,4.0287 -1.9652,5.99391 0,2.75131 -0.7861,4.12696 -4.127,7.07479 l -4.0287,3.73391 1.867,2.75131 c 0.9826,1.47391 2.26,3.14434 2.7513,3.83217 0.5896,0.78609 0.1965,2.16174 -1.1791,3.93044 -2.5548,3.14434 -2.7513,5.69913 -0.6879,7.36956 1.9653,1.67044 4.2253,0.58957 5.6009,-2.65304 0.6878,-1.47392 1.7687,-3.53739 2.5548,-4.42174 1.1791,-1.47391 1.1791,-2.06348 -0.1965,-4.81478 -0.8844,-1.7687 -1.5722,-4.0287 -1.5722,-5.01131 0,-1.86696 0.393,-2.16174 5.2078,-3.14435 l 2.7513,-0.68782 -2.0634,-2.75131 c -1.0809,-1.57217 -1.9653,-4.42174 -1.9653,-6.38696 0,-2.84956 0.4913,-3.73391 3.0461,-5.0113 2.3583,-1.27739 2.9479,-2.16174 2.6531,-4.22522 -0.1843,-1.84239 -1.4816,-2.9557 -2.9325,-3.02766 z m -135.7136,4.79636 c -0.6879,0 -1.9652,0.4913 -2.8496,1.08087 -2.26,1.27739 -3.6356,3.83217 -5.2078,10.02261 -1.1792,4.42174 -1.0809,5.40435 0.2948,7.76261 1.9652,3.34087 6.6817,5.50261 8.9417,4.02869 2.26,-1.37565 5.2078,-10.90696 4.52,-14.64087 -0.5896,-3.53739 -3.9304,-8.25391 -5.6991,-8.25391 z m 86.3928,2.51947 c -0.5066,-0.0507 -1.3726,0.13357 -2.1833,0.42835 -3.8321,1.47392 -5.306,4.81479 -5.306,11.98783 0,5.40435 0.393,7.07478 2.0634,8.74522 2.8496,2.84956 5.9939,2.06348 7.9592,-2.06348 1.5721,-3.24261 1.5721,-3.93043 0,-11.00522 -0.8844,-4.12695 -1.867,-7.66435 -2.1618,-7.95913 -0.074,-0.0737 -0.2026,-0.11668 -0.3715,-0.13357 z m -104.1259,7.16383 c -0.3569,-0.0518 -0.6663,0.4867 -0.74,1.81322 -0.1965,2.75131 0.1965,4.61826 1.1792,5.60087 0.4913,0.58957 0.8843,-0.58956 0.8843,-3.14435 0,-2.45652 -0.7285,-4.18338 -1.3235,-4.26974 z m -49.1734,0.55271 c -0.4514,-0.0415 -0.8198,0.62181 -1.1883,1.94834 -0.2948,1.47391 -0.1965,3.14434 0.2948,3.63565 0.6878,0.68783 1.2774,0.0983 1.6704,-1.67044 0.393,-1.47391 0.2948,-3.04608 -0.2948,-3.63565 -0.1719,-0.17195 -0.3316,-0.26407 -0.4821,-0.2779 z m 103.7175,2.60085 c -0.6547,0.0473 -1.2774,0.41607 -1.8302,1.11618 -0.5895,0.68783 -1.2773,3.53739 -1.6704,6.38696 -0.393,2.7513 -1.5722,7.07478 -2.653,9.5313 -1.2774,2.94783 -2.1618,7.66435 -2.4566,13.16696 -0.2947,5.01131 -1.2773,10.41566 -2.4565,13.16696 -0.9826,2.55478 -1.8669,5.30609 -1.8669,6.19044 0,2.65304 4.52,6.38695 7.7626,6.38695 1.5721,0 5.2078,1.08087 8.1556,2.45652 7.3696,3.43914 10.907,3.24261 13.9531,-0.78608 2.7513,-3.53739 3.2426,-6.09218 1.4739,-7.17305 -0.5896,-0.29478 -4.9131,-0.58956 -9.6296,-0.4913 -11.3982,0.19652 -12.3809,-0.49131 -11.0052,-8.25391 0.5896,-3.14435 1.0809,-7.56609 1.0809,-9.82609 0,-2.26 1.1791,-6.87826 2.5548,-10.31739 3.3408,-8.35218 4.1269,-15.82001 1.9652,-19.16088 -1.1055,-1.65815 -2.2867,-2.47226 -3.3777,-2.39357 z m 104.5281,9.67102 c -0.3308,0.0489 -0.5313,0.35005 -0.5313,0.97647 0,0.4913 0.8844,2.84956 1.9652,5.40435 2.4565,5.40434 5.5026,6.38695 4.52,1.37565 -0.6387,-3.43299 -4.5207,-7.96823 -5.9539,-7.75647 z m -208.6478,10.90082 c -0.3931,0 -0.6879,2.06347 -0.5896,4.52 0.2948,6.19043 1.3757,6.68174 1.3757,0.58956 0,-2.84956 -0.3931,-5.10956 -0.7861,-5.10956 z m 229.7339,0.98261 c -0.5896,0 -0.9826,1.17913 -0.9826,2.65304 0,3.04609 1.4739,5.99391 2.5548,5.0113 0.8843,-0.98261 -0.4913,-7.66434 -1.5722,-7.66434 z m -238.8461,2.01281 c -0.5063,0.054 -1.1622,0.52354 -1.8931,1.42632 -0.8843,1.08087 -0.9826,1.86695 -0.1965,2.65304 1.3757,1.37565 3.1444,0.0983 3.1444,-2.26 0,-1.27125 -0.4038,-1.88888 -1.0548,-1.81936 z m 228.8066,0.18577 c -0.5769,0.0104 -1.1991,0.68783 -1.7518,2.12489 -1.0809,3.04609 -0.393,5.20783 2.1617,6.58348 1.7687,0.98261 1.867,0.68783 1.5722,-3.63565 -0.1842,-3.25489 -1.0205,-5.08999 -1.9821,-5.07272 z m -13.1285,1.16993 c -0.3475,0.0709 -0.3409,1.36029 -0.2181,4.49236 0.2948,5.99391 2.0635,7.36956 2.5548,1.96521 0.1965,-1.96521 -0.393,-4.22521 -1.2774,-5.40435 -0.5159,-0.7001 -0.8509,-1.09583 -1.0593,-1.05322 z m -8.7422,4.5292 c -0.6878,0.0369 -1.4002,1.73185 -1.7933,5.07272 -0.6878,5.99391 0,9.62957 1.7687,9.62957 1.6705,0 2.26,-3.73392 1.6705,-9.82609 -0.2948,-3.29174 -0.9581,-4.91304 -1.6459,-4.8762 z m 36.1354,2.91098 c -1.2774,0 -1.4739,0.88435 -0.8843,5.99392 0.7861,6.48521 2.26,11.3 3.2426,10.41565 0.9826,-1.08087 1.0809,-12.87218 0.1965,-14.73913 -0.5896,-0.88435 -1.6704,-1.67044 -2.5548,-1.67044 z m -241.4515,2.76052 c -0.3439,-0.009 -0.565,0.16274 -0.565,0.58035 0,2.35826 2.3582,10.41565 3.0461,10.41565 1.3756,0 2.26,-5.0113 1.2774,-7.7626 -0.5896,-1.54761 -2.7268,-3.20577 -3.7585,-3.2334 z m -9.0477,4.36493 c -0.3743,-0.0461 -0.6433,0.3301 -0.9504,1.12847 -0.7861,2.16174 0.2948,3.2426 1.7687,1.76869 0.8844,-0.88435 0.8844,-1.47391 0,-2.35826 -0.3316,-0.33163 -0.5938,-0.51126 -0.8183,-0.5389 z m 240.9679,0.73542 c -0.1965,0 -0.5896,2.06348 -0.9826,4.52 -1.1791,8.84348 -0.7861,12.97044 1.6704,15.3287 1.1792,1.17913 2.6531,4.0287 3.1444,6.19044 1.3756,5.10956 3.8322,5.30608 4.2252,0.29478 0.2948,-2.94783 -0.1965,-4.12696 -2.1617,-5.79739 -2.26,-1.96522 -2.5548,-2.94783 -2.5548,-8.45044 0,-5.30609 -1.867,-12.08609 -3.3409,-12.08609 z m -12.0861,1.67044 -0.5895,2.35826 c -0.9826,3.63565 0.393,15.72174 1.8669,16.3113 2.1618,0.78609 3.6357,5.89566 2.9478,10.51392 -0.5895,3.83217 -0.393,4.52 1.3757,5.50261 3.9304,2.06348 5.2078,0.58956 4.7165,-5.60087 -0.2948,-3.04609 -0.9826,-5.79739 -1.5722,-5.99392 -0.5895,-0.19652 -2.26,-1.27739 -3.7339,-2.35826 -2.5548,-2.06348 -2.5548,-2.35826 -2.0634,-9.23652 0.5895,-5.99391 0.393,-7.46783 -1.1792,-9.33478 z m -9.7815,6.55584 c -0.3445,0.0626 -0.7201,0.3347 -1.1254,0.81372 -0.4913,0.68783 -1.1792,5.99392 -1.3757,11.79131 -0.2948,9.62956 -0.5895,10.71043 -2.5548,12.18435 -1.9652,1.37565 -2.1617,2.35826 -2.1617,9.5313 0,9.43305 0.9826,11.88957 3.6356,9.33479 1.3757,-1.47392 1.6705,-3.24261 1.474,-10.61218 -0.1966,-8.25391 -0.098,-8.84348 1.6704,-8.84348 3.2426,0 3.9304,-2.84956 3.3409,-13.06869 -0.4791,-7.74419 -1.4108,-11.40213 -2.9033,-11.13112 z m -205.4312,1.25743 c -0.9483,0.0191 -1.7227,0.28097 -1.9438,0.83368 -0.1965,0.78609 0.2948,2.45653 1.1791,3.83218 1.867,2.84956 2.26,9.62956 1.0809,19.25913 -0.6878,5.69913 -0.5896,6.58348 1.1791,8.15565 1.867,1.7687 1.9652,1.7687 3.4391,-0.39304 1.2774,-1.7687 1.474,-4.42174 0.9827,-15.52522 -0.2948,-7.36956 -0.9827,-13.85478 -1.474,-14.44435 -0.7983,-1.10543 -2.8627,-1.74969 -4.4431,-1.71803 z m -18.8585,1.29121 c -0.4539,0.03 -0.9319,0.26101 -1.3618,0.72161 -0.8844,0.78608 -0.8844,4.71652 0,5.5026 1.0808,1.17913 3.2426,-1.37565 3.2426,-3.83217 0,-1.55375 -0.8822,-2.45801 -1.8808,-2.39204 z m 13.7703,1.01639 c -0.6878,0 -1.4739,0.78608 -1.7687,1.67043 -0.393,0.98261 -1.4739,2.84957 -2.4565,4.12696 -3.5374,4.61826 -1.1791,13.0687 2.6531,9.92435 1.0808,-0.98261 1.4739,-2.84957 1.3756,-6.78 -0.098,-3.04609 0.1965,-6.2887 0.5896,-7.27131 0.393,-0.98261 0.2948,-1.67043 -0.3931,-1.67043 z m 248.4527,2.01435 c -0.4668,-0.0246 -0.8352,0.19652 -1.2283,0.63869 -0.393,0.29478 -0.6878,1.67044 -0.6878,2.94783 0,1.96522 0.4913,2.35826 2.1617,2.06348 2.5548,-0.29479 3.6357,-3.5374 1.5722,-4.81479 -0.7861,-0.54043 -1.3511,-0.81065 -1.8178,-0.83521 z m -139.2496,17.12656 c -1.582,-0.0109 -3.0199,0.17963 -4.0639,0.60952 -1.2774,0.49131 -2.9478,1.67044 -3.5374,2.55479 -0.7861,0.98261 -3.1444,1.76869 -6.78,2.06348 -4.52,0.39304 -5.8957,0.88434 -7.1731,2.7513 -0.786,1.27739 -1.9652,2.35826 -2.4565,2.35826 -1.8669,0 -7.6643,7.17305 -10.0226,12.47913 -1.3756,2.84957 -2.9478,7.86087 -3.5374,10.90696 -0.4913,3.04609 -1.8669,7.95913 -2.9478,10.8087 -2.6531,6.97652 -2.4565,13.26522 0.8843,27.21826 4.7166,19.75044 11.5948,29.96957 14.3461,21.42087 1.4739,-4.42174 1.867,-4.61826 5.5026,-2.7513 2.4566,1.27739 4.6183,1.57217 8.7453,1.17913 3.5373,-0.39305 5.9939,-0.19652 6.6817,0.4913 0.5896,0.58957 2.1617,0.78609 3.8322,0.29479 2.5548,-0.68783 10.0226,-0.88435 22.6982,-0.58957 l 5.2079,0.0983 -0.2948,3.14435 c -0.1965,2.16174 -0.9826,3.53739 -2.5548,4.32348 -1.1791,0.58956 -3.3409,2.06348 -4.6183,3.34087 -2.0634,1.96522 -2.9478,2.16174 -7.7626,1.57217 -3.4391,-0.4913 -6.1904,-0.29478 -7.4678,0.39305 -1.7687,0.88434 -2.4565,0.78608 -4.0287,-0.58957 -1.5722,-1.37565 -2.26,-1.47391 -4.4217,-0.58957 -4.0287,1.86696 -7.6644,1.37566 -10.2192,-1.27739 -1.7687,-1.86695 -3.2426,-2.45652 -5.4043,-2.26 -4.0287,0.39305 -4.127,3.73392 -0.098,4.81479 1.5722,0.4913 3.9305,1.76869 5.2078,3.04608 2.3583,2.16174 3.0461,2.26 17.9818,2.26 14.3461,0 15.7217,-0.19652 17.8835,-2.06347 1.2774,-1.08087 3.5374,-2.55479 5.0113,-3.14435 1.4739,-0.68783 3.5374,-2.55479 4.4217,-4.32348 0.8844,-1.67044 3.0461,-4.52 4.8148,-6.2887 1.6704,-1.76869 3.4391,-4.22522 3.8322,-5.50261 0.393,-1.17913 1.5721,-3.43913 2.653,-4.91304 1.867,-2.55478 1.9652,-4.22522 2.0635,-28.98696 l 0.098,-26.33392 -3.3409,-5.40434 c -1.7687,-2.94783 -3.7339,-5.60087 -4.2252,-5.7974 -0.4913,-0.19652 -2.4566,-1.57217 -4.2253,-3.14434 -1.7687,-1.57218 -3.7339,-2.84957 -4.3234,-2.84957 -1.7687,0 -1.1792,2.84957 0.8843,4.12696 2.4565,1.57217 2.5548,3.83217 0.1965,6.68174 -1.6704,2.06348 -1.9652,2.06348 -10.5139,0.98261 -4.913,-0.58957 -9.7278,-1.08087 -10.8087,-1.08087 -1.0808,0.0983 -8.2539,0.29478 -16.0165,0.4913 -7.7626,0.19652 -14.3461,0.58957 -14.6409,0.98261 -0.9826,0.98261 -3.2426,-1.47391 -3.2426,-3.53739 0,-1.08087 1.5722,-3.43913 3.5374,-5.20783 3.0461,-2.84956 4.6183,-3.43913 10.1209,-4.0287 3.5374,-0.29478 7.173,-1.27739 8.0574,-2.06347 0.8843,-0.68783 3.2426,-1.67044 5.2078,-1.96522 2.8496,-0.39304 4.127,-0.0983 5.7974,1.47391 1.1791,1.08087 4.0287,2.26 6.387,2.65305 2.4565,0.39304 4.7165,1.47391 5.5026,2.65304 1.1791,1.57217 1.7687,1.7687 3.4391,0.88435 4.6183,-2.45652 1.5722,-7.76261 -5.1096,-9.04 -2.5548,-0.39305 -5.7974,-1.67044 -7.2713,-2.75131 -2.2292,-1.55375 -6.4087,-2.55072 -9.8891,-2.57474 z m 91.8387,24.09387 c -1.2774,0 -2.653,0.29479 -2.9478,0.68783 -0.8844,0.78609 -0.8844,5.01131 -0.098,9.04 0.4913,2.35826 1.1791,3.04609 2.9478,3.04609 2.26,0 2.3583,-0.29478 2.3583,-6.38696 0,-5.99391 -0.098,-6.38696 -2.26,-6.38696 z m -79.9229,9.49753 c 8.3791,0.0595 13.4371,0.5128 15.4638,1.31117 1.4739,0.68783 3.046,1.86696 3.4391,2.75131 1.1791,2.94782 1.6704,24.17217 0.5896,31.05043 -0.7861,4.61826 -1.7687,7.46783 -3.3409,9.13827 l -2.26,2.45652 -23.1896,-0.39305 c -26.3339,-0.29478 -25.9409,-0.19652 -28.9869,-8.35217 -2.0635,-5.30609 -2.4566,-20.92957 -0.7861,-28.20087 1.9652,-8.35218 3.0461,-8.84348 20.34,-9.43305 7.4801,-0.25793 13.7035,-0.36425 18.731,-0.32856 z M 1307.9236,569.663 c -3.7339,0 -6.9765,0.4913 -7.6643,1.17913 -3.3409,3.34087 1.5721,5.40434 10.7104,4.52 10.6122,-1.08087 8.0574,-5.69913 -3.0461,-5.69913 z m 197.0469,0.0353 c -2.4597,0.0222 -4.7687,0.42529 -5.9295,1.24208 -0.9826,0.78608 -1.4739,1.86695 -1.0808,2.45652 1.0808,1.86696 9.2365,2.55478 13.56,1.08087 l 3.9304,-1.27739 -2.3583,-1.7687 c -1.5476,-1.16069 -4.9595,-1.76187 -8.1218,-1.73338 z m -72.2939,39.45635 c -1.2722,0.13165 -2.799,1.33573 -4.7765,3.74312 -3.046,3.83218 -3.3408,5.89566 -0.5895,5.89566 0.6878,0 1.4739,-0.58957 1.7687,-1.37566 0.2948,-0.78608 1.7687,-1.96521 3.3408,-2.7513 3.2427,-1.57217 3.734,-5.10957 0.7861,-5.50261 -0.1719,-0.0246 -0.3479,-0.028 -0.5296,-0.009 z"
       style="fill:#000000;fill-opacity:1;fill-rule:nonzero;stroke-width:4;stroke-miterlimit:4;stroke-dasharray:none" />
    <path
       d="m 1110.4424,541.74778 -29.458,0 23.0332,18.43683 -8.2287,28.13769 25.5871,-15.79859 25.6763,15.79859 -8.2734,-28.18314 22.8142,-18.39138 -29.2609,0 -10.9562,-27.19472 z"
       style="fill:#ffffff;fill-opacity:1;fill-rule:evenodd;stroke-width:4;stroke-miterlimit:4;stroke-dasharray:none"
       id="path4633"
       inkscape:connector-curvature="0"
       sodipodi:nodetypes="ccccccccccc" />
    <path
       sodipodi:nodetypes="ccccccccccc"
       inkscape:connector-curvature="0"
       id="path4635"
       style="fill:#ffffff;fill-opacity:1;fill-rule:evenodd;stroke-width:4;stroke-miterlimit:4;stroke-dasharray:none"
       d="m 1681.2464,541.74778 -29.4377,0 23.013,18.43683 -8.2288,28.13769 25.5871,-15.79859 25.6764,15.79859 -8.2735,-28.18314 22.8142,-18.39138 -29.2608,0 -10.9563,-27.19472 z" />
  </g>
  <path
     style="fill:none;fill-rule:evenodd;stroke:#000000;stroke-width:4;stroke-linecap:butt;stroke-linejoin:miter;stroke-miterlimit:4;stroke-dasharray:none;stroke-opacity:1"
     d="m 1392.8198,399.69625 c -8.5595,11.19311 -12.1808,23.37385 -14.156,27.65357 -1.9753,4.27972 -4.2798,13.82678 -4.2798,18.76492 0,4.93813 4.9382,5.59655 4.9382,8.88864 0,3.29209 -1.3168,0.65842 1.3168,10.53469 2.6337,9.87628 5.5966,13.16837 4.9382,18.43571 -0.6585,5.26736 -2.3045,15.47284 -3.2921,18.10651 -0.9877,2.63367 -0.3292,6.91339 -1.6461,11.52232 -1.3168,4.60893 -5.2673,6.25497 -6.255,11.52232 -0.9876,5.26734 -3.6212,9.54706 -5.2673,15.80204 -1.646,6.25497 -4.9381,14.81441 -5.2673,24.69069 -0.3292,9.87627 -3.2921,27.32436 -10.2055,33.25012 -6.9134,5.92576 -11.8516,7.2426 -20.0818,9.87627 -8.2302,2.63368 -16.1312,4.60893 -21.0694,4.60893 -4.9381,0 -44.114,3.95051 -61.8913,-3.95051 -17.7773,-7.90102 -38.1882,-28.97041 -40.1635,-38.51747 -1.9753,-9.54706 3.6213,-10.20548 -0.6584,-18.1065 -4.2797,-7.90102 -3.9505,-0.98763 -4.9382,-12.83916"
     id="path4648"
     inkscape:connector-curvature="0" />
  <path
     style="fill:none;fill-rule:evenodd;stroke:#000000;stroke-width:4;stroke-linecap:butt;stroke-linejoin:miter;stroke-miterlimit:4;stroke-dasharray:none;stroke-opacity:1"
     d="m 1400.9547,492.65244 c -4.1902,-6.98358 -4.8885,-6.51801 -5.3541,-11.40652 -0.4656,-4.8885 -0.2328,-10.24258 -0.9312,-12.57044 -0.6983,-2.32786 -4.6557,-9.31144 -5.1213,-13.96716 -0.4655,-4.65572 -1.6295,-9.31144 -5.354,-12.10487 -3.7246,-2.79343 -3.7246,-2.32787 -5.3541,-4.19015"
     id="path4650"
     inkscape:connector-curvature="0" />
  <path
     style="fill:none;fill-rule:evenodd;stroke:#000000;stroke-width:4;stroke-linecap:butt;stroke-linejoin:miter;stroke-miterlimit:4;stroke-dasharray:none;stroke-opacity:1"
     d="m 1383.0301,427.00678 c 8.3803,9.07865 10.2426,12.80324 13.7344,16.99338 3.4918,4.19015 5.1213,9.07866 5.3541,10.94094 0.2328,1.86229 4.4229,8.3803 4.8885,11.63931 0.4656,3.259 1.1639,6.98357 1.3967,9.31144"
     id="path4652"
     inkscape:connector-curvature="0" />
  <path
     style="fill:none;fill-rule:evenodd;stroke:#000000;stroke-width:4;stroke-linecap:butt;stroke-linejoin:miter;stroke-miterlimit:4;stroke-dasharray:none;stroke-opacity:1"
     d="m 1422.1382,480.31478 c -4.6557,-8.14751 -5.5869,-9.54423 -6.0524,-13.73437 -0.4656,-4.19015 -2.0951,-10.47538 -3.2591,-13.26881 -1.1639,-2.79343 -0.4655,-4.65572 -1.1639,-6.51801 -0.6983,-1.86229 -11.1737,-23.04581 -12.5704,-23.97696 -1.3967,-0.93114 -10.2426,-10.70816 -11.4065,-11.40651"
     id="path4654"
     inkscape:connector-curvature="0" />
  <path
     style="fill:none;fill-rule:evenodd;stroke:#000000;stroke-width:4;stroke-linecap:butt;stroke-linejoin:miter;stroke-miterlimit:4;stroke-dasharray:none;stroke-opacity:1"
     d="m 1160.9523,477.98692 c 4.8885,-12.10487 9.3114,-24.44254 11.4065,-27.00318 2.0951,-2.56064 9.0786,-20.71796 10.7081,-25.37368 1.6295,-4.65572 6.2853,-11.17372 8.8459,-15.59666"
     id="path4656"
     inkscape:connector-curvature="0"
     sodipodi:nodetypes="cssc" />
  <path
     style="fill:none;fill-rule:evenodd;stroke:#000000;stroke-width:4;stroke-linecap:butt;stroke-linejoin:miter;stroke-miterlimit:4;stroke-dasharray:none;stroke-opacity:1"
     d="m 1171.4276,484.03935 c 0,0 2.5607,-6.28521 4.1902,-10.94093 1.6295,-4.65572 1.1639,-8.61309 1.3967,-10.94095 0.2328,-2.32786 4.8885,-14.43273 6.0524,-17.45895 1.164,-3.02622 6.5181,-14.66552 9.3115,-16.29502"
     id="path4658"
     inkscape:connector-curvature="0" />
  <path
     style="fill:none;fill-rule:evenodd;stroke:#000000;stroke-width:4;stroke-linecap:butt;stroke-linejoin:miter;stroke-miterlimit:4;stroke-dasharray:none;stroke-opacity:1"
     d="m 1181.2047,478.2197 c -0.9312,-16.76059 0.2327,-19.55402 1.1639,-24.20974 0.9311,-4.65572 6.518,-11.87209 8.1475,-13.2688"
     id="path4660"
     inkscape:connector-curvature="0" />
  <path
     style="fill:none;fill-rule:evenodd;stroke:#000000;stroke-width:4;stroke-linecap:butt;stroke-linejoin:miter;stroke-miterlimit:4;stroke-dasharray:none;stroke-opacity:1"
     d="m 1235.9516,411.87698 c -3.2921,11.02851 -3.2921,14.64981 -2.4691,17.61269 0.8231,2.96288 1.1523,5.92577 1.9753,7.73642"
     id="path4662"
     inkscape:connector-curvature="0" />
  <path
     style="fill:none;fill-rule:evenodd;stroke:#000000;stroke-width:4;stroke-linecap:butt;stroke-linejoin:miter;stroke-miterlimit:4;stroke-dasharray:none;stroke-opacity:1"
     d="m 1331.9161,406.93885 c 9.3824,3.29209 9.3824,3.29209 9.3824,3.29209"
     id="path4664"
     inkscape:connector-curvature="0" />
  <path
     style="fill:none;fill-rule:evenodd;stroke:#000000;stroke-width:4;stroke-linecap:butt;stroke-linejoin:miter;stroke-miterlimit:4;stroke-dasharray:none;stroke-opacity:1"
     d="m 1351.6686,425.86838 c -3.1275,9.21785 -3.1275,9.21785 -3.1275,9.21785"
     id="path4666"
     inkscape:connector-curvature="0" />
  <path
     style="fill:none;fill-rule:evenodd;stroke:#000000;stroke-width:4;stroke-linecap:butt;stroke-linejoin:miter;stroke-miterlimit:4;stroke-dasharray:none;stroke-opacity:1"
     d="m 1306.9091,508.01631 c 6.0524,1.62951 5.8197,1.62951 5.8197,1.62951"
     id="path4668"
     inkscape:connector-curvature="0" />
  <path
     style="fill:none;fill-rule:evenodd;stroke:#000000;stroke-width:4;stroke-linecap:butt;stroke-linejoin:miter;stroke-miterlimit:4;stroke-dasharray:none;stroke-opacity:1"
     d="m 1253.8339,588.79306 10.4754,9.07866"
     id="path4670"
     inkscape:connector-curvature="0" />
  <path
     style="fill:none;fill-rule:evenodd;stroke:#000000;stroke-width:4;stroke-linecap:butt;stroke-linejoin:miter;stroke-miterlimit:4;stroke-dasharray:none;stroke-opacity:1"
     d="m 1167.3115,585.69941 45.1017,1.97525"
     id="path4672"
     inkscape:connector-curvature="0" />
  <path
     style="fill:none;fill-rule:evenodd;stroke:#000000;stroke-width:4;stroke-linecap:butt;stroke-linejoin:miter;stroke-miterlimit:4;stroke-dasharray:none;stroke-opacity:1"
     d="m 1368.7875,586.02862 41.8096,0.32921"
     id="path4674"
     inkscape:connector-curvature="0" />
</svg>
